<ttFont>
    <TTGlyph name="A" xMin="-4" yMin="0" xMax="1188" yMax="1370">
      <contour>
        <pt x="746" y="1370" on="1"/>
        <pt x="847" y="1370" on="0"/>
        <pt x="1011" y="1310" on="0"/>
        <pt x="1126" y="1206" on="0"/>
        <pt x="1188" y="1067" on="0"/>
        <pt x="1188" y="989" on="1"/>
        <pt x="1188" y="381" on="1"/>
        <pt x="1188" y="303" on="0"/>
        <pt x="1126" y="164" on="0"/>
        <pt x="1011" y="60" on="0"/>
        <pt x="847" y="0" on="0"/>
        <pt x="746" y="0" on="1"/>
        <pt x="438" y="0" on="1"/>
        <pt x="337" y="0" on="0"/>
        <pt x="173" y="60" on="0"/>
        <pt x="58" y="164" on="0"/>
        <pt x="-4" y="303" on="0"/>
        <pt x="-4" y="381" on="1"/>
        <pt x="-4" y="989" on="1"/>
        <pt x="-4" y="1067" on="0"/>
        <pt x="58" y="1206" on="0"/>
        <pt x="173" y="1310" on="0"/>
        <pt x="337" y="1370" on="0"/>
        <pt x="438" y="1370" on="1"/>
      </contour>
      <contour>
        <pt x="838" y="453" on="1"/>
        <pt x="952" y="453" on="1"/>
        <pt x="873" y="1198" on="1"/>
        <pt x="811" y="1260" on="1"/>
        <pt x="678" y="1280" on="1"/>
        <pt x="571" y="1280" on="1"/>
        <pt x="438" y="1260" on="1"/>
        <pt x="377" y="1198" on="1"/>
        <pt x="295" y="453" on="1"/>
        <pt x="414" y="453" on="1"/>
        <pt x="430" y="666" on="1"/>
        <pt x="440" y="758" on="1"/>
        <pt x="809" y="758" on="1"/>
        <pt x="819" y="666" on="1"/>
      </contour>
      <contour>
        <pt x="768" y="1159" on="1"/>
        <pt x="775" y="1078" on="0"/>
        <pt x="793" y="934" on="0"/>
        <pt x="801" y="854" on="1"/>
        <pt x="449" y="854" on="1"/>
        <pt x="479" y="1159" on="1"/>
        <pt x="507" y="1162" on="0"/>
        <pt x="548" y="1170" on="0"/>
        <pt x="576" y="1174" on="1"/>
        <pt x="674" y="1174" on="1"/>
      </contour>
    </TTGlyph>
    <TTGlyph name="AE" xMin="-4" yMin="0" xMax="1188" yMax="1370">
      <contour>
        <pt x="746" y="1370" on="1"/>
        <pt x="847" y="1370" on="0"/>
        <pt x="1011" y="1310" on="0"/>
        <pt x="1126" y="1206" on="0"/>
        <pt x="1188" y="1067" on="0"/>
        <pt x="1188" y="989" on="1"/>
        <pt x="1188" y="381" on="1"/>
        <pt x="1188" y="303" on="0"/>
        <pt x="1126" y="164" on="0"/>
        <pt x="1011" y="60" on="0"/>
        <pt x="847" y="0" on="0"/>
        <pt x="746" y="0" on="1"/>
        <pt x="438" y="0" on="1"/>
        <pt x="337" y="0" on="0"/>
        <pt x="173" y="60" on="0"/>
        <pt x="58" y="164" on="0"/>
        <pt x="-4" y="303" on="0"/>
        <pt x="-4" y="381" on="1"/>
        <pt x="-4" y="989" on="1"/>
        <pt x="-4" y="1067" on="0"/>
        <pt x="58" y="1206" on="0"/>
        <pt x="173" y="1310" on="0"/>
        <pt x="337" y="1370" on="0"/>
        <pt x="438" y="1370" on="1"/>
      </contour>
      <contour>
        <pt x="944" y="563" on="1"/>
        <pt x="682" y="563" on="1"/>
        <pt x="682" y="819" on="1"/>
        <pt x="944" y="819" on="1"/>
        <pt x="944" y="924" on="1"/>
        <pt x="682" y="924" on="1"/>
        <pt x="682" y="1176" on="1"/>
        <pt x="944" y="1176" on="1"/>
        <pt x="944" y="1282" on="1"/>
        <pt x="524" y="1282" on="1"/>
        <pt x="391" y="1262" on="1"/>
        <pt x="330" y="1200" on="1"/>
        <pt x="248" y="459" on="1"/>
        <pt x="354" y="459" on="1"/>
        <pt x="371" y="590" on="1"/>
        <pt x="576" y="590" on="1"/>
        <pt x="576" y="459" on="1"/>
        <pt x="944" y="459" on="1"/>
      </contour>
      <contour>
        <pt x="383" y="696" on="1"/>
        <pt x="432" y="1161" on="1"/>
        <pt x="460" y="1164" on="0"/>
        <pt x="501" y="1172" on="0"/>
        <pt x="528" y="1176" on="1"/>
        <pt x="576" y="1176" on="1"/>
        <pt x="576" y="696" on="1"/>
      </contour>
    </TTGlyph>
    <TTGlyph name="Aacute" xMin="-4" yMin="0" xMax="1188" yMax="1958">
      <component glyphName="A" x="0" y="0" flags="0x1204"/>
      <component glyphName="acute" x="371" y="1270" flags="0x1004"/>
    </TTGlyph>
    <TTGlyph name="Abreve" xMin="-4" yMin="0" xMax="1188" yMax="1909">
      <component glyphName="A" x="0" y="0" flags="0x1204"/>
      <component glyphName="breve" x="184" y="1311" flags="0x1004"/>
    </TTGlyph>
    <TTGlyph name="Acircumflex" xMin="-4" yMin="0" xMax="1188" yMax="2001">
      <component glyphName="A" x="0" y="0" flags="0x1204"/>
      <component glyphName="circumflex" x="254" y="1270" flags="0x1004"/>
    </TTGlyph>
    <TTGlyph name="Adieresis" xMin="-4" yMin="0" xMax="1188" yMax="1862">
      <component glyphName="A" x="0" y="0" flags="0x1204"/>
      <component glyphName="dieresis" x="225" y="1272" flags="0x1004"/>
    </TTGlyph>
    <TTGlyph name="Agrave" xMin="-4" yMin="0" xMax="1188" yMax="1958">
      <component glyphName="A" x="0" y="0" flags="0x1204"/>
      <component glyphName="grave" x="193" y="1270" flags="0x1004"/>
    </TTGlyph>
    <TTGlyph name="Amacron" xMin="-4" yMin="0" xMax="1188" yMax="1868">
      <component glyphName="A" x="0" y="0" flags="0x1204"/>
      <component glyphName="macron" x="184" y="1270" flags="0x1004"/>
    </TTGlyph>
    <TTGlyph name="Aogonek" xMin="-4" yMin="0" xMax="1188" yMax="1370">
      <contour>
        <pt x="768" y="1159" on="1"/>
        <pt x="775" y="1078" on="0"/>
        <pt x="793" y="934" on="0"/>
        <pt x="801" y="854" on="1"/>
        <pt x="449" y="854" on="1"/>
        <pt x="479" y="1159" on="1"/>
        <pt x="507" y="1162" on="0"/>
        <pt x="548" y="1170" on="0"/>
        <pt x="576" y="1174" on="1"/>
        <pt x="674" y="1174" on="1"/>
      </contour>
      <contour>
        <pt x="746" y="1370" on="1"/>
        <pt x="847" y="1370" on="0"/>
        <pt x="1011" y="1310" on="0"/>
        <pt x="1126" y="1206" on="0"/>
        <pt x="1188" y="1067" on="0"/>
        <pt x="1188" y="989" on="1"/>
        <pt x="1188" y="381" on="1"/>
        <pt x="1188" y="303" on="0"/>
        <pt x="1126" y="164" on="0"/>
        <pt x="1011" y="60" on="0"/>
        <pt x="847" y="0" on="0"/>
        <pt x="746" y="0" on="1"/>
        <pt x="438" y="0" on="1"/>
        <pt x="337" y="0" on="0"/>
        <pt x="173" y="60" on="0"/>
        <pt x="58" y="164" on="0"/>
        <pt x="-4" y="303" on="0"/>
        <pt x="-4" y="381" on="1"/>
        <pt x="-4" y="989" on="1"/>
        <pt x="-4" y="1067" on="0"/>
        <pt x="58" y="1206" on="0"/>
        <pt x="173" y="1310" on="0"/>
        <pt x="337" y="1370" on="0"/>
        <pt x="438" y="1370" on="1"/>
      </contour>
      <contour>
        <pt x="821" y="291" on="1"/>
        <pt x="832" y="326" on="1"/>
        <pt x="942" y="453" on="1"/>
        <pt x="952" y="453" on="1"/>
        <pt x="873" y="1198" on="1"/>
        <pt x="811" y="1260" on="1"/>
        <pt x="678" y="1280" on="1"/>
        <pt x="571" y="1280" on="1"/>
        <pt x="438" y="1260" on="1"/>
        <pt x="377" y="1198" on="1"/>
        <pt x="295" y="453" on="1"/>
        <pt x="414" y="453" on="1"/>
        <pt x="430" y="666" on="1"/>
        <pt x="440" y="758" on="1"/>
        <pt x="809" y="758" on="1"/>
        <pt x="819" y="666" on="1"/>
        <pt x="838" y="453" on="1"/>
        <pt x="873" y="453" on="1"/>
        <pt x="801" y="414" on="1"/>
        <pt x="744" y="356" on="1"/>
        <pt x="731" y="281" on="1"/>
        <pt x="744" y="203" on="1"/>
        <pt x="803" y="143" on="1"/>
        <pt x="946" y="131" on="1"/>
        <pt x="946" y="221" on="1"/>
        <pt x="836" y="231" on="1"/>
      </contour>
    </TTGlyph>
    <TTGlyph name="Aring" xMin="-4" yMin="0" xMax="1188" yMax="1948">
      <component glyphName="A" x="0" y="0" flags="0x1204"/>
      <component glyphName="ring" x="236" y="1311" flags="0x1004"/>
    </TTGlyph>
    <TTGlyph name="Atilde" xMin="-4" yMin="0" xMax="1188" yMax="1970">
      <component glyphName="A" x="0" y="0" flags="0x1204"/>
      <component glyphName="tilde" x="184" y="1311" flags="0x1004"/>
    </TTGlyph>
    <TTGlyph name="B" xMin="-4" yMin="0" xMax="1188" yMax="1370">
      <contour>
        <pt x="746" y="1370" on="1"/>
        <pt x="847" y="1370" on="0"/>
        <pt x="1011" y="1310" on="0"/>
        <pt x="1126" y="1206" on="0"/>
        <pt x="1188" y="1067" on="0"/>
        <pt x="1188" y="989" on="1"/>
        <pt x="1188" y="381" on="1"/>
        <pt x="1188" y="303" on="0"/>
        <pt x="1126" y="164" on="0"/>
        <pt x="1011" y="60" on="0"/>
        <pt x="847" y="0" on="0"/>
        <pt x="746" y="0" on="1"/>
        <pt x="438" y="0" on="1"/>
        <pt x="337" y="0" on="0"/>
        <pt x="173" y="60" on="0"/>
        <pt x="58" y="164" on="0"/>
        <pt x="-4" y="303" on="0"/>
        <pt x="-4" y="381" on="1"/>
        <pt x="-4" y="989" on="1"/>
        <pt x="-4" y="1067" on="0"/>
        <pt x="58" y="1206" on="0"/>
        <pt x="173" y="1310" on="0"/>
        <pt x="337" y="1370" on="0"/>
        <pt x="438" y="1370" on="1"/>
      </contour>
      <contour>
        <pt x="907" y="770" on="1"/>
        <pt x="888" y="844" on="1"/>
        <pt x="808" y="879" on="1"/>
        <pt x="888" y="909" on="1"/>
        <pt x="907" y="985" on="1"/>
        <pt x="907" y="1118" on="1"/>
        <pt x="893" y="1202" on="1"/>
        <pt x="830" y="1266" on="1"/>
        <pt x="727" y="1280" on="1"/>
        <pt x="307" y="1280" on="1"/>
        <pt x="307" y="453" on="1"/>
        <pt x="727" y="453" on="1"/>
        <pt x="830" y="465" on="1"/>
        <pt x="893" y="528" on="1"/>
        <pt x="907" y="612" on="1"/>
      </contour>
      <contour>
        <pt x="787" y="569" on="1"/>
        <pt x="721" y="559" on="1"/>
        <pt x="414" y="559" on="1"/>
        <pt x="414" y="823" on="1"/>
        <pt x="723" y="823" on="1"/>
        <pt x="791" y="815" on="1"/>
        <pt x="801" y="756" on="1"/>
        <pt x="801" y="623" on="1"/>
      </contour>
      <contour>
        <pt x="787" y="940" on="1"/>
        <pt x="721" y="928" on="1"/>
        <pt x="414" y="928" on="1"/>
        <pt x="414" y="1174" on="1"/>
        <pt x="721" y="1174" on="1"/>
        <pt x="791" y="1163" on="1"/>
        <pt x="787" y="1104" on="1"/>
        <pt x="801" y="993" on="1"/>
      </contour>
    </TTGlyph>
    <TTGlyph name="C" xMin="-4" yMin="0" xMax="1188" yMax="1370">
      <component glyphName="c" x="0" y="0" flags="0x1204"/>
    </TTGlyph>
    <TTGlyph name="Cacute" xMin="-4" yMin="0" xMax="1188" yMax="1958">
      <component glyphName="c" x="0" y="0" flags="0x1204"/>
      <component glyphName="acute" x="399" y="1270" flags="0x1004"/>
    </TTGlyph>
    <TTGlyph name="Ccaron" xMin="-4" yMin="0" xMax="1188" yMax="1942">
      <component glyphName="c" x="0" y="0" flags="0x1204"/>
      <component glyphName="caron" x="215" y="1270" flags="0x1004"/>
    </TTGlyph>
    <TTGlyph name="Ccedilla" xMin="-4" yMin="0" xMax="1188" yMax="1370">
      <contour>
        <pt x="746" y="1370" on="1"/>
        <pt x="847" y="1370" on="0"/>
        <pt x="1011" y="1310" on="0"/>
        <pt x="1126" y="1206" on="0"/>
        <pt x="1188" y="1067" on="0"/>
        <pt x="1188" y="989" on="1"/>
        <pt x="1188" y="381" on="1"/>
        <pt x="1188" y="303" on="0"/>
        <pt x="1126" y="164" on="0"/>
        <pt x="1011" y="60" on="0"/>
        <pt x="847" y="0" on="0"/>
        <pt x="746" y="0" on="1"/>
        <pt x="438" y="0" on="1"/>
        <pt x="337" y="0" on="0"/>
        <pt x="173" y="60" on="0"/>
        <pt x="58" y="164" on="0"/>
        <pt x="-4" y="303" on="0"/>
        <pt x="-4" y="381" on="1"/>
        <pt x="-4" y="989" on="1"/>
        <pt x="-4" y="1067" on="0"/>
        <pt x="58" y="1206" on="0"/>
        <pt x="173" y="1310" on="0"/>
        <pt x="337" y="1370" on="0"/>
        <pt x="438" y="1370" on="1"/>
      </contour>
      <contour>
        <pt x="733" y="1280" on="1"/>
        <pt x="492" y="1280" on="1"/>
        <pt x="389" y="1268" on="1"/>
        <pt x="326" y="1204" on="1"/>
        <pt x="311" y="1120" on="1"/>
        <pt x="311" y="612" on="1"/>
        <pt x="326" y="528" on="1"/>
        <pt x="391" y="465" on="1"/>
        <pt x="492" y="453" on="1"/>
        <pt x="592" y="453" on="1"/>
        <pt x="592" y="418" on="1"/>
        <pt x="521" y="418" on="1"/>
        <pt x="463" y="357" on="1"/>
        <pt x="451" y="300" on="1"/>
        <pt x="451" y="281" on="1"/>
        <pt x="463" y="203" on="1"/>
        <pt x="523" y="144" on="1"/>
        <pt x="666" y="132" on="1"/>
        <pt x="666" y="222" on="1"/>
        <pt x="555" y="232" on="1"/>
        <pt x="541" y="291" on="1"/>
        <pt x="551" y="326" on="1"/>
        <pt x="662" y="336" on="1"/>
        <pt x="662" y="453" on="1"/>
        <pt x="733" y="453" on="1"/>
        <pt x="850" y="467" on="1"/>
        <pt x="825" y="575" on="1"/>
        <pt x="731" y="559" on="1"/>
        <pt x="498" y="559" on="1"/>
        <pt x="432" y="569" on="1"/>
        <pt x="418" y="629" on="1"/>
        <pt x="418" y="1110" on="1"/>
        <pt x="428" y="1165" on="1"/>
        <pt x="498" y="1176" on="1"/>
        <pt x="727" y="1176" on="1"/>
        <pt x="830" y="1159" on="1"/>
        <pt x="850" y="1266" on="1"/>
      </contour>
    </TTGlyph>
    <TTGlyph name="Ccircumflex" xMin="-4" yMin="0" xMax="1188" yMax="2001">
      <component glyphName="c" x="0" y="0" flags="0x1204"/>
      <component glyphName="circumflex" x="258" y="1270" flags="0x1004"/>
    </TTGlyph>
    <TTGlyph name="Cdotaccent" xMin="-4" yMin="0" xMax="1188" yMax="1870">
      <component glyphName="c" x="0" y="0" flags="0x1204"/>
      <component glyphName="dotaccent" x="137" y="1272" flags="0x1004"/>
    </TTGlyph>
    <TTGlyph name="D" xMin="-4" yMin="0" xMax="1188" yMax="1370">
      <contour>
        <pt x="746" y="1370" on="1"/>
        <pt x="847" y="1370" on="0"/>
        <pt x="1011" y="1310" on="0"/>
        <pt x="1126" y="1206" on="0"/>
        <pt x="1188" y="1067" on="0"/>
        <pt x="1188" y="989" on="1"/>
        <pt x="1188" y="381" on="1"/>
        <pt x="1188" y="303" on="0"/>
        <pt x="1126" y="164" on="0"/>
        <pt x="1011" y="60" on="0"/>
        <pt x="847" y="0" on="0"/>
        <pt x="746" y="0" on="1"/>
        <pt x="438" y="0" on="1"/>
        <pt x="337" y="0" on="0"/>
        <pt x="173" y="60" on="0"/>
        <pt x="58" y="164" on="0"/>
        <pt x="-4" y="303" on="0"/>
        <pt x="-4" y="381" on="1"/>
        <pt x="-4" y="989" on="1"/>
        <pt x="-4" y="1067" on="0"/>
        <pt x="58" y="1206" on="0"/>
        <pt x="173" y="1310" on="0"/>
        <pt x="337" y="1370" on="0"/>
        <pt x="438" y="1370" on="1"/>
      </contour>
      <contour>
        <pt x="954" y="1118" on="1"/>
        <pt x="940" y="1202" on="1"/>
        <pt x="877" y="1266" on="1"/>
        <pt x="774" y="1280" on="1"/>
        <pt x="328" y="1280" on="1"/>
        <pt x="328" y="453" on="1"/>
        <pt x="774" y="453" on="1"/>
        <pt x="877" y="465" on="1"/>
        <pt x="940" y="528" on="1"/>
        <pt x="954" y="614" on="1"/>
      </contour>
      <contour>
        <pt x="834" y="569" on="1"/>
        <pt x="768" y="559" on="1"/>
        <pt x="432" y="559" on="1"/>
        <pt x="432" y="1174" on="1"/>
        <pt x="768" y="1174" on="1"/>
        <pt x="838" y="1163" on="1"/>
        <pt x="848" y="1104" on="1"/>
        <pt x="848" y="625" on="1"/>
      </contour>
    </TTGlyph>
    <TTGlyph name="Dcaron" xMin="-4" yMin="0" xMax="1188" yMax="1968">
      <component glyphName="D" x="0" y="0" flags="0x1204"/>
      <component glyphName="caron" x="227" y="1296" flags="0x1004"/>
    </TTGlyph>
    <TTGlyph name="Dcroat" xMin="-4" yMin="0" xMax="1188" yMax="1370">
      <contour>
        <pt x="954" y="1118" on="1"/>
        <pt x="940" y="1202" on="1"/>
        <pt x="877" y="1266" on="1"/>
        <pt x="774" y="1280" on="1"/>
        <pt x="328" y="1280" on="1"/>
        <pt x="328" y="954" on="1"/>
        <pt x="203" y="954" on="1"/>
        <pt x="203" y="846" on="1"/>
        <pt x="328" y="846" on="1"/>
        <pt x="328" y="453" on="1"/>
        <pt x="774" y="453" on="1"/>
        <pt x="877" y="465" on="1"/>
        <pt x="940" y="528" on="1"/>
        <pt x="954" y="614" on="1"/>
      </contour>
      <contour>
        <pt x="834" y="569" on="1"/>
        <pt x="768" y="559" on="1"/>
        <pt x="432" y="559" on="1"/>
        <pt x="432" y="846" on="1"/>
        <pt x="580" y="846" on="1"/>
        <pt x="580" y="954" on="1"/>
        <pt x="432" y="954" on="1"/>
        <pt x="432" y="1174" on="1"/>
        <pt x="768" y="1174" on="1"/>
        <pt x="838" y="1163" on="1"/>
        <pt x="848" y="1104" on="1"/>
        <pt x="848" y="625" on="1"/>
      </contour>
      <contour>
        <pt x="746" y="1370" on="1"/>
        <pt x="847" y="1370" on="0"/>
        <pt x="1011" y="1310" on="0"/>
        <pt x="1126" y="1206" on="0"/>
        <pt x="1188" y="1067" on="0"/>
        <pt x="1188" y="989" on="1"/>
        <pt x="1188" y="381" on="1"/>
        <pt x="1188" y="303" on="0"/>
        <pt x="1126" y="164" on="0"/>
        <pt x="1011" y="60" on="0"/>
        <pt x="847" y="0" on="0"/>
        <pt x="746" y="0" on="1"/>
        <pt x="438" y="0" on="1"/>
        <pt x="337" y="0" on="0"/>
        <pt x="173" y="60" on="0"/>
        <pt x="58" y="164" on="0"/>
        <pt x="-4" y="303" on="0"/>
        <pt x="-4" y="381" on="1"/>
        <pt x="-4" y="989" on="1"/>
        <pt x="-4" y="1067" on="0"/>
        <pt x="58" y="1206" on="0"/>
        <pt x="173" y="1310" on="0"/>
        <pt x="337" y="1370" on="0"/>
        <pt x="438" y="1370" on="1"/>
      </contour>
    </TTGlyph>
    <TTGlyph name="E" xMin="-4" yMin="0" xMax="1188" yMax="1370">
      <contour>
        <pt x="905" y="559" on="1"/>
        <pt x="506" y="559" on="1"/>
        <pt x="506" y="813" on="1"/>
        <pt x="840" y="813" on="1"/>
        <pt x="840" y="918" on="1"/>
        <pt x="506" y="918" on="1"/>
        <pt x="506" y="1174" on="1"/>
        <pt x="891" y="1174" on="1"/>
        <pt x="891" y="1280" on="1"/>
        <pt x="402" y="1280" on="1"/>
        <pt x="402" y="453" on="1"/>
        <pt x="905" y="453" on="1"/>
      </contour>
      <contour>
        <pt x="746" y="1370" on="1"/>
        <pt x="847" y="1370" on="0"/>
        <pt x="1011" y="1310" on="0"/>
        <pt x="1126" y="1206" on="0"/>
        <pt x="1188" y="1067" on="0"/>
        <pt x="1188" y="989" on="1"/>
        <pt x="1188" y="381" on="1"/>
        <pt x="1188" y="303" on="0"/>
        <pt x="1126" y="164" on="0"/>
        <pt x="1011" y="60" on="0"/>
        <pt x="847" y="0" on="0"/>
        <pt x="746" y="0" on="1"/>
        <pt x="438" y="0" on="1"/>
        <pt x="337" y="0" on="0"/>
        <pt x="173" y="60" on="0"/>
        <pt x="58" y="164" on="0"/>
        <pt x="-4" y="303" on="0"/>
        <pt x="-4" y="381" on="1"/>
        <pt x="-4" y="989" on="1"/>
        <pt x="-4" y="1067" on="0"/>
        <pt x="58" y="1206" on="0"/>
        <pt x="173" y="1310" on="0"/>
        <pt x="337" y="1370" on="0"/>
        <pt x="438" y="1370" on="1"/>
      </contour>
    </TTGlyph>
    <TTGlyph name="Eacute" xMin="-4" yMin="0" xMax="1188" yMax="1958">
      <component glyphName="E" x="0" y="0" flags="0x1204"/>
      <component glyphName="acute" x="391" y="1270" flags="0x1004"/>
    </TTGlyph>
    <TTGlyph name="Ebreve" xMin="-4" yMin="0" xMax="1188" yMax="1909">
      <component glyphName="E" x="0" y="0" flags="0x1204"/>
      <component glyphName="breve" x="205" y="1311" flags="0x1004"/>
    </TTGlyph>
    <TTGlyph name="Ecaron" xMin="-4" yMin="0" xMax="1188" yMax="1942">
      <component glyphName="E" x="0" y="0" flags="0x1204"/>
      <component glyphName="caron" x="283" y="1270" flags="0x1004"/>
    </TTGlyph>
    <TTGlyph name="Ecircumflex" xMin="-4" yMin="0" xMax="1188" yMax="2001">
      <component glyphName="E" x="0" y="0" flags="0x1204"/>
      <component glyphName="circumflex" x="274" y="1270" flags="0x1004"/>
    </TTGlyph>
    <TTGlyph name="Edieresis" xMin="-4" yMin="0" xMax="1188" yMax="1862">
      <component glyphName="E" x="0" y="0" flags="0x1204"/>
      <component glyphName="dieresis" x="246" y="1272" flags="0x1004"/>
    </TTGlyph>
    <TTGlyph name="Edotaccent" xMin="-4" yMin="0" xMax="1188" yMax="1911">
      <component glyphName="E" x="0" y="0" flags="0x1204"/>
      <component glyphName="dotaccent" x="205" y="1313" flags="0x1004"/>
    </TTGlyph>
    <TTGlyph name="Egrave" xMin="-4" yMin="0" xMax="1188" yMax="1958">
      <component glyphName="E" x="0" y="0" flags="0x1204"/>
      <component glyphName="grave" x="213" y="1270" flags="0x1004"/>
    </TTGlyph>
    <TTGlyph name="Emacron" xMin="-4" yMin="0" xMax="1188" yMax="1868">
      <component glyphName="E" x="0" y="0" flags="0x1204"/>
      <component glyphName="macron" x="205" y="1270" flags="0x1004"/>
    </TTGlyph>
    <TTGlyph name="Eng" xMin="-4" yMin="0" xMax="1188" yMax="1370">
      <contour>
        <pt x="918" y="1204" on="1"/>
        <pt x="854" y="1268" on="1"/>
        <pt x="752" y="1280" on="1"/>
        <pt x="502" y="1280" on="1"/>
        <pt x="322" y="1255" on="1"/>
        <pt x="322" y="453" on="1"/>
        <pt x="428" y="453" on="1"/>
        <pt x="428" y="1163" on="1"/>
        <pt x="506" y="1176" on="1"/>
        <pt x="746" y="1176" on="1"/>
        <pt x="815" y="1165" on="1"/>
        <pt x="825" y="1106" on="1"/>
        <pt x="825" y="338" on="1"/>
        <pt x="813" y="279" on="1"/>
        <pt x="748" y="266" on="1"/>
        <pt x="598" y="266" on="1"/>
        <pt x="598" y="160" on="1"/>
        <pt x="754" y="160" on="1"/>
        <pt x="854" y="174" on="1"/>
        <pt x="932" y="236" on="1"/>
        <pt x="932" y="1120" on="1"/>
      </contour>
      <contour>
        <pt x="746" y="1370" on="1"/>
        <pt x="847" y="1370" on="0"/>
        <pt x="1011" y="1310" on="0"/>
        <pt x="1126" y="1206" on="0"/>
        <pt x="1188" y="1067" on="0"/>
        <pt x="1188" y="989" on="1"/>
        <pt x="1188" y="381" on="1"/>
        <pt x="1188" y="303" on="0"/>
        <pt x="1126" y="164" on="0"/>
        <pt x="1011" y="60" on="0"/>
        <pt x="847" y="0" on="0"/>
        <pt x="746" y="0" on="1"/>
        <pt x="438" y="0" on="1"/>
        <pt x="337" y="0" on="0"/>
        <pt x="173" y="60" on="0"/>
        <pt x="58" y="164" on="0"/>
        <pt x="-4" y="303" on="0"/>
        <pt x="-4" y="381" on="1"/>
        <pt x="-4" y="989" on="1"/>
        <pt x="-4" y="1067" on="0"/>
        <pt x="58" y="1206" on="0"/>
        <pt x="173" y="1310" on="0"/>
        <pt x="337" y="1370" on="0"/>
        <pt x="438" y="1370" on="1"/>
      </contour>
    </TTGlyph>
    <TTGlyph name="Eogonek" xMin="-4" yMin="0" xMax="1188" yMax="1370">
      <contour>
        <pt x="746" y="1370" on="1"/>
        <pt x="847" y="1370" on="0"/>
        <pt x="1011" y="1310" on="0"/>
        <pt x="1126" y="1206" on="0"/>
        <pt x="1188" y="1067" on="0"/>
        <pt x="1188" y="989" on="1"/>
        <pt x="1188" y="381" on="1"/>
        <pt x="1188" y="303" on="0"/>
        <pt x="1126" y="164" on="0"/>
        <pt x="1011" y="60" on="0"/>
        <pt x="847" y="0" on="0"/>
        <pt x="746" y="0" on="1"/>
        <pt x="438" y="0" on="1"/>
        <pt x="337" y="0" on="0"/>
        <pt x="173" y="60" on="0"/>
        <pt x="58" y="164" on="0"/>
        <pt x="-4" y="303" on="0"/>
        <pt x="-4" y="381" on="1"/>
        <pt x="-4" y="989" on="1"/>
        <pt x="-4" y="1067" on="0"/>
        <pt x="58" y="1206" on="0"/>
        <pt x="173" y="1310" on="0"/>
        <pt x="337" y="1370" on="0"/>
        <pt x="438" y="1370" on="1"/>
      </contour>
      <contour>
        <pt x="905" y="559" on="1"/>
        <pt x="506" y="559" on="1"/>
        <pt x="506" y="813" on="1"/>
        <pt x="840" y="813" on="1"/>
        <pt x="840" y="918" on="1"/>
        <pt x="506" y="918" on="1"/>
        <pt x="506" y="1174" on="1"/>
        <pt x="891" y="1174" on="1"/>
        <pt x="891" y="1280" on="1"/>
        <pt x="402" y="1280" on="1"/>
        <pt x="402" y="453" on="1"/>
        <pt x="827" y="453" on="1"/>
        <pt x="756" y="414" on="1"/>
        <pt x="698" y="356" on="1"/>
        <pt x="686" y="281" on="1"/>
        <pt x="698" y="203" on="1"/>
        <pt x="758" y="143" on="1"/>
        <pt x="901" y="131" on="1"/>
        <pt x="901" y="221" on="1"/>
        <pt x="791" y="231" on="1"/>
        <pt x="776" y="291" on="1"/>
        <pt x="787" y="326" on="1"/>
        <pt x="897" y="453" on="1"/>
        <pt x="905" y="453" on="1"/>
      </contour>
    </TTGlyph>
    <TTGlyph name="Eth" xMin="-4" yMin="0" xMax="1188" yMax="1370">
      <contour>
        <pt x="954" y="1118" on="1"/>
        <pt x="940" y="1202" on="1"/>
        <pt x="877" y="1266" on="1"/>
        <pt x="774" y="1280" on="1"/>
        <pt x="328" y="1280" on="1"/>
        <pt x="328" y="907" on="1"/>
        <pt x="256" y="907" on="1"/>
        <pt x="256" y="842" on="1"/>
        <pt x="328" y="842" on="1"/>
        <pt x="328" y="453" on="1"/>
        <pt x="774" y="453" on="1"/>
        <pt x="877" y="465" on="1"/>
        <pt x="940" y="528" on="1"/>
        <pt x="954" y="614" on="1"/>
      </contour>
      <contour>
        <pt x="834" y="569" on="1"/>
        <pt x="768" y="559" on="1"/>
        <pt x="432" y="559" on="1"/>
        <pt x="432" y="842" on="1"/>
        <pt x="516" y="842" on="1"/>
        <pt x="516" y="907" on="1"/>
        <pt x="432" y="907" on="1"/>
        <pt x="432" y="1174" on="1"/>
        <pt x="768" y="1174" on="1"/>
        <pt x="838" y="1163" on="1"/>
        <pt x="848" y="1104" on="1"/>
        <pt x="848" y="625" on="1"/>
      </contour>
      <contour>
        <pt x="746" y="1370" on="1"/>
        <pt x="847" y="1370" on="0"/>
        <pt x="1011" y="1310" on="0"/>
        <pt x="1126" y="1206" on="0"/>
        <pt x="1188" y="1067" on="0"/>
        <pt x="1188" y="989" on="1"/>
        <pt x="1188" y="381" on="1"/>
        <pt x="1188" y="303" on="0"/>
        <pt x="1126" y="164" on="0"/>
        <pt x="1011" y="60" on="0"/>
        <pt x="847" y="0" on="0"/>
        <pt x="746" y="0" on="1"/>
        <pt x="438" y="0" on="1"/>
        <pt x="337" y="0" on="0"/>
        <pt x="173" y="60" on="0"/>
        <pt x="58" y="164" on="0"/>
        <pt x="-4" y="303" on="0"/>
        <pt x="-4" y="381" on="1"/>
        <pt x="-4" y="989" on="1"/>
        <pt x="-4" y="1067" on="0"/>
        <pt x="58" y="1206" on="0"/>
        <pt x="173" y="1310" on="0"/>
        <pt x="337" y="1370" on="0"/>
        <pt x="438" y="1370" on="1"/>
      </contour>
    </TTGlyph>
    <TTGlyph name="Euro" xMin="-4" yMin="0" xMax="1188" yMax="1370">
      <contour>
        <pt x="746" y="1370" on="1"/>
        <pt x="846" y="1370" on="0"/>
        <pt x="1009" y="1309" on="0"/>
        <pt x="1125" y="1205" on="0"/>
        <pt x="1188" y="1067" on="0"/>
        <pt x="1188" y="989" on="1"/>
        <pt x="1188" y="381" on="1"/>
        <pt x="1188" y="303" on="0"/>
        <pt x="1126" y="164" on="0"/>
        <pt x="1011" y="60" on="0"/>
        <pt x="847" y="0" on="0"/>
        <pt x="746" y="0" on="1"/>
        <pt x="438" y="0" on="1"/>
        <pt x="337" y="0" on="0"/>
        <pt x="173" y="60" on="0"/>
        <pt x="58" y="164" on="0"/>
        <pt x="-4" y="303" on="0"/>
        <pt x="-4" y="381" on="1"/>
        <pt x="-4" y="989" on="1"/>
        <pt x="-4" y="1067" on="0"/>
        <pt x="58" y="1206" on="0"/>
        <pt x="173" y="1310" on="0"/>
        <pt x="337" y="1370" on="0"/>
        <pt x="438" y="1370" on="1"/>
      </contour>
      <contour>
        <pt x="733" y="1280" on="1"/>
        <pt x="492" y="1280" on="1"/>
        <pt x="389" y="1268" on="1"/>
        <pt x="326" y="1204" on="1"/>
        <pt x="311" y="1120" on="1"/>
        <pt x="311" y="1018" on="1"/>
        <pt x="201" y="1018" on="1"/>
        <pt x="201" y="924" on="1"/>
        <pt x="311" y="924" on="1"/>
        <pt x="311" y="830" on="1"/>
        <pt x="201" y="830" on="1"/>
        <pt x="201" y="736" on="1"/>
        <pt x="311" y="736" on="1"/>
        <pt x="311" y="612" on="1"/>
        <pt x="326" y="528" on="1"/>
        <pt x="391" y="465" on="1"/>
        <pt x="492" y="453" on="1"/>
        <pt x="733" y="453" on="1"/>
        <pt x="850" y="467" on="1"/>
        <pt x="825" y="575" on="1"/>
        <pt x="731" y="559" on="1"/>
        <pt x="498" y="559" on="1"/>
        <pt x="432" y="569" on="1"/>
        <pt x="418" y="629" on="1"/>
        <pt x="418" y="736" on="1"/>
        <pt x="660" y="736" on="1"/>
        <pt x="660" y="830" on="1"/>
        <pt x="418" y="830" on="1"/>
        <pt x="418" y="924" on="1"/>
        <pt x="660" y="924" on="1"/>
        <pt x="660" y="1018" on="1"/>
        <pt x="418" y="1018" on="1"/>
        <pt x="418" y="1110" on="1"/>
        <pt x="428" y="1165" on="1"/>
        <pt x="498" y="1176" on="1"/>
        <pt x="727" y="1176" on="1"/>
        <pt x="830" y="1159" on="1"/>
        <pt x="850" y="1266" on="1"/>
      </contour>
    </TTGlyph>
    <TTGlyph name="F" xMin="-4" yMin="0" xMax="1188" yMax="1370">
      <contour>
        <pt x="838" y="936" on="1"/>
        <pt x="504" y="936" on="1"/>
        <pt x="504" y="1174" on="1"/>
        <pt x="895" y="1174" on="1"/>
        <pt x="895" y="1280" on="1"/>
        <pt x="397" y="1280" on="1"/>
        <pt x="397" y="453" on="1"/>
        <pt x="504" y="453" on="1"/>
        <pt x="504" y="831" on="1"/>
        <pt x="838" y="831" on="1"/>
      </contour>
      <contour>
        <pt x="746" y="1370" on="1"/>
        <pt x="847" y="1370" on="0"/>
        <pt x="1011" y="1310" on="0"/>
        <pt x="1126" y="1206" on="0"/>
        <pt x="1188" y="1067" on="0"/>
        <pt x="1188" y="989" on="1"/>
        <pt x="1188" y="381" on="1"/>
        <pt x="1188" y="303" on="0"/>
        <pt x="1126" y="164" on="0"/>
        <pt x="1011" y="60" on="0"/>
        <pt x="847" y="0" on="0"/>
        <pt x="746" y="0" on="1"/>
        <pt x="438" y="0" on="1"/>
        <pt x="337" y="0" on="0"/>
        <pt x="173" y="60" on="0"/>
        <pt x="58" y="164" on="0"/>
        <pt x="-4" y="303" on="0"/>
        <pt x="-4" y="381" on="1"/>
        <pt x="-4" y="989" on="1"/>
        <pt x="-4" y="1067" on="0"/>
        <pt x="58" y="1206" on="0"/>
        <pt x="173" y="1310" on="0"/>
        <pt x="337" y="1370" on="0"/>
        <pt x="438" y="1370" on="1"/>
      </contour>
    </TTGlyph>
    <TTGlyph name="G" xMin="-4" yMin="0" xMax="1188" yMax="1370">
      <contour>
        <pt x="524" y="1176" on="1"/>
        <pt x="784" y="1176" on="1"/>
        <pt x="887" y="1159" on="1"/>
        <pt x="907" y="1266" on="1"/>
        <pt x="791" y="1280" on="1"/>
        <pt x="522" y="1280" on="1"/>
        <pt x="420" y="1264" on="1"/>
        <pt x="356" y="1200" on="1"/>
        <pt x="342" y="1116" on="1"/>
        <pt x="342" y="614" on="1"/>
        <pt x="356" y="528" on="1"/>
        <pt x="422" y="465" on="1"/>
        <pt x="522" y="453" on="1"/>
        <pt x="772" y="453" on="1"/>
        <pt x="873" y="465" on="1"/>
        <pt x="938" y="528" on="1"/>
        <pt x="952" y="614" on="1"/>
        <pt x="952" y="877" on="1"/>
        <pt x="662" y="877" on="1"/>
        <pt x="662" y="770" on="1"/>
        <pt x="846" y="770" on="1"/>
        <pt x="846" y="629" on="1"/>
        <pt x="841" y="613" on="0"/>
        <pt x="837" y="585" on="0"/>
        <pt x="832" y="569" on="1"/>
        <pt x="766" y="559" on="1"/>
        <pt x="524" y="559" on="1"/>
        <pt x="463" y="569" on="1"/>
        <pt x="449" y="633" on="1"/>
        <pt x="449" y="1106" on="1"/>
        <pt x="459" y="1161" on="1"/>
      </contour>
      <contour>
        <pt x="746" y="1370" on="1"/>
        <pt x="847" y="1370" on="0"/>
        <pt x="1011" y="1310" on="0"/>
        <pt x="1126" y="1206" on="0"/>
        <pt x="1188" y="1067" on="0"/>
        <pt x="1188" y="989" on="1"/>
        <pt x="1188" y="381" on="1"/>
        <pt x="1188" y="303" on="0"/>
        <pt x="1126" y="164" on="0"/>
        <pt x="1011" y="60" on="0"/>
        <pt x="847" y="0" on="0"/>
        <pt x="746" y="0" on="1"/>
        <pt x="438" y="0" on="1"/>
        <pt x="337" y="0" on="0"/>
        <pt x="173" y="60" on="0"/>
        <pt x="58" y="164" on="0"/>
        <pt x="-4" y="303" on="0"/>
        <pt x="-4" y="381" on="1"/>
        <pt x="-4" y="989" on="1"/>
        <pt x="-4" y="1067" on="0"/>
        <pt x="58" y="1206" on="0"/>
        <pt x="173" y="1310" on="0"/>
        <pt x="337" y="1370" on="0"/>
        <pt x="438" y="1370" on="1"/>
      </contour>
    </TTGlyph>
    <TTGlyph name="Gbreve" xMin="-4" yMin="0" xMax="1188" yMax="1911">
      <component glyphName="G" x="0" y="0" flags="0x1204"/>
      <component glyphName="breve" x="174" y="1313" flags="0x1004"/>
    </TTGlyph>
    <TTGlyph name="Gcircumflex" xMin="-4" yMin="0" xMax="1188" yMax="1995">
      <component glyphName="G" x="0" y="0" flags="0x1204"/>
      <component glyphName="circumflex" x="248" y="1264" flags="0x1004"/>
    </TTGlyph>
    <TTGlyph name="Gcommaaccent" xMin="-4" yMin="0" xMax="1188" yMax="1370">
      <contour>
        <pt x="666" y="119" on="1"/>
        <pt x="727" y="248" on="1"/>
        <pt x="727" y="377" on="1"/>
        <pt x="576" y="377" on="1"/>
        <pt x="576" y="248" on="1"/>
        <pt x="641" y="248" on="1"/>
        <pt x="602" y="147" on="1"/>
      </contour>
      <contour>
        <pt x="524" y="1176" on="1"/>
        <pt x="784" y="1176" on="1"/>
        <pt x="887" y="1159" on="1"/>
        <pt x="907" y="1266" on="1"/>
        <pt x="791" y="1280" on="1"/>
        <pt x="522" y="1280" on="1"/>
        <pt x="420" y="1264" on="1"/>
        <pt x="356" y="1200" on="1"/>
        <pt x="342" y="1116" on="1"/>
        <pt x="342" y="614" on="1"/>
        <pt x="356" y="528" on="1"/>
        <pt x="422" y="465" on="1"/>
        <pt x="522" y="453" on="1"/>
        <pt x="772" y="453" on="1"/>
        <pt x="873" y="465" on="1"/>
        <pt x="938" y="528" on="1"/>
        <pt x="952" y="614" on="1"/>
        <pt x="952" y="877" on="1"/>
        <pt x="662" y="877" on="1"/>
        <pt x="662" y="770" on="1"/>
        <pt x="846" y="770" on="1"/>
        <pt x="846" y="629" on="1"/>
        <pt x="841" y="613" on="0"/>
        <pt x="837" y="585" on="0"/>
        <pt x="832" y="569" on="1"/>
        <pt x="766" y="559" on="1"/>
        <pt x="524" y="559" on="1"/>
        <pt x="463" y="569" on="1"/>
        <pt x="449" y="633" on="1"/>
        <pt x="449" y="1106" on="1"/>
        <pt x="459" y="1161" on="1"/>
      </contour>
      <contour>
        <pt x="746" y="1370" on="1"/>
        <pt x="847" y="1370" on="0"/>
        <pt x="1011" y="1310" on="0"/>
        <pt x="1126" y="1206" on="0"/>
        <pt x="1188" y="1067" on="0"/>
        <pt x="1188" y="989" on="1"/>
        <pt x="1188" y="381" on="1"/>
        <pt x="1188" y="303" on="0"/>
        <pt x="1126" y="164" on="0"/>
        <pt x="1011" y="60" on="0"/>
        <pt x="847" y="0" on="0"/>
        <pt x="746" y="0" on="1"/>
        <pt x="438" y="0" on="1"/>
        <pt x="337" y="0" on="0"/>
        <pt x="173" y="60" on="0"/>
        <pt x="58" y="164" on="0"/>
        <pt x="-4" y="303" on="0"/>
        <pt x="-4" y="381" on="1"/>
        <pt x="-4" y="989" on="1"/>
        <pt x="-4" y="1067" on="0"/>
        <pt x="58" y="1206" on="0"/>
        <pt x="173" y="1310" on="0"/>
        <pt x="337" y="1370" on="0"/>
        <pt x="438" y="1370" on="1"/>
      </contour>
    </TTGlyph>
    <TTGlyph name="Gdotaccent" xMin="-4" yMin="0" xMax="1188" yMax="1901">
      <component glyphName="G" x="0" y="0" flags="0x1204"/>
      <component glyphName="dotaccent" x="154" y="1303" flags="0x1004"/>
    </TTGlyph>
    <TTGlyph name="H" xMin="-4" yMin="0" xMax="1188" yMax="1370">
      <contour>
        <pt x="954" y="1280" on="1"/>
        <pt x="850" y="1280" on="1"/>
        <pt x="850" y="930" on="1"/>
        <pt x="434" y="930" on="1"/>
        <pt x="434" y="1280" on="1"/>
        <pt x="328" y="1280" on="1"/>
        <pt x="328" y="453" on="1"/>
        <pt x="434" y="453" on="1"/>
        <pt x="434" y="825" on="1"/>
        <pt x="850" y="825" on="1"/>
        <pt x="850" y="453" on="1"/>
        <pt x="954" y="453" on="1"/>
      </contour>
      <contour>
        <pt x="746" y="1370" on="1"/>
        <pt x="847" y="1370" on="0"/>
        <pt x="1011" y="1310" on="0"/>
        <pt x="1126" y="1206" on="0"/>
        <pt x="1188" y="1067" on="0"/>
        <pt x="1188" y="989" on="1"/>
        <pt x="1188" y="381" on="1"/>
        <pt x="1188" y="303" on="0"/>
        <pt x="1126" y="164" on="0"/>
        <pt x="1011" y="60" on="0"/>
        <pt x="847" y="0" on="0"/>
        <pt x="746" y="0" on="1"/>
        <pt x="438" y="0" on="1"/>
        <pt x="337" y="0" on="0"/>
        <pt x="173" y="60" on="0"/>
        <pt x="58" y="164" on="0"/>
        <pt x="-4" y="303" on="0"/>
        <pt x="-4" y="381" on="1"/>
        <pt x="-4" y="989" on="1"/>
        <pt x="-4" y="1067" on="0"/>
        <pt x="58" y="1206" on="0"/>
        <pt x="173" y="1310" on="0"/>
        <pt x="337" y="1370" on="0"/>
        <pt x="438" y="1370" on="1"/>
      </contour>
    </TTGlyph>
    <TTGlyph name="Hbar" xMin="-4" yMin="0" xMax="1188" yMax="1911">
      <component glyphName="H" x="0" y="0" flags="0x1204"/>
      <component glyphName="macron" x="174" y="1313" flags="0x1004"/>
    </TTGlyph>
    <TTGlyph name="Hcircumflex" xMin="-4" yMin="0" xMax="1188" yMax="1995">
      <component glyphName="H" x="0" y="0" flags="0x1204"/>
      <component glyphName="circumflex" x="252" y="1264" flags="0x1004"/>
    </TTGlyph>
    <TTGlyph name="I" xMin="-4" yMin="0" xMax="1188" yMax="1370">
      <contour>
        <pt x="358" y="559" on="1"/>
        <pt x="358" y="453" on="1"/>
        <pt x="936" y="453" on="1"/>
        <pt x="936" y="559" on="1"/>
        <pt x="701" y="559" on="1"/>
        <pt x="701" y="1174" on="1"/>
        <pt x="936" y="1174" on="1"/>
        <pt x="936" y="1280" on="1"/>
        <pt x="358" y="1280" on="1"/>
        <pt x="358" y="1174" on="1"/>
        <pt x="594" y="1174" on="1"/>
        <pt x="594" y="559" on="1"/>
      </contour>
      <contour>
        <pt x="746" y="1370" on="1"/>
        <pt x="847" y="1370" on="0"/>
        <pt x="1011" y="1310" on="0"/>
        <pt x="1126" y="1206" on="0"/>
        <pt x="1188" y="1067" on="0"/>
        <pt x="1188" y="989" on="1"/>
        <pt x="1188" y="381" on="1"/>
        <pt x="1188" y="303" on="0"/>
        <pt x="1126" y="164" on="0"/>
        <pt x="1011" y="60" on="0"/>
        <pt x="847" y="0" on="0"/>
        <pt x="746" y="0" on="1"/>
        <pt x="438" y="0" on="1"/>
        <pt x="337" y="0" on="0"/>
        <pt x="173" y="60" on="0"/>
        <pt x="58" y="164" on="0"/>
        <pt x="-4" y="303" on="0"/>
        <pt x="-4" y="381" on="1"/>
        <pt x="-4" y="989" on="1"/>
        <pt x="-4" y="1067" on="0"/>
        <pt x="58" y="1206" on="0"/>
        <pt x="173" y="1310" on="0"/>
        <pt x="337" y="1370" on="0"/>
        <pt x="438" y="1370" on="1"/>
      </contour>
    </TTGlyph>
    <TTGlyph name="IJ" xMin="-4" yMin="0" xMax="1188" yMax="1370">
      <contour>
        <pt x="180" y="559" on="1"/>
        <pt x="180" y="453" on="1"/>
        <pt x="594" y="453" on="1"/>
        <pt x="594" y="559" on="1"/>
        <pt x="440" y="559" on="1"/>
        <pt x="440" y="1174" on="1"/>
        <pt x="594" y="1174" on="1"/>
        <pt x="594" y="1280" on="1"/>
        <pt x="180" y="1280" on="1"/>
        <pt x="180" y="1174" on="1"/>
        <pt x="334" y="1174" on="1"/>
        <pt x="334" y="559" on="1"/>
      </contour>
      <contour>
        <pt x="746" y="1370" on="1"/>
        <pt x="847" y="1370" on="0"/>
        <pt x="1011" y="1310" on="0"/>
        <pt x="1126" y="1206" on="0"/>
        <pt x="1188" y="1067" on="0"/>
        <pt x="1188" y="989" on="1"/>
        <pt x="1188" y="381" on="1"/>
        <pt x="1188" y="303" on="0"/>
        <pt x="1126" y="164" on="0"/>
        <pt x="1011" y="60" on="0"/>
        <pt x="847" y="0" on="0"/>
        <pt x="746" y="0" on="1"/>
        <pt x="438" y="0" on="1"/>
        <pt x="337" y="0" on="0"/>
        <pt x="173" y="60" on="0"/>
        <pt x="58" y="164" on="0"/>
        <pt x="-4" y="303" on="0"/>
        <pt x="-4" y="381" on="1"/>
        <pt x="-4" y="989" on="1"/>
        <pt x="-4" y="1067" on="0"/>
        <pt x="58" y="1206" on="0"/>
        <pt x="173" y="1310" on="0"/>
        <pt x="337" y="1370" on="0"/>
        <pt x="438" y="1370" on="1"/>
      </contour>
      <contour>
        <pt x="887" y="1280" on="1"/>
        <pt x="887" y="631" on="1"/>
        <pt x="873" y="571" on="1"/>
        <pt x="807" y="559" on="1"/>
        <pt x="658" y="559" on="1"/>
        <pt x="658" y="453" on="1"/>
        <pt x="813" y="453" on="1"/>
        <pt x="914" y="467" on="1"/>
        <pt x="991" y="528" on="1"/>
        <pt x="991" y="1280" on="1"/>
      </contour>
    </TTGlyph>
    <TTGlyph name="Iacute" xMin="-4" yMin="0" xMax="1188" yMax="1958">
      <component glyphName="I" x="0" y="0" flags="0x1204"/>
      <component glyphName="acute" x="399" y="1270" flags="0x1004"/>
    </TTGlyph>
    <TTGlyph name="Ibreve" xMin="-4" yMin="0" xMax="1188" yMax="1909">
      <component glyphName="I" x="0" y="0" flags="0x1204"/>
      <component glyphName="breve" x="213" y="1311" flags="0x1004"/>
    </TTGlyph>
    <TTGlyph name="Icircumflex" xMin="-4" yMin="0" xMax="1188" yMax="2001">
      <component glyphName="I" x="0" y="0" flags="0x1204"/>
      <component glyphName="circumflex" x="283" y="1270" flags="0x1004"/>
    </TTGlyph>
    <TTGlyph name="Idieresis" xMin="-4" yMin="0" xMax="1188" yMax="1862">
      <component glyphName="I" x="0" y="0" flags="0x1204"/>
      <component glyphName="dieresis" x="254" y="1272" flags="0x1004"/>
    </TTGlyph>
    <TTGlyph name="Idotaccent" xMin="-4" yMin="0" xMax="1188" yMax="1884">
      <component glyphName="I" x="0" y="0" flags="0x1204"/>
      <component glyphName="dotaccent" x="175" y="1286" flags="0x1004"/>
    </TTGlyph>
    <TTGlyph name="Igrave" xMin="-4" yMin="0" xMax="1188" yMax="1958">
      <component glyphName="I" x="0" y="0" flags="0x1204"/>
      <component glyphName="grave" x="221" y="1270" flags="0x1004"/>
    </TTGlyph>
    <TTGlyph name="Imacron" xMin="-4" yMin="0" xMax="1188" yMax="1892">
      <component glyphName="I" x="0" y="0" flags="0x1204"/>
      <component glyphName="macron" x="200" y="1294" flags="0x1004"/>
    </TTGlyph>
    <TTGlyph name="Iogonek" xMin="-4" yMin="0" xMax="1188" yMax="1370">
      <contour>
        <pt x="746" y="1370" on="1"/>
        <pt x="847" y="1370" on="0"/>
        <pt x="1011" y="1310" on="0"/>
        <pt x="1126" y="1206" on="0"/>
        <pt x="1188" y="1067" on="0"/>
        <pt x="1188" y="989" on="1"/>
        <pt x="1188" y="381" on="1"/>
        <pt x="1188" y="303" on="0"/>
        <pt x="1126" y="164" on="0"/>
        <pt x="1011" y="60" on="0"/>
        <pt x="847" y="0" on="0"/>
        <pt x="746" y="0" on="1"/>
        <pt x="438" y="0" on="1"/>
        <pt x="337" y="0" on="0"/>
        <pt x="173" y="60" on="0"/>
        <pt x="58" y="164" on="0"/>
        <pt x="-4" y="303" on="0"/>
        <pt x="-4" y="381" on="1"/>
        <pt x="-4" y="989" on="1"/>
        <pt x="-4" y="1067" on="0"/>
        <pt x="58" y="1206" on="0"/>
        <pt x="173" y="1310" on="0"/>
        <pt x="337" y="1370" on="0"/>
        <pt x="438" y="1370" on="1"/>
      </contour>
      <contour>
        <pt x="358" y="559" on="1"/>
        <pt x="358" y="453" on="1"/>
        <pt x="862" y="453" on="1"/>
        <pt x="791" y="414" on="1"/>
        <pt x="733" y="356" on="1"/>
        <pt x="721" y="281" on="1"/>
        <pt x="733" y="203" on="1"/>
        <pt x="793" y="143" on="1"/>
        <pt x="936" y="131" on="1"/>
        <pt x="936" y="221" on="1"/>
        <pt x="825" y="231" on="1"/>
        <pt x="811" y="291" on="1"/>
        <pt x="821" y="326" on="1"/>
        <pt x="932" y="453" on="1"/>
        <pt x="936" y="453" on="1"/>
        <pt x="936" y="559" on="1"/>
        <pt x="701" y="559" on="1"/>
        <pt x="701" y="1174" on="1"/>
        <pt x="936" y="1174" on="1"/>
        <pt x="936" y="1280" on="1"/>
        <pt x="358" y="1280" on="1"/>
        <pt x="358" y="1174" on="1"/>
        <pt x="594" y="1174" on="1"/>
        <pt x="594" y="559" on="1"/>
      </contour>
    </TTGlyph>
    <TTGlyph name="Itilde" xMin="-4" yMin="0" xMax="1188" yMax="1970">
      <component glyphName="I" x="0" y="0" flags="0x1204"/>
      <component glyphName="tilde" x="213" y="1311" flags="0x1004"/>
    </TTGlyph>
    <TTGlyph name="J" xMin="-4" yMin="0" xMax="1188" yMax="1370">
      <contour>
        <pt x="746" y="1370" on="1"/>
        <pt x="847" y="1370" on="0"/>
        <pt x="1011" y="1310" on="0"/>
        <pt x="1126" y="1206" on="0"/>
        <pt x="1188" y="1067" on="0"/>
        <pt x="1188" y="989" on="1"/>
        <pt x="1188" y="381" on="1"/>
        <pt x="1188" y="303" on="0"/>
        <pt x="1126" y="164" on="0"/>
        <pt x="1011" y="60" on="0"/>
        <pt x="847" y="0" on="0"/>
        <pt x="746" y="0" on="1"/>
        <pt x="438" y="0" on="1"/>
        <pt x="337" y="0" on="0"/>
        <pt x="173" y="60" on="0"/>
        <pt x="58" y="164" on="0"/>
        <pt x="-4" y="303" on="0"/>
        <pt x="-4" y="381" on="1"/>
        <pt x="-4" y="989" on="1"/>
        <pt x="-4" y="1067" on="0"/>
        <pt x="58" y="1206" on="0"/>
        <pt x="173" y="1310" on="0"/>
        <pt x="337" y="1370" on="0"/>
        <pt x="438" y="1370" on="1"/>
      </contour>
      <contour>
        <pt x="682" y="1280" on="1"/>
        <pt x="682" y="631" on="1"/>
        <pt x="668" y="571" on="1"/>
        <pt x="602" y="559" on="1"/>
        <pt x="453" y="559" on="1"/>
        <pt x="453" y="453" on="1"/>
        <pt x="608" y="453" on="1"/>
        <pt x="709" y="467" on="1"/>
        <pt x="787" y="528" on="1"/>
        <pt x="787" y="1280" on="1"/>
      </contour>
    </TTGlyph>
    <TTGlyph name="Jcircumflex" xMin="-4" yMin="0" xMax="1188" yMax="1995">
      <component glyphName="J" x="0" y="0" flags="0x1204"/>
      <component glyphName="circumflex" x="268" y="1264" flags="0x1004"/>
    </TTGlyph>
    <TTGlyph name="K" xMin="-4" yMin="0" xMax="1188" yMax="1370">
      <contour>
        <pt x="654" y="885" on="1"/>
        <pt x="998" y="1225" on="1"/>
        <pt x="926" y="1309" on="1"/>
        <pt x="514" y="901" on="1"/>
        <pt x="514" y="1280" on="1"/>
        <pt x="408" y="1280" on="1"/>
        <pt x="408" y="453" on="1"/>
        <pt x="514" y="453" on="1"/>
        <pt x="514" y="766" on="1"/>
        <pt x="531" y="780" on="0"/>
        <pt x="556" y="803" on="0"/>
        <pt x="572" y="817" on="1"/>
        <pt x="899" y="434" on="1"/>
        <pt x="985" y="508" on="1"/>
      </contour>
      <contour>
        <pt x="746" y="1370" on="1"/>
        <pt x="847" y="1370" on="0"/>
        <pt x="1011" y="1310" on="0"/>
        <pt x="1126" y="1206" on="0"/>
        <pt x="1188" y="1067" on="0"/>
        <pt x="1188" y="989" on="1"/>
        <pt x="1188" y="381" on="1"/>
        <pt x="1188" y="303" on="0"/>
        <pt x="1126" y="164" on="0"/>
        <pt x="1011" y="60" on="0"/>
        <pt x="847" y="0" on="0"/>
        <pt x="746" y="0" on="1"/>
        <pt x="438" y="0" on="1"/>
        <pt x="337" y="0" on="0"/>
        <pt x="173" y="60" on="0"/>
        <pt x="58" y="164" on="0"/>
        <pt x="-4" y="303" on="0"/>
        <pt x="-4" y="381" on="1"/>
        <pt x="-4" y="989" on="1"/>
        <pt x="-4" y="1067" on="0"/>
        <pt x="58" y="1206" on="0"/>
        <pt x="173" y="1310" on="0"/>
        <pt x="337" y="1370" on="0"/>
        <pt x="438" y="1370" on="1"/>
      </contour>
    </TTGlyph>
    <TTGlyph name="Kcommaaccent" xMin="-4" yMin="0" xMax="1188" yMax="1370">
      <contour>
        <pt x="666" y="119" on="1"/>
        <pt x="727" y="248" on="1"/>
        <pt x="727" y="377" on="1"/>
        <pt x="576" y="377" on="1"/>
        <pt x="576" y="248" on="1"/>
        <pt x="641" y="248" on="1"/>
        <pt x="602" y="147" on="1"/>
      </contour>
      <contour>
        <pt x="654" y="885" on="1"/>
        <pt x="998" y="1225" on="1"/>
        <pt x="926" y="1309" on="1"/>
        <pt x="514" y="901" on="1"/>
        <pt x="514" y="1280" on="1"/>
        <pt x="408" y="1280" on="1"/>
        <pt x="408" y="453" on="1"/>
        <pt x="514" y="453" on="1"/>
        <pt x="514" y="766" on="1"/>
        <pt x="531" y="780" on="0"/>
        <pt x="556" y="803" on="0"/>
        <pt x="572" y="817" on="1"/>
        <pt x="899" y="434" on="1"/>
        <pt x="985" y="508" on="1"/>
      </contour>
      <contour>
        <pt x="746" y="1370" on="1"/>
        <pt x="847" y="1370" on="0"/>
        <pt x="1011" y="1310" on="0"/>
        <pt x="1126" y="1206" on="0"/>
        <pt x="1188" y="1067" on="0"/>
        <pt x="1188" y="989" on="1"/>
        <pt x="1188" y="381" on="1"/>
        <pt x="1188" y="303" on="0"/>
        <pt x="1126" y="164" on="0"/>
        <pt x="1011" y="60" on="0"/>
        <pt x="847" y="0" on="0"/>
        <pt x="746" y="0" on="1"/>
        <pt x="438" y="0" on="1"/>
        <pt x="337" y="0" on="0"/>
        <pt x="173" y="60" on="0"/>
        <pt x="58" y="164" on="0"/>
        <pt x="-4" y="303" on="0"/>
        <pt x="-4" y="381" on="1"/>
        <pt x="-4" y="989" on="1"/>
        <pt x="-4" y="1067" on="0"/>
        <pt x="58" y="1206" on="0"/>
        <pt x="173" y="1310" on="0"/>
        <pt x="337" y="1370" on="0"/>
        <pt x="438" y="1370" on="1"/>
      </contour>
    </TTGlyph>
    <TTGlyph name="L" xMin="-4" yMin="0" xMax="1188" yMax="1370">
      <contour>
        <pt x="862" y="559" on="1"/>
        <pt x="555" y="559" on="1"/>
        <pt x="555" y="1280" on="1"/>
        <pt x="449" y="1280" on="1"/>
        <pt x="449" y="453" on="1"/>
        <pt x="862" y="453" on="1"/>
      </contour>
      <contour>
        <pt x="746" y="1370" on="1"/>
        <pt x="847" y="1370" on="0"/>
        <pt x="1011" y="1310" on="0"/>
        <pt x="1126" y="1206" on="0"/>
        <pt x="1188" y="1067" on="0"/>
        <pt x="1188" y="989" on="1"/>
        <pt x="1188" y="381" on="1"/>
        <pt x="1188" y="303" on="0"/>
        <pt x="1126" y="164" on="0"/>
        <pt x="1011" y="60" on="0"/>
        <pt x="847" y="0" on="0"/>
        <pt x="746" y="0" on="1"/>
        <pt x="438" y="0" on="1"/>
        <pt x="337" y="0" on="0"/>
        <pt x="173" y="60" on="0"/>
        <pt x="58" y="164" on="0"/>
        <pt x="-4" y="303" on="0"/>
        <pt x="-4" y="381" on="1"/>
        <pt x="-4" y="989" on="1"/>
        <pt x="-4" y="1067" on="0"/>
        <pt x="58" y="1206" on="0"/>
        <pt x="173" y="1310" on="0"/>
        <pt x="337" y="1370" on="0"/>
        <pt x="438" y="1370" on="1"/>
      </contour>
    </TTGlyph>
    <TTGlyph name="Lacute" xMin="-4" yMin="0" xMax="1188" yMax="1984">
      <component glyphName="L" x="0" y="0" flags="0x1204"/>
      <component glyphName="acute" x="276" y="1296" flags="0x1004"/>
    </TTGlyph>
    <TTGlyph name="Lcaron" xMin="-4" yMin="0" xMax="1188" yMax="1370">
      <contour>
        <pt x="780" y="1022" on="1"/>
        <pt x="842" y="1151" on="1"/>
        <pt x="842" y="1280" on="1"/>
        <pt x="690" y="1280" on="1"/>
        <pt x="690" y="1151" on="1"/>
        <pt x="756" y="1151" on="1"/>
        <pt x="717" y="1051" on="1"/>
      </contour>
      <contour>
        <pt x="862" y="559" on="1"/>
        <pt x="555" y="559" on="1"/>
        <pt x="555" y="1280" on="1"/>
        <pt x="449" y="1280" on="1"/>
        <pt x="449" y="453" on="1"/>
        <pt x="862" y="453" on="1"/>
      </contour>
      <contour>
        <pt x="746" y="1370" on="1"/>
        <pt x="847" y="1370" on="0"/>
        <pt x="1011" y="1310" on="0"/>
        <pt x="1126" y="1206" on="0"/>
        <pt x="1188" y="1067" on="0"/>
        <pt x="1188" y="989" on="1"/>
        <pt x="1188" y="381" on="1"/>
        <pt x="1188" y="303" on="0"/>
        <pt x="1126" y="164" on="0"/>
        <pt x="1011" y="60" on="0"/>
        <pt x="847" y="0" on="0"/>
        <pt x="746" y="0" on="1"/>
        <pt x="438" y="0" on="1"/>
        <pt x="337" y="0" on="0"/>
        <pt x="173" y="60" on="0"/>
        <pt x="58" y="164" on="0"/>
        <pt x="-4" y="303" on="0"/>
        <pt x="-4" y="381" on="1"/>
        <pt x="-4" y="989" on="1"/>
        <pt x="-4" y="1067" on="0"/>
        <pt x="58" y="1206" on="0"/>
        <pt x="173" y="1310" on="0"/>
        <pt x="337" y="1370" on="0"/>
        <pt x="438" y="1370" on="1"/>
      </contour>
    </TTGlyph>
    <TTGlyph name="Lcommaaccent" xMin="-4" yMin="0" xMax="1188" yMax="1370">
      <contour>
        <pt x="666" y="119" on="1"/>
        <pt x="727" y="248" on="1"/>
        <pt x="727" y="377" on="1"/>
        <pt x="576" y="377" on="1"/>
        <pt x="576" y="248" on="1"/>
        <pt x="641" y="248" on="1"/>
        <pt x="602" y="147" on="1"/>
      </contour>
      <contour>
        <pt x="862" y="559" on="1"/>
        <pt x="555" y="559" on="1"/>
        <pt x="555" y="1280" on="1"/>
        <pt x="449" y="1280" on="1"/>
        <pt x="449" y="453" on="1"/>
        <pt x="862" y="453" on="1"/>
      </contour>
      <contour>
        <pt x="746" y="1370" on="1"/>
        <pt x="847" y="1370" on="0"/>
        <pt x="1011" y="1310" on="0"/>
        <pt x="1126" y="1206" on="0"/>
        <pt x="1188" y="1067" on="0"/>
        <pt x="1188" y="989" on="1"/>
        <pt x="1188" y="381" on="1"/>
        <pt x="1188" y="303" on="0"/>
        <pt x="1126" y="164" on="0"/>
        <pt x="1011" y="60" on="0"/>
        <pt x="847" y="0" on="0"/>
        <pt x="746" y="0" on="1"/>
        <pt x="438" y="0" on="1"/>
        <pt x="337" y="0" on="0"/>
        <pt x="173" y="60" on="0"/>
        <pt x="58" y="164" on="0"/>
        <pt x="-4" y="303" on="0"/>
        <pt x="-4" y="381" on="1"/>
        <pt x="-4" y="989" on="1"/>
        <pt x="-4" y="1067" on="0"/>
        <pt x="58" y="1206" on="0"/>
        <pt x="173" y="1310" on="0"/>
        <pt x="337" y="1370" on="0"/>
        <pt x="438" y="1370" on="1"/>
      </contour>
    </TTGlyph>
    <TTGlyph name="Ldot" xMin="-4" yMin="0" xMax="1188" yMax="1370">
      <contour>
        <pt x="778" y="897" on="1"/>
        <pt x="778" y="1026" on="1"/>
        <pt x="647" y="1026" on="1"/>
        <pt x="647" y="897" on="1"/>
      </contour>
      <contour>
        <pt x="862" y="559" on="1"/>
        <pt x="555" y="559" on="1"/>
        <pt x="555" y="1280" on="1"/>
        <pt x="449" y="1280" on="1"/>
        <pt x="449" y="453" on="1"/>
        <pt x="862" y="453" on="1"/>
      </contour>
      <contour>
        <pt x="746" y="1370" on="1"/>
        <pt x="847" y="1370" on="0"/>
        <pt x="1011" y="1310" on="0"/>
        <pt x="1126" y="1206" on="0"/>
        <pt x="1188" y="1067" on="0"/>
        <pt x="1188" y="989" on="1"/>
        <pt x="1188" y="381" on="1"/>
        <pt x="1188" y="303" on="0"/>
        <pt x="1126" y="164" on="0"/>
        <pt x="1011" y="60" on="0"/>
        <pt x="847" y="0" on="0"/>
        <pt x="746" y="0" on="1"/>
        <pt x="438" y="0" on="1"/>
        <pt x="337" y="0" on="0"/>
        <pt x="173" y="60" on="0"/>
        <pt x="58" y="164" on="0"/>
        <pt x="-4" y="303" on="0"/>
        <pt x="-4" y="381" on="1"/>
        <pt x="-4" y="989" on="1"/>
        <pt x="-4" y="1067" on="0"/>
        <pt x="58" y="1206" on="0"/>
        <pt x="173" y="1310" on="0"/>
        <pt x="337" y="1370" on="0"/>
        <pt x="438" y="1370" on="1"/>
      </contour>
    </TTGlyph>
    <TTGlyph name="Lslash" xMin="-4" yMin="0" xMax="1188" yMax="1370">
      <contour>
        <pt x="862" y="559" on="1"/>
        <pt x="555" y="559" on="1"/>
        <pt x="555" y="895" on="1"/>
        <pt x="680" y="967" on="1"/>
        <pt x="647" y="1024" on="1"/>
        <pt x="555" y="971" on="1"/>
        <pt x="555" y="1280" on="1"/>
        <pt x="449" y="1280" on="1"/>
        <pt x="449" y="909" on="1"/>
        <pt x="324" y="840" on="1"/>
        <pt x="356" y="782" on="1"/>
        <pt x="449" y="834" on="1"/>
        <pt x="449" y="453" on="1"/>
        <pt x="862" y="453" on="1"/>
      </contour>
      <contour>
        <pt x="746" y="1370" on="1"/>
        <pt x="847" y="1370" on="0"/>
        <pt x="1011" y="1310" on="0"/>
        <pt x="1126" y="1206" on="0"/>
        <pt x="1188" y="1067" on="0"/>
        <pt x="1188" y="989" on="1"/>
        <pt x="1188" y="381" on="1"/>
        <pt x="1188" y="303" on="0"/>
        <pt x="1126" y="164" on="0"/>
        <pt x="1011" y="60" on="0"/>
        <pt x="847" y="0" on="0"/>
        <pt x="746" y="0" on="1"/>
        <pt x="438" y="0" on="1"/>
        <pt x="337" y="0" on="0"/>
        <pt x="173" y="60" on="0"/>
        <pt x="58" y="164" on="0"/>
        <pt x="-4" y="303" on="0"/>
        <pt x="-4" y="381" on="1"/>
        <pt x="-4" y="989" on="1"/>
        <pt x="-4" y="1067" on="0"/>
        <pt x="58" y="1206" on="0"/>
        <pt x="173" y="1310" on="0"/>
        <pt x="337" y="1370" on="0"/>
        <pt x="438" y="1370" on="1"/>
      </contour>
    </TTGlyph>
    <TTGlyph name="M" xMin="-4" yMin="0" xMax="1188" yMax="1370">
      <contour>
        <pt x="746" y="1370" on="1"/>
        <pt x="847" y="1370" on="0"/>
        <pt x="1011" y="1310" on="0"/>
        <pt x="1126" y="1206" on="0"/>
        <pt x="1188" y="1067" on="0"/>
        <pt x="1188" y="989" on="1"/>
        <pt x="1188" y="381" on="1"/>
        <pt x="1188" y="303" on="0"/>
        <pt x="1126" y="164" on="0"/>
        <pt x="1011" y="60" on="0"/>
        <pt x="847" y="0" on="0"/>
        <pt x="746" y="0" on="1"/>
        <pt x="438" y="0" on="1"/>
        <pt x="337" y="0" on="0"/>
        <pt x="173" y="60" on="0"/>
        <pt x="58" y="164" on="0"/>
        <pt x="-4" y="303" on="0"/>
        <pt x="-4" y="381" on="1"/>
        <pt x="-4" y="989" on="1"/>
        <pt x="-4" y="1067" on="0"/>
        <pt x="58" y="1206" on="0"/>
        <pt x="173" y="1310" on="0"/>
        <pt x="337" y="1370" on="0"/>
        <pt x="438" y="1370" on="1"/>
      </contour>
      <contour>
        <pt x="590" y="1264" on="1"/>
        <pt x="535" y="1280" on="1"/>
        <pt x="404" y="1280" on="1"/>
        <pt x="320" y="1266" on="1"/>
        <pt x="256" y="1202" on="1"/>
        <pt x="256" y="453" on="1"/>
        <pt x="363" y="453" on="1"/>
        <pt x="363" y="1165" on="1"/>
        <pt x="377" y="1168" on="0"/>
        <pt x="399" y="1170" on="0"/>
        <pt x="412" y="1174" on="1"/>
        <pt x="526" y="1174" on="1"/>
        <pt x="537" y="1170" on="0"/>
        <pt x="558" y="1168" on="0"/>
        <pt x="569" y="1165" on="1"/>
        <pt x="569" y="741" on="1"/>
        <pt x="676" y="741" on="1"/>
        <pt x="676" y="1165" on="1"/>
        <pt x="719" y="1174" on="1"/>
        <pt x="834" y="1174" on="1"/>
        <pt x="846" y="1170" on="0"/>
        <pt x="870" y="1168" on="0"/>
        <pt x="883" y="1165" on="1"/>
        <pt x="883" y="453" on="1"/>
        <pt x="989" y="453" on="1"/>
        <pt x="989" y="1202" on="1"/>
        <pt x="926" y="1266" on="1"/>
        <pt x="842" y="1280" on="1"/>
        <pt x="711" y="1280" on="1"/>
        <pt x="657" y="1264" on="1"/>
        <pt x="623" y="1195" on="1"/>
      </contour>
    </TTGlyph>
    <TTGlyph name="N" xMin="-4" yMin="0" xMax="1188" yMax="1370">
      <component glyphName="n" x="0" y="0" flags="0x1204"/>
    </TTGlyph>
    <TTGlyph name="Nacute" xMin="-4" yMin="0" xMax="1188" yMax="1974">
      <component glyphName="n" x="0" y="0" flags="0x1204"/>
      <component glyphName="acute" x="362" y="1286" flags="0x1004"/>
    </TTGlyph>
    <TTGlyph name="Ncaron" xMin="-4" yMin="0" xMax="1188" yMax="1932">
      <component glyphName="n" x="0" y="0" flags="0x1204"/>
      <component glyphName="caron" x="227" y="1260" flags="0x1004"/>
    </TTGlyph>
    <TTGlyph name="Ncommaaccent" xMin="-4" yMin="0" xMax="1188" yMax="1370">
      <contour>
        <pt x="666" y="119" on="1"/>
        <pt x="727" y="248" on="1"/>
        <pt x="727" y="377" on="1"/>
        <pt x="576" y="377" on="1"/>
        <pt x="576" y="248" on="1"/>
        <pt x="641" y="248" on="1"/>
        <pt x="602" y="147" on="1"/>
      </contour>
      <contour>
        <pt x="932" y="1120" on="1"/>
        <pt x="918" y="1204" on="1"/>
        <pt x="854" y="1268" on="1"/>
        <pt x="752" y="1280" on="1"/>
        <pt x="502" y="1280" on="1"/>
        <pt x="322" y="1255" on="1"/>
        <pt x="322" y="453" on="1"/>
        <pt x="428" y="453" on="1"/>
        <pt x="428" y="1163" on="1"/>
        <pt x="506" y="1176" on="1"/>
        <pt x="746" y="1176" on="1"/>
        <pt x="815" y="1165" on="1"/>
        <pt x="825" y="1106" on="1"/>
        <pt x="825" y="453" on="1"/>
        <pt x="932" y="453" on="1"/>
      </contour>
      <contour>
        <pt x="746" y="1370" on="1"/>
        <pt x="847" y="1370" on="0"/>
        <pt x="1011" y="1310" on="0"/>
        <pt x="1126" y="1206" on="0"/>
        <pt x="1188" y="1067" on="0"/>
        <pt x="1188" y="989" on="1"/>
        <pt x="1188" y="381" on="1"/>
        <pt x="1188" y="303" on="0"/>
        <pt x="1126" y="164" on="0"/>
        <pt x="1011" y="60" on="0"/>
        <pt x="847" y="0" on="0"/>
        <pt x="746" y="0" on="1"/>
        <pt x="438" y="0" on="1"/>
        <pt x="337" y="0" on="0"/>
        <pt x="173" y="60" on="0"/>
        <pt x="58" y="164" on="0"/>
        <pt x="-4" y="303" on="0"/>
        <pt x="-4" y="381" on="1"/>
        <pt x="-4" y="989" on="1"/>
        <pt x="-4" y="1067" on="0"/>
        <pt x="58" y="1206" on="0"/>
        <pt x="173" y="1310" on="0"/>
        <pt x="337" y="1370" on="0"/>
        <pt x="438" y="1370" on="1"/>
      </contour>
    </TTGlyph>
    <TTGlyph name="Ntilde" xMin="-4" yMin="0" xMax="1188" yMax="1967">
      <component glyphName="n" x="0" y="0" flags="0x1204"/>
      <component glyphName="tilde" x="164" y="1308" flags="0x1004"/>
    </TTGlyph>
    <TTGlyph name="O" xMin="-4" yMin="0" xMax="1188" yMax="1370">
      <contour>
        <pt x="746" y="1370" on="1"/>
        <pt x="847" y="1370" on="0"/>
        <pt x="1011" y="1310" on="0"/>
        <pt x="1126" y="1206" on="0"/>
        <pt x="1188" y="1067" on="0"/>
        <pt x="1188" y="989" on="1"/>
        <pt x="1188" y="381" on="1"/>
        <pt x="1188" y="303" on="0"/>
        <pt x="1126" y="164" on="0"/>
        <pt x="1011" y="60" on="0"/>
        <pt x="847" y="0" on="0"/>
        <pt x="746" y="0" on="1"/>
        <pt x="438" y="0" on="1"/>
        <pt x="337" y="0" on="0"/>
        <pt x="173" y="60" on="0"/>
        <pt x="58" y="164" on="0"/>
        <pt x="-4" y="303" on="0"/>
        <pt x="-4" y="381" on="1"/>
        <pt x="-4" y="989" on="1"/>
        <pt x="-4" y="1067" on="0"/>
        <pt x="58" y="1206" on="0"/>
        <pt x="173" y="1310" on="0"/>
        <pt x="337" y="1370" on="0"/>
        <pt x="438" y="1370" on="1"/>
      </contour>
      <contour>
        <pt x="952" y="1118" on="1"/>
        <pt x="938" y="1202" on="1"/>
        <pt x="875" y="1266" on="1"/>
        <pt x="772" y="1280" on="1"/>
        <pt x="504" y="1280" on="1"/>
        <pt x="402" y="1266" on="1"/>
        <pt x="338" y="1202" on="1"/>
        <pt x="326" y="1118" on="1"/>
        <pt x="326" y="614" on="1"/>
        <pt x="338" y="528" on="1"/>
        <pt x="404" y="465" on="1"/>
        <pt x="504" y="453" on="1"/>
        <pt x="772" y="453" on="1"/>
        <pt x="875" y="465" on="1"/>
        <pt x="938" y="528" on="1"/>
        <pt x="952" y="614" on="1"/>
      </contour>
      <contour>
        <pt x="832" y="569" on="1"/>
        <pt x="766" y="559" on="1"/>
        <pt x="510" y="559" on="1"/>
        <pt x="445" y="569" on="1"/>
        <pt x="430" y="629" on="1"/>
        <pt x="430" y="1108" on="1"/>
        <pt x="440" y="1163" on="1"/>
        <pt x="510" y="1174" on="1"/>
        <pt x="766" y="1174" on="1"/>
        <pt x="836" y="1163" on="1"/>
        <pt x="846" y="1104" on="1"/>
        <pt x="846" y="625" on="1"/>
      </contour>
    </TTGlyph>
    <TTGlyph name="OE" xMin="-4" yMin="0" xMax="1188" yMax="1370">
      <contour>
        <pt x="983" y="559" on="1"/>
        <pt x="698" y="559" on="1"/>
        <pt x="698" y="813" on="1"/>
        <pt x="936" y="813" on="1"/>
        <pt x="936" y="918" on="1"/>
        <pt x="696" y="918" on="1"/>
        <pt x="696" y="1174" on="1"/>
        <pt x="969" y="1174" on="1"/>
        <pt x="969" y="1280" on="1"/>
        <pt x="653" y="1280" on="1"/>
        <pt x="653" y="1233" on="1"/>
        <pt x="621" y="1266" on="1"/>
        <pt x="518" y="1280" on="1"/>
        <pt x="406" y="1280" on="1"/>
        <pt x="303" y="1266" on="1"/>
        <pt x="240" y="1202" on="1"/>
        <pt x="227" y="1118" on="1"/>
        <pt x="227" y="614" on="1"/>
        <pt x="240" y="528" on="1"/>
        <pt x="305" y="465" on="1"/>
        <pt x="406" y="453" on="1"/>
        <pt x="518" y="453" on="1"/>
        <pt x="621" y="465" on="1"/>
        <pt x="653" y="498" on="1"/>
        <pt x="653" y="453" on="1"/>
        <pt x="983" y="453" on="1"/>
      </contour>
      <contour>
        <pt x="578" y="569" on="1"/>
        <pt x="512" y="559" on="1"/>
        <pt x="412" y="559" on="1"/>
        <pt x="346" y="569" on="1"/>
        <pt x="332" y="629" on="1"/>
        <pt x="332" y="1108" on="1"/>
        <pt x="342" y="1163" on="1"/>
        <pt x="412" y="1174" on="1"/>
        <pt x="512" y="1174" on="1"/>
        <pt x="582" y="1163" on="1"/>
        <pt x="592" y="1104" on="1"/>
        <pt x="592" y="625" on="1"/>
      </contour>
      <contour>
        <pt x="746" y="1370" on="1"/>
        <pt x="847" y="1370" on="0"/>
        <pt x="1011" y="1310" on="0"/>
        <pt x="1126" y="1206" on="0"/>
        <pt x="1188" y="1067" on="0"/>
        <pt x="1188" y="989" on="1"/>
        <pt x="1188" y="381" on="1"/>
        <pt x="1188" y="303" on="0"/>
        <pt x="1126" y="164" on="0"/>
        <pt x="1011" y="60" on="0"/>
        <pt x="847" y="0" on="0"/>
        <pt x="746" y="0" on="1"/>
        <pt x="438" y="0" on="1"/>
        <pt x="337" y="0" on="0"/>
        <pt x="173" y="60" on="0"/>
        <pt x="58" y="164" on="0"/>
        <pt x="-4" y="303" on="0"/>
        <pt x="-4" y="381" on="1"/>
        <pt x="-4" y="989" on="1"/>
        <pt x="-4" y="1067" on="0"/>
        <pt x="58" y="1206" on="0"/>
        <pt x="173" y="1310" on="0"/>
        <pt x="337" y="1370" on="0"/>
        <pt x="438" y="1370" on="1"/>
      </contour>
    </TTGlyph>
    <TTGlyph name="Oacute" xMin="-4" yMin="0" xMax="1188" yMax="1958">
      <component glyphName="O" x="0" y="0" flags="0x1204"/>
      <component glyphName="acute" x="385" y="1270" flags="0x1004"/>
    </TTGlyph>
    <TTGlyph name="Obreve" xMin="-4" yMin="0" xMax="1188" yMax="1909">
      <component glyphName="O" x="0" y="0" flags="0x1204"/>
      <component glyphName="breve" x="199" y="1311" flags="0x1004"/>
    </TTGlyph>
    <TTGlyph name="Ocircumflex" xMin="-4" yMin="0" xMax="1188" yMax="2001">
      <component glyphName="O" x="0" y="0" flags="0x1204"/>
      <component glyphName="circumflex" x="268" y="1270" flags="0x1004"/>
    </TTGlyph>
    <TTGlyph name="Odieresis" xMin="-4" yMin="0" xMax="1188" yMax="1862">
      <component glyphName="O" x="0" y="0" flags="0x1204"/>
      <component glyphName="dieresis" x="240" y="1272" flags="0x1004"/>
    </TTGlyph>
    <TTGlyph name="Ograve" xMin="-4" yMin="0" xMax="1188" yMax="1958">
      <component glyphName="O" x="0" y="0" flags="0x1204"/>
      <component glyphName="grave" x="207" y="1270" flags="0x1004"/>
    </TTGlyph>
    <TTGlyph name="Ohungarumlaut" xMin="-4" yMin="0" xMax="1188" yMax="1977">
      <component glyphName="O" x="0" y="0" flags="0x1204"/>
      <component glyphName="hungarumlaut" x="324" y="1270" flags="0x1004"/>
    </TTGlyph>
    <TTGlyph name="Omacron" xMin="-4" yMin="0" xMax="1188" yMax="1903">
      <component glyphName="O" x="0" y="0" flags="0x1204"/>
      <component glyphName="macron" x="199" y="1305" flags="0x1004"/>
    </TTGlyph>
    <TTGlyph name="Oslash" xMin="-4" yMin="0" xMax="1188" yMax="1370">
      <contour>
        <pt x="941" y="1120" on="1"/>
        <pt x="927" y="1203" on="1"/>
        <pt x="864" y="1267" on="1"/>
        <pt x="761" y="1281" on="1"/>
        <pt x="493" y="1281" on="1"/>
        <pt x="390" y="1267" on="1"/>
        <pt x="327" y="1203" on="1"/>
        <pt x="313" y="1120" on="1"/>
        <pt x="313" y="620" on="1"/>
        <pt x="327" y="534" on="1"/>
        <pt x="392" y="470" on="1"/>
        <pt x="493" y="458" on="1"/>
        <pt x="761" y="458" on="1"/>
        <pt x="864" y="470" on="1"/>
        <pt x="927" y="534" on="1"/>
        <pt x="941" y="620" on="1"/>
      </contour>
      <contour>
        <pt x="419" y="1109" on="1"/>
        <pt x="429" y="1165" on="1"/>
        <pt x="499" y="1175" on="1"/>
        <pt x="757" y="1175" on="1"/>
        <pt x="760" y="1175" on="0"/>
        <pt x="770" y="1173" on="0"/>
        <pt x="773" y="1173" on="1"/>
        <pt x="419" y="640" on="1"/>
      </contour>
      <contour>
        <pt x="821" y="575" on="1"/>
        <pt x="755" y="565" on="1"/>
        <pt x="495" y="565" on="1"/>
        <pt x="492" y="565" on="0"/>
        <pt x="487" y="567" on="0"/>
        <pt x="485" y="567" on="1"/>
        <pt x="835" y="1109" on="1"/>
        <pt x="835" y="630" on="1"/>
      </contour>
      <contour>
        <pt x="746" y="1370" on="1"/>
        <pt x="847" y="1370" on="0"/>
        <pt x="1011" y="1310" on="0"/>
        <pt x="1126" y="1206" on="0"/>
        <pt x="1188" y="1067" on="0"/>
        <pt x="1188" y="989" on="1"/>
        <pt x="1188" y="381" on="1"/>
        <pt x="1188" y="303" on="0"/>
        <pt x="1126" y="164" on="0"/>
        <pt x="1011" y="60" on="0"/>
        <pt x="847" y="0" on="0"/>
        <pt x="746" y="0" on="1"/>
        <pt x="438" y="0" on="1"/>
        <pt x="337" y="0" on="0"/>
        <pt x="173" y="60" on="0"/>
        <pt x="58" y="164" on="0"/>
        <pt x="-4" y="303" on="0"/>
        <pt x="-4" y="381" on="1"/>
        <pt x="-4" y="989" on="1"/>
        <pt x="-4" y="1067" on="0"/>
        <pt x="58" y="1206" on="0"/>
        <pt x="173" y="1310" on="0"/>
        <pt x="337" y="1370" on="0"/>
        <pt x="438" y="1370" on="1"/>
      </contour>
    </TTGlyph>
    <TTGlyph name="Otilde" xMin="-4" yMin="0" xMax="1188" yMax="1970">
      <component glyphName="O" x="0" y="0" flags="0x1204"/>
      <component glyphName="tilde" x="199" y="1311" flags="0x1004"/>
    </TTGlyph>
    <TTGlyph name="P" xMin="-4" yMin="0" xMax="1188" yMax="1370">
      <contour>
        <pt x="746" y="1370" on="1"/>
        <pt x="847" y="1370" on="0"/>
        <pt x="1011" y="1310" on="0"/>
        <pt x="1126" y="1206" on="0"/>
        <pt x="1188" y="1067" on="0"/>
        <pt x="1188" y="989" on="1"/>
        <pt x="1188" y="381" on="1"/>
        <pt x="1188" y="303" on="0"/>
        <pt x="1126" y="164" on="0"/>
        <pt x="1011" y="60" on="0"/>
        <pt x="847" y="0" on="0"/>
        <pt x="746" y="0" on="1"/>
        <pt x="438" y="0" on="1"/>
        <pt x="337" y="0" on="0"/>
        <pt x="173" y="60" on="0"/>
        <pt x="58" y="164" on="0"/>
        <pt x="-4" y="303" on="0"/>
        <pt x="-4" y="381" on="1"/>
        <pt x="-4" y="989" on="1"/>
        <pt x="-4" y="1067" on="0"/>
        <pt x="58" y="1206" on="0"/>
        <pt x="173" y="1310" on="0"/>
        <pt x="337" y="1370" on="0"/>
        <pt x="438" y="1370" on="1"/>
      </contour>
      <contour>
        <pt x="930" y="1118" on="1"/>
        <pt x="916" y="1202" on="1"/>
        <pt x="852" y="1266" on="1"/>
        <pt x="750" y="1280" on="1"/>
        <pt x="377" y="1280" on="1"/>
        <pt x="377" y="453" on="1"/>
        <pt x="481" y="453" on="1"/>
        <pt x="481" y="748" on="1"/>
        <pt x="750" y="748" on="1"/>
        <pt x="852" y="760" on="1"/>
        <pt x="916" y="823" on="1"/>
        <pt x="930" y="909" on="1"/>
      </contour>
      <contour>
        <pt x="809" y="864" on="1"/>
        <pt x="744" y="854" on="1"/>
        <pt x="481" y="854" on="1"/>
        <pt x="481" y="1174" on="1"/>
        <pt x="744" y="1174" on="1"/>
        <pt x="813" y="1163" on="1"/>
        <pt x="823" y="1104" on="1"/>
        <pt x="823" y="920" on="1"/>
      </contour>
    </TTGlyph>
    <TTGlyph name="Q" xMin="-4" yMin="0" xMax="1188" yMax="1370">
      <contour>
        <pt x="746" y="1370" on="1"/>
        <pt x="847" y="1370" on="0"/>
        <pt x="1011" y="1310" on="0"/>
        <pt x="1126" y="1206" on="0"/>
        <pt x="1188" y="1067" on="0"/>
        <pt x="1188" y="989" on="1"/>
        <pt x="1188" y="381" on="1"/>
        <pt x="1188" y="303" on="0"/>
        <pt x="1126" y="164" on="0"/>
        <pt x="1011" y="60" on="0"/>
        <pt x="847" y="0" on="0"/>
        <pt x="746" y="0" on="1"/>
        <pt x="438" y="0" on="1"/>
        <pt x="337" y="0" on="0"/>
        <pt x="173" y="60" on="0"/>
        <pt x="58" y="164" on="0"/>
        <pt x="-4" y="303" on="0"/>
        <pt x="-4" y="381" on="1"/>
        <pt x="-4" y="989" on="1"/>
        <pt x="-4" y="1067" on="0"/>
        <pt x="58" y="1206" on="0"/>
        <pt x="173" y="1310" on="0"/>
        <pt x="337" y="1370" on="0"/>
        <pt x="438" y="1370" on="1"/>
      </contour>
      <contour>
        <pt x="954" y="1118" on="1"/>
        <pt x="940" y="1202" on="1"/>
        <pt x="877" y="1266" on="1"/>
        <pt x="774" y="1280" on="1"/>
        <pt x="506" y="1280" on="1"/>
        <pt x="404" y="1266" on="1"/>
        <pt x="340" y="1202" on="1"/>
        <pt x="328" y="1118" on="1"/>
        <pt x="328" y="614" on="1"/>
        <pt x="340" y="528" on="1"/>
        <pt x="406" y="465" on="1"/>
        <pt x="506" y="453" on="1"/>
        <pt x="684" y="453" on="1"/>
        <pt x="762" y="299" on="1"/>
        <pt x="856" y="344" on="1"/>
        <pt x="801" y="457" on="1"/>
        <pt x="877" y="465" on="1"/>
        <pt x="940" y="528" on="1"/>
        <pt x="954" y="614" on="1"/>
      </contour>
      <contour>
        <pt x="834" y="569" on="1"/>
        <pt x="768" y="559" on="1"/>
        <pt x="748" y="559" on="1"/>
        <pt x="688" y="676" on="1"/>
        <pt x="596" y="625" on="1"/>
        <pt x="627" y="559" on="1"/>
        <pt x="512" y="559" on="1"/>
        <pt x="447" y="569" on="1"/>
        <pt x="432" y="629" on="1"/>
        <pt x="432" y="1108" on="1"/>
        <pt x="442" y="1163" on="1"/>
        <pt x="512" y="1174" on="1"/>
        <pt x="768" y="1174" on="1"/>
        <pt x="838" y="1163" on="1"/>
        <pt x="848" y="1104" on="1"/>
        <pt x="848" y="625" on="1"/>
      </contour>
    </TTGlyph>
    <TTGlyph name="R" xMin="-4" yMin="0" xMax="1188" yMax="1370">
      <contour>
        <pt x="746" y="1370" on="1"/>
        <pt x="847" y="1370" on="0"/>
        <pt x="1011" y="1310" on="0"/>
        <pt x="1126" y="1206" on="0"/>
        <pt x="1188" y="1067" on="0"/>
        <pt x="1188" y="989" on="1"/>
        <pt x="1188" y="381" on="1"/>
        <pt x="1188" y="303" on="0"/>
        <pt x="1126" y="164" on="0"/>
        <pt x="1011" y="60" on="0"/>
        <pt x="847" y="0" on="0"/>
        <pt x="746" y="0" on="1"/>
        <pt x="438" y="0" on="1"/>
        <pt x="337" y="0" on="0"/>
        <pt x="173" y="60" on="0"/>
        <pt x="58" y="164" on="0"/>
        <pt x="-4" y="303" on="0"/>
        <pt x="-4" y="381" on="1"/>
        <pt x="-4" y="989" on="1"/>
        <pt x="-4" y="1067" on="0"/>
        <pt x="58" y="1206" on="0"/>
        <pt x="173" y="1310" on="0"/>
        <pt x="337" y="1370" on="0"/>
        <pt x="438" y="1370" on="1"/>
      </contour>
      <contour>
        <pt x="797" y="700" on="1"/>
        <pt x="797" y="453" on="1"/>
        <pt x="903" y="453" on="1"/>
        <pt x="903" y="711" on="1"/>
        <pt x="868" y="803" on="1"/>
        <pt x="754" y="844" on="1"/>
        <pt x="864" y="897" on="1"/>
        <pt x="895" y="987" on="1"/>
        <pt x="895" y="1098" on="1"/>
        <pt x="883" y="1182" on="1"/>
        <pt x="817" y="1266" on="1"/>
        <pt x="717" y="1280" on="1"/>
        <pt x="344" y="1280" on="1"/>
        <pt x="344" y="453" on="1"/>
        <pt x="451" y="453" on="1"/>
        <pt x="451" y="786" on="1"/>
        <pt x="711" y="786" on="1"/>
        <pt x="782" y="754" on="1"/>
      </contour>
      <contour>
        <pt x="711" y="1174" on="1"/>
        <pt x="782" y="1143" on="1"/>
        <pt x="789" y="1085" on="1"/>
        <pt x="789" y="979" on="1"/>
        <pt x="774" y="924" on="1"/>
        <pt x="711" y="893" on="1"/>
        <pt x="451" y="893" on="1"/>
        <pt x="451" y="1174" on="1"/>
      </contour>
    </TTGlyph>
    <TTGlyph name="Racute" xMin="-4" yMin="0" xMax="1188" yMax="1962">
      <component glyphName="R" x="0" y="0" flags="0x1204"/>
      <component glyphName="acute" x="362" y="1274" flags="0x1004"/>
    </TTGlyph>
    <TTGlyph name="Rcaron" xMin="-4" yMin="0" xMax="1188" yMax="1934">
      <component glyphName="R" x="0" y="0" flags="0x1204"/>
      <component glyphName="caron" x="227" y="1262" flags="0x1004"/>
    </TTGlyph>
    <TTGlyph name="Rcommaaccent" xMin="-4" yMin="0" xMax="1188" yMax="1370">
      <contour>
        <pt x="666" y="119" on="1"/>
        <pt x="727" y="248" on="1"/>
        <pt x="727" y="377" on="1"/>
        <pt x="576" y="377" on="1"/>
        <pt x="576" y="248" on="1"/>
        <pt x="641" y="248" on="1"/>
        <pt x="602" y="147" on="1"/>
      </contour>
      <contour>
        <pt x="746" y="1370" on="1"/>
        <pt x="847" y="1370" on="0"/>
        <pt x="1011" y="1310" on="0"/>
        <pt x="1126" y="1206" on="0"/>
        <pt x="1188" y="1067" on="0"/>
        <pt x="1188" y="989" on="1"/>
        <pt x="1188" y="381" on="1"/>
        <pt x="1188" y="303" on="0"/>
        <pt x="1126" y="164" on="0"/>
        <pt x="1011" y="60" on="0"/>
        <pt x="847" y="0" on="0"/>
        <pt x="746" y="0" on="1"/>
        <pt x="438" y="0" on="1"/>
        <pt x="337" y="0" on="0"/>
        <pt x="173" y="60" on="0"/>
        <pt x="58" y="164" on="0"/>
        <pt x="-4" y="303" on="0"/>
        <pt x="-4" y="381" on="1"/>
        <pt x="-4" y="989" on="1"/>
        <pt x="-4" y="1067" on="0"/>
        <pt x="58" y="1206" on="0"/>
        <pt x="173" y="1310" on="0"/>
        <pt x="337" y="1370" on="0"/>
        <pt x="438" y="1370" on="1"/>
      </contour>
      <contour>
        <pt x="797" y="700" on="1"/>
        <pt x="797" y="453" on="1"/>
        <pt x="903" y="453" on="1"/>
        <pt x="903" y="711" on="1"/>
        <pt x="868" y="803" on="1"/>
        <pt x="754" y="844" on="1"/>
        <pt x="864" y="897" on="1"/>
        <pt x="895" y="987" on="1"/>
        <pt x="895" y="1098" on="1"/>
        <pt x="883" y="1182" on="1"/>
        <pt x="817" y="1266" on="1"/>
        <pt x="717" y="1280" on="1"/>
        <pt x="344" y="1280" on="1"/>
        <pt x="344" y="453" on="1"/>
        <pt x="451" y="453" on="1"/>
        <pt x="451" y="786" on="1"/>
        <pt x="711" y="786" on="1"/>
        <pt x="782" y="754" on="1"/>
      </contour>
      <contour>
        <pt x="711" y="1174" on="1"/>
        <pt x="782" y="1143" on="1"/>
        <pt x="789" y="1085" on="1"/>
        <pt x="789" y="979" on="1"/>
        <pt x="774" y="924" on="1"/>
        <pt x="711" y="893" on="1"/>
        <pt x="451" y="893" on="1"/>
        <pt x="451" y="1174" on="1"/>
      </contour>
    </TTGlyph>
    <TTGlyph name="S" xMin="-4" yMin="0" xMax="1188" yMax="1370">
      <contour>
        <pt x="746" y="1370" on="1"/>
        <pt x="847" y="1370" on="0"/>
        <pt x="1011" y="1310" on="0"/>
        <pt x="1126" y="1206" on="0"/>
        <pt x="1188" y="1067" on="0"/>
        <pt x="1188" y="989" on="1"/>
        <pt x="1188" y="381" on="1"/>
        <pt x="1188" y="303" on="0"/>
        <pt x="1126" y="164" on="0"/>
        <pt x="1011" y="60" on="0"/>
        <pt x="847" y="0" on="0"/>
        <pt x="746" y="0" on="1"/>
        <pt x="438" y="0" on="1"/>
        <pt x="337" y="0" on="0"/>
        <pt x="173" y="60" on="0"/>
        <pt x="58" y="164" on="0"/>
        <pt x="-4" y="303" on="0"/>
        <pt x="-4" y="381" on="1"/>
        <pt x="-4" y="989" on="1"/>
        <pt x="-4" y="1067" on="0"/>
        <pt x="58" y="1206" on="0"/>
        <pt x="173" y="1310" on="0"/>
        <pt x="337" y="1370" on="0"/>
        <pt x="438" y="1370" on="1"/>
      </contour>
      <contour>
        <pt x="934" y="766" on="1"/>
        <pt x="920" y="852" on="1"/>
        <pt x="856" y="915" on="1"/>
        <pt x="752" y="926" on="1"/>
        <pt x="528" y="926" on="1"/>
        <pt x="467" y="938" on="1"/>
        <pt x="462" y="955" on="0"/>
        <pt x="458" y="982" on="0"/>
        <pt x="453" y="997" on="1"/>
        <pt x="453" y="1102" on="1"/>
        <pt x="467" y="1161" on="1"/>
        <pt x="533" y="1174" on="1"/>
        <pt x="787" y="1174" on="1"/>
        <pt x="881" y="1155" on="1"/>
        <pt x="905" y="1264" on="1"/>
        <pt x="789" y="1280" on="1"/>
        <pt x="526" y="1280" on="1"/>
        <pt x="426" y="1266" on="1"/>
        <pt x="361" y="1202" on="1"/>
        <pt x="348" y="1118" on="1"/>
        <pt x="348" y="981" on="1"/>
        <pt x="361" y="897" on="1"/>
        <pt x="426" y="834" on="1"/>
        <pt x="526" y="821" on="1"/>
        <pt x="752" y="821" on="1"/>
        <pt x="813" y="811" on="1"/>
        <pt x="816" y="796" on="0"/>
        <pt x="824" y="770" on="0"/>
        <pt x="827" y="756" on="1"/>
        <pt x="827" y="625" on="1"/>
        <pt x="825" y="612" on="0"/>
        <pt x="816" y="582" on="0"/>
        <pt x="813" y="569" on="1"/>
        <pt x="748" y="559" on="1"/>
        <pt x="500" y="559" on="1"/>
        <pt x="402" y="575" on="1"/>
        <pt x="377" y="467" on="1"/>
        <pt x="494" y="453" on="1"/>
        <pt x="754" y="453" on="1"/>
        <pt x="856" y="465" on="1"/>
        <pt x="920" y="528" on="1"/>
        <pt x="934" y="614" on="1"/>
      </contour>
    </TTGlyph>
    <TTGlyph name="Sacute" xMin="-4" yMin="0" xMax="1188" yMax="1958">
      <component glyphName="S" x="0" y="0" flags="0x1204"/>
      <component glyphName="acute" x="401" y="1270" flags="0x1004"/>
    </TTGlyph>
    <TTGlyph name="Scaron" xMin="-4" yMin="0" xMax="1188" yMax="1942">
      <component glyphName="S" x="0" y="0" flags="0x1204"/>
      <component glyphName="caron" x="293" y="1270" flags="0x1004"/>
    </TTGlyph>
    <TTGlyph name="Scedilla" xMin="-4" yMin="0" xMax="1188" yMax="1370">
      <contour>
        <pt x="934" y="766" on="1"/>
        <pt x="920" y="852" on="1"/>
        <pt x="856" y="915" on="1"/>
        <pt x="752" y="926" on="1"/>
        <pt x="528" y="926" on="1"/>
        <pt x="467" y="938" on="1"/>
        <pt x="462" y="955" on="0"/>
        <pt x="458" y="982" on="0"/>
        <pt x="453" y="997" on="1"/>
        <pt x="453" y="1102" on="1"/>
        <pt x="467" y="1161" on="1"/>
        <pt x="533" y="1174" on="1"/>
        <pt x="787" y="1174" on="1"/>
        <pt x="881" y="1155" on="1"/>
        <pt x="905" y="1264" on="1"/>
        <pt x="789" y="1280" on="1"/>
        <pt x="526" y="1280" on="1"/>
        <pt x="426" y="1266" on="1"/>
        <pt x="361" y="1202" on="1"/>
        <pt x="348" y="1118" on="1"/>
        <pt x="348" y="981" on="1"/>
        <pt x="361" y="897" on="1"/>
        <pt x="426" y="834" on="1"/>
        <pt x="526" y="821" on="1"/>
        <pt x="752" y="821" on="1"/>
        <pt x="813" y="811" on="1"/>
        <pt x="816" y="796" on="0"/>
        <pt x="824" y="770" on="0"/>
        <pt x="827" y="756" on="1"/>
        <pt x="827" y="625" on="1"/>
        <pt x="825" y="612" on="0"/>
        <pt x="816" y="582" on="0"/>
        <pt x="813" y="569" on="1"/>
        <pt x="748" y="559" on="1"/>
        <pt x="500" y="559" on="1"/>
        <pt x="402" y="575" on="1"/>
        <pt x="377" y="467" on="1"/>
        <pt x="494" y="453" on="1"/>
        <pt x="623" y="453" on="1"/>
        <pt x="623" y="418" on="1"/>
        <pt x="551" y="418" on="1"/>
        <pt x="494" y="356" on="1"/>
        <pt x="481" y="299" on="1"/>
        <pt x="481" y="281" on="1"/>
        <pt x="494" y="203" on="1"/>
        <pt x="553" y="143" on="1"/>
        <pt x="696" y="131" on="1"/>
        <pt x="696" y="221" on="1"/>
        <pt x="586" y="231" on="1"/>
        <pt x="571" y="291" on="1"/>
        <pt x="582" y="326" on="1"/>
        <pt x="692" y="336" on="1"/>
        <pt x="692" y="453" on="1"/>
        <pt x="754" y="453" on="1"/>
        <pt x="856" y="465" on="1"/>
        <pt x="920" y="528" on="1"/>
        <pt x="934" y="614" on="1"/>
      </contour>
      <contour>
        <pt x="746" y="1370" on="1"/>
        <pt x="847" y="1370" on="0"/>
        <pt x="1011" y="1310" on="0"/>
        <pt x="1126" y="1206" on="0"/>
        <pt x="1188" y="1067" on="0"/>
        <pt x="1188" y="989" on="1"/>
        <pt x="1188" y="381" on="1"/>
        <pt x="1188" y="303" on="0"/>
        <pt x="1126" y="164" on="0"/>
        <pt x="1011" y="60" on="0"/>
        <pt x="847" y="0" on="0"/>
        <pt x="746" y="0" on="1"/>
        <pt x="438" y="0" on="1"/>
        <pt x="337" y="0" on="0"/>
        <pt x="173" y="60" on="0"/>
        <pt x="58" y="164" on="0"/>
        <pt x="-4" y="303" on="0"/>
        <pt x="-4" y="381" on="1"/>
        <pt x="-4" y="989" on="1"/>
        <pt x="-4" y="1067" on="0"/>
        <pt x="58" y="1206" on="0"/>
        <pt x="173" y="1310" on="0"/>
        <pt x="337" y="1370" on="0"/>
        <pt x="438" y="1370" on="1"/>
      </contour>
    </TTGlyph>
    <TTGlyph name="Scircumflex" xMin="-4" yMin="0" xMax="1188" yMax="2001">
      <component glyphName="S" x="0" y="0" flags="0x1204"/>
      <component glyphName="circumflex" x="285" y="1270" flags="0x1004"/>
    </TTGlyph>
    <TTGlyph name="T" xMin="-4" yMin="0" xMax="1188" yMax="1370">
      <contour>
        <pt x="936" y="1280" on="1"/>
        <pt x="358" y="1280" on="1"/>
        <pt x="358" y="1174" on="1"/>
        <pt x="594" y="1174" on="1"/>
        <pt x="594" y="453" on="1"/>
        <pt x="701" y="453" on="1"/>
        <pt x="701" y="1174" on="1"/>
        <pt x="936" y="1174" on="1"/>
      </contour>
      <contour>
        <pt x="746" y="1370" on="1"/>
        <pt x="847" y="1370" on="0"/>
        <pt x="1011" y="1310" on="0"/>
        <pt x="1126" y="1206" on="0"/>
        <pt x="1188" y="1067" on="0"/>
        <pt x="1188" y="989" on="1"/>
        <pt x="1188" y="381" on="1"/>
        <pt x="1188" y="303" on="0"/>
        <pt x="1126" y="164" on="0"/>
        <pt x="1011" y="60" on="0"/>
        <pt x="847" y="0" on="0"/>
        <pt x="746" y="0" on="1"/>
        <pt x="438" y="0" on="1"/>
        <pt x="337" y="0" on="0"/>
        <pt x="173" y="60" on="0"/>
        <pt x="58" y="164" on="0"/>
        <pt x="-4" y="303" on="0"/>
        <pt x="-4" y="381" on="1"/>
        <pt x="-4" y="989" on="1"/>
        <pt x="-4" y="1067" on="0"/>
        <pt x="58" y="1206" on="0"/>
        <pt x="173" y="1310" on="0"/>
        <pt x="337" y="1370" on="0"/>
        <pt x="438" y="1370" on="1"/>
      </contour>
    </TTGlyph>
    <TTGlyph name="Tbar" xMin="-4" yMin="0" xMax="1188" yMax="1370">
      <contour>
        <pt x="936" y="1280" on="1"/>
        <pt x="358" y="1280" on="1"/>
        <pt x="358" y="1174" on="1"/>
        <pt x="594" y="1174" on="1"/>
        <pt x="594" y="897" on="1"/>
        <pt x="455" y="897" on="1"/>
        <pt x="455" y="805" on="1"/>
        <pt x="594" y="805" on="1"/>
        <pt x="594" y="453" on="1"/>
        <pt x="701" y="453" on="1"/>
        <pt x="701" y="805" on="1"/>
        <pt x="832" y="805" on="1"/>
        <pt x="832" y="897" on="1"/>
        <pt x="701" y="897" on="1"/>
        <pt x="701" y="1174" on="1"/>
        <pt x="936" y="1174" on="1"/>
      </contour>
      <contour>
        <pt x="746" y="1370" on="1"/>
        <pt x="847" y="1370" on="0"/>
        <pt x="1011" y="1310" on="0"/>
        <pt x="1126" y="1206" on="0"/>
        <pt x="1188" y="1067" on="0"/>
        <pt x="1188" y="989" on="1"/>
        <pt x="1188" y="381" on="1"/>
        <pt x="1188" y="303" on="0"/>
        <pt x="1126" y="164" on="0"/>
        <pt x="1011" y="60" on="0"/>
        <pt x="847" y="0" on="0"/>
        <pt x="746" y="0" on="1"/>
        <pt x="438" y="0" on="1"/>
        <pt x="337" y="0" on="0"/>
        <pt x="173" y="60" on="0"/>
        <pt x="58" y="164" on="0"/>
        <pt x="-4" y="303" on="0"/>
        <pt x="-4" y="381" on="1"/>
        <pt x="-4" y="989" on="1"/>
        <pt x="-4" y="1067" on="0"/>
        <pt x="58" y="1206" on="0"/>
        <pt x="173" y="1310" on="0"/>
        <pt x="337" y="1370" on="0"/>
        <pt x="438" y="1370" on="1"/>
      </contour>
    </TTGlyph>
    <TTGlyph name="Tcaron" xMin="-4" yMin="0" xMax="1188" yMax="1938">
      <component glyphName="T" x="0" y="0" flags="0x1204"/>
      <component glyphName="caron" x="266" y="1266" flags="0x1004"/>
    </TTGlyph>
    <TTGlyph name="Tcommaaccent" xMin="-4" yMin="0" xMax="1188" yMax="1370">
      <contour>
        <pt x="666" y="119" on="1"/>
        <pt x="727" y="248" on="1"/>
        <pt x="727" y="377" on="1"/>
        <pt x="576" y="377" on="1"/>
        <pt x="576" y="248" on="1"/>
        <pt x="641" y="248" on="1"/>
        <pt x="602" y="147" on="1"/>
      </contour>
      <contour>
        <pt x="936" y="1280" on="1"/>
        <pt x="358" y="1280" on="1"/>
        <pt x="358" y="1174" on="1"/>
        <pt x="594" y="1174" on="1"/>
        <pt x="594" y="453" on="1"/>
        <pt x="701" y="453" on="1"/>
        <pt x="701" y="1174" on="1"/>
        <pt x="936" y="1174" on="1"/>
      </contour>
      <contour>
        <pt x="746" y="1370" on="1"/>
        <pt x="847" y="1370" on="0"/>
        <pt x="1011" y="1310" on="0"/>
        <pt x="1126" y="1206" on="0"/>
        <pt x="1188" y="1067" on="0"/>
        <pt x="1188" y="989" on="1"/>
        <pt x="1188" y="381" on="1"/>
        <pt x="1188" y="303" on="0"/>
        <pt x="1126" y="164" on="0"/>
        <pt x="1011" y="60" on="0"/>
        <pt x="847" y="0" on="0"/>
        <pt x="746" y="0" on="1"/>
        <pt x="438" y="0" on="1"/>
        <pt x="337" y="0" on="0"/>
        <pt x="173" y="60" on="0"/>
        <pt x="58" y="164" on="0"/>
        <pt x="-4" y="303" on="0"/>
        <pt x="-4" y="381" on="1"/>
        <pt x="-4" y="989" on="1"/>
        <pt x="-4" y="1067" on="0"/>
        <pt x="58" y="1206" on="0"/>
        <pt x="173" y="1310" on="0"/>
        <pt x="337" y="1370" on="0"/>
        <pt x="438" y="1370" on="1"/>
      </contour>
    </TTGlyph>
    <TTGlyph name="Thorn" xMin="-4" yMin="0" xMax="1188" yMax="1370">
      <component glyphName="thorn" x="0" y="0" flags="0x1204"/>
    </TTGlyph>
    <TTGlyph name="U" xMin="-4" yMin="0" xMax="1188" yMax="1370">
      <contour>
        <pt x="746" y="1370" on="1"/>
        <pt x="847" y="1370" on="0"/>
        <pt x="1011" y="1310" on="0"/>
        <pt x="1126" y="1206" on="0"/>
        <pt x="1188" y="1067" on="0"/>
        <pt x="1188" y="989" on="1"/>
        <pt x="1188" y="381" on="1"/>
        <pt x="1188" y="303" on="0"/>
        <pt x="1126" y="164" on="0"/>
        <pt x="1011" y="60" on="0"/>
        <pt x="847" y="0" on="0"/>
        <pt x="746" y="0" on="1"/>
        <pt x="438" y="0" on="1"/>
        <pt x="337" y="0" on="0"/>
        <pt x="173" y="60" on="0"/>
        <pt x="58" y="164" on="0"/>
        <pt x="-4" y="303" on="0"/>
        <pt x="-4" y="381" on="1"/>
        <pt x="-4" y="989" on="1"/>
        <pt x="-4" y="1067" on="0"/>
        <pt x="58" y="1206" on="0"/>
        <pt x="173" y="1310" on="0"/>
        <pt x="337" y="1370" on="0"/>
        <pt x="438" y="1370" on="1"/>
      </contour>
      <contour>
        <pt x="946" y="1280" on="1"/>
        <pt x="840" y="1280" on="1"/>
        <pt x="840" y="625" on="1"/>
        <pt x="838" y="612" on="0"/>
        <pt x="829" y="582" on="0"/>
        <pt x="825" y="569" on="1"/>
        <pt x="760" y="559" on="1"/>
        <pt x="504" y="559" on="1"/>
        <pt x="438" y="569" on="1"/>
        <pt x="424" y="629" on="1"/>
        <pt x="424" y="1280" on="1"/>
        <pt x="320" y="1280" on="1"/>
        <pt x="320" y="614" on="1"/>
        <pt x="332" y="528" on="1"/>
        <pt x="397" y="465" on="1"/>
        <pt x="498" y="453" on="1"/>
        <pt x="766" y="453" on="1"/>
        <pt x="868" y="465" on="1"/>
        <pt x="932" y="528" on="1"/>
        <pt x="946" y="614" on="1"/>
      </contour>
    </TTGlyph>
    <TTGlyph name="Uacute" xMin="-4" yMin="0" xMax="1188" yMax="1958">
      <component glyphName="U" x="0" y="0" flags="0x1204"/>
      <component glyphName="acute" x="391" y="1270" flags="0x1004"/>
    </TTGlyph>
    <TTGlyph name="Ubreve" xMin="-4" yMin="0" xMax="1188" yMax="1909">
      <component glyphName="U" x="0" y="0" flags="0x1204"/>
      <component glyphName="breve" x="205" y="1311" flags="0x1004"/>
    </TTGlyph>
    <TTGlyph name="Ucircumflex" xMin="-4" yMin="0" xMax="1188" yMax="2001">
      <component glyphName="U" x="0" y="0" flags="0x1204"/>
      <component glyphName="circumflex" x="274" y="1270" flags="0x1004"/>
    </TTGlyph>
    <TTGlyph name="Udieresis" xMin="-4" yMin="0" xMax="1188" yMax="1862">
      <component glyphName="U" x="0" y="0" flags="0x1204"/>
      <component glyphName="dieresis" x="246" y="1272" flags="0x1004"/>
    </TTGlyph>
    <TTGlyph name="Ugrave" xMin="-4" yMin="0" xMax="1188" yMax="1958">
      <component glyphName="U" x="0" y="0" flags="0x1204"/>
      <component glyphName="grave" x="213" y="1270" flags="0x1004"/>
    </TTGlyph>
    <TTGlyph name="Uhungarumlaut" xMin="-4" yMin="0" xMax="1194" yMax="1977">
      <component glyphName="U" x="0" y="0" flags="0x1004"/>
      <component glyphName="hungarumlaut" x="330" y="1270" flags="0x1004"/>
    </TTGlyph>
    <TTGlyph name="Umacron" xMin="-4" yMin="0" xMax="1188" yMax="1894">
      <component glyphName="U" x="0" y="0" flags="0x1204"/>
      <component glyphName="macron" x="205" y="1296" flags="0x1004"/>
    </TTGlyph>
    <TTGlyph name="Uogonek" xMin="-4" yMin="0" xMax="1188" yMax="1370">
      <contour>
        <pt x="946" y="1280" on="1"/>
        <pt x="840" y="1280" on="1"/>
        <pt x="840" y="625" on="1"/>
        <pt x="838" y="612" on="0"/>
        <pt x="829" y="582" on="0"/>
        <pt x="825" y="569" on="1"/>
        <pt x="760" y="559" on="1"/>
        <pt x="504" y="559" on="1"/>
        <pt x="438" y="569" on="1"/>
        <pt x="424" y="629" on="1"/>
        <pt x="424" y="1280" on="1"/>
        <pt x="320" y="1280" on="1"/>
        <pt x="320" y="614" on="1"/>
        <pt x="332" y="528" on="1"/>
        <pt x="397" y="465" on="1"/>
        <pt x="498" y="453" on="1"/>
        <pt x="684" y="453" on="1"/>
        <pt x="612" y="414" on="1"/>
        <pt x="555" y="356" on="1"/>
        <pt x="543" y="281" on="1"/>
        <pt x="555" y="203" on="1"/>
        <pt x="614" y="143" on="1"/>
        <pt x="758" y="131" on="1"/>
        <pt x="758" y="221" on="1"/>
        <pt x="647" y="231" on="1"/>
        <pt x="633" y="291" on="1"/>
        <pt x="643" y="326" on="1"/>
        <pt x="754" y="453" on="1"/>
        <pt x="766" y="453" on="1"/>
        <pt x="868" y="465" on="1"/>
        <pt x="932" y="528" on="1"/>
        <pt x="946" y="614" on="1"/>
      </contour>
      <contour>
        <pt x="746" y="1370" on="1"/>
        <pt x="847" y="1370" on="0"/>
        <pt x="1011" y="1310" on="0"/>
        <pt x="1126" y="1206" on="0"/>
        <pt x="1188" y="1067" on="0"/>
        <pt x="1188" y="989" on="1"/>
        <pt x="1188" y="381" on="1"/>
        <pt x="1188" y="303" on="0"/>
        <pt x="1126" y="164" on="0"/>
        <pt x="1011" y="60" on="0"/>
        <pt x="847" y="0" on="0"/>
        <pt x="746" y="0" on="1"/>
        <pt x="438" y="0" on="1"/>
        <pt x="337" y="0" on="0"/>
        <pt x="173" y="60" on="0"/>
        <pt x="58" y="164" on="0"/>
        <pt x="-4" y="303" on="0"/>
        <pt x="-4" y="381" on="1"/>
        <pt x="-4" y="989" on="1"/>
        <pt x="-4" y="1067" on="0"/>
        <pt x="58" y="1206" on="0"/>
        <pt x="173" y="1310" on="0"/>
        <pt x="337" y="1370" on="0"/>
        <pt x="438" y="1370" on="1"/>
      </contour>
    </TTGlyph>
    <TTGlyph name="Uring" xMin="-4" yMin="0" xMax="1188" yMax="1948">
      <component glyphName="U" x="0" y="0" flags="0x1204"/>
      <component glyphName="ring" x="256" y="1311" flags="0x1004"/>
    </TTGlyph>
    <TTGlyph name="Utilde" xMin="-4" yMin="0" xMax="1188" yMax="1970">
      <component glyphName="U" x="0" y="0" flags="0x1204"/>
      <component glyphName="tilde" x="205" y="1311" flags="0x1004"/>
    </TTGlyph>
    <TTGlyph name="V" xMin="-4" yMin="0" xMax="1188" yMax="1370">
      <contour>
        <pt x="629" y="446" on="1"/>
        <pt x="696" y="465" on="1"/>
        <pt x="756" y="524" on="1"/>
        <pt x="952" y="1260" on="1"/>
        <pt x="836" y="1280" on="1"/>
        <pt x="655" y="565" on="1"/>
        <pt x="633" y="557" on="1"/>
        <pt x="606" y="563" on="1"/>
        <pt x="426" y="1280" on="1"/>
        <pt x="309" y="1260" on="1"/>
        <pt x="506" y="524" on="1"/>
        <pt x="565" y="465" on="1"/>
      </contour>
      <contour>
        <pt x="746" y="1370" on="1"/>
        <pt x="847" y="1370" on="0"/>
        <pt x="1011" y="1310" on="0"/>
        <pt x="1126" y="1206" on="0"/>
        <pt x="1188" y="1067" on="0"/>
        <pt x="1188" y="989" on="1"/>
        <pt x="1188" y="381" on="1"/>
        <pt x="1188" y="303" on="0"/>
        <pt x="1126" y="164" on="0"/>
        <pt x="1011" y="60" on="0"/>
        <pt x="847" y="0" on="0"/>
        <pt x="746" y="0" on="1"/>
        <pt x="438" y="0" on="1"/>
        <pt x="337" y="0" on="0"/>
        <pt x="173" y="60" on="0"/>
        <pt x="58" y="164" on="0"/>
        <pt x="-4" y="303" on="0"/>
        <pt x="-4" y="381" on="1"/>
        <pt x="-4" y="989" on="1"/>
        <pt x="-4" y="1067" on="0"/>
        <pt x="58" y="1206" on="0"/>
        <pt x="173" y="1310" on="0"/>
        <pt x="337" y="1370" on="0"/>
        <pt x="438" y="1370" on="1"/>
      </contour>
    </TTGlyph>
    <TTGlyph name="W" xMin="-4" yMin="0" xMax="1188" yMax="1370">
      <contour>
        <pt x="668" y="1247" on="1"/>
        <pt x="569" y="1247" on="1"/>
        <pt x="451" y="565" on="1"/>
        <pt x="428" y="557" on="1"/>
        <pt x="402" y="563" on="1"/>
        <pt x="334" y="1280" on="1"/>
        <pt x="219" y="1260" on="1"/>
        <pt x="299" y="526" on="1"/>
        <pt x="361" y="465" on="1"/>
        <pt x="426" y="449" on="1"/>
        <pt x="492" y="465" on="1"/>
        <pt x="553" y="526" on="1"/>
        <pt x="619" y="967" on="1"/>
        <pt x="684" y="526" on="1"/>
        <pt x="746" y="465" on="1"/>
        <pt x="811" y="449" on="1"/>
        <pt x="877" y="465" on="1"/>
        <pt x="938" y="526" on="1"/>
        <pt x="1018" y="1260" on="1"/>
        <pt x="903" y="1280" on="1"/>
        <pt x="836" y="563" on="1"/>
        <pt x="809" y="557" on="1"/>
        <pt x="787" y="565" on="1"/>
      </contour>
      <contour>
        <pt x="438" y="0" on="1"/>
        <pt x="337" y="0" on="0"/>
        <pt x="173" y="60" on="0"/>
        <pt x="58" y="164" on="0"/>
        <pt x="-4" y="303" on="0"/>
        <pt x="-4" y="381" on="1"/>
        <pt x="-4" y="989" on="1"/>
        <pt x="-4" y="1067" on="0"/>
        <pt x="58" y="1206" on="0"/>
        <pt x="173" y="1310" on="0"/>
        <pt x="337" y="1370" on="0"/>
        <pt x="438" y="1370" on="1"/>
        <pt x="746" y="1370" on="1"/>
        <pt x="847" y="1370" on="0"/>
        <pt x="1011" y="1310" on="0"/>
        <pt x="1126" y="1206" on="0"/>
        <pt x="1188" y="1067" on="0"/>
        <pt x="1188" y="989" on="1"/>
        <pt x="1188" y="381" on="1"/>
        <pt x="1188" y="303" on="0"/>
        <pt x="1126" y="164" on="0"/>
        <pt x="1011" y="60" on="0"/>
        <pt x="847" y="0" on="0"/>
        <pt x="746" y="0" on="1"/>
      </contour>
    </TTGlyph>
    <TTGlyph name="Wcircumflex" xMin="-4" yMin="0" xMax="1188" yMax="1993">
      <component glyphName="W" x="0" y="0" flags="0x1204"/>
      <component glyphName="circumflex" x="250" y="1262" flags="0x1004"/>
    </TTGlyph>
    <TTGlyph name="X" xMin="-4" yMin="0" xMax="1188" yMax="1370">
      <contour>
        <pt x="746" y="1370" on="1"/>
        <pt x="847" y="1370" on="0"/>
        <pt x="1011" y="1310" on="0"/>
        <pt x="1126" y="1206" on="0"/>
        <pt x="1188" y="1067" on="0"/>
        <pt x="1188" y="989" on="1"/>
        <pt x="1188" y="381" on="1"/>
        <pt x="1188" y="303" on="0"/>
        <pt x="1126" y="164" on="0"/>
        <pt x="1011" y="60" on="0"/>
        <pt x="847" y="0" on="0"/>
        <pt x="746" y="0" on="1"/>
        <pt x="438" y="0" on="1"/>
        <pt x="337" y="0" on="0"/>
        <pt x="173" y="60" on="0"/>
        <pt x="58" y="164" on="0"/>
        <pt x="-4" y="303" on="0"/>
        <pt x="-4" y="381" on="1"/>
        <pt x="-4" y="989" on="1"/>
        <pt x="-4" y="1067" on="0"/>
        <pt x="58" y="1206" on="0"/>
        <pt x="173" y="1310" on="0"/>
        <pt x="337" y="1370" on="0"/>
        <pt x="438" y="1370" on="1"/>
      </contour>
      <contour>
        <pt x="868" y="1282" on="1"/>
        <pt x="641" y="922" on="1"/>
        <pt x="420" y="1282" on="1"/>
        <pt x="324" y="1241" on="1"/>
        <pt x="557" y="864" on="1"/>
        <pt x="326" y="489" on="1"/>
        <pt x="420" y="451" on="1"/>
        <pt x="641" y="799" on="1"/>
        <pt x="868" y="451" on="1"/>
        <pt x="963" y="489" on="1"/>
        <pt x="731" y="864" on="1"/>
        <pt x="967" y="1245" on="1"/>
      </contour>
    </TTGlyph>
    <TTGlyph name="Y" xMin="-4" yMin="0" xMax="1188" yMax="1370">
      <contour>
        <pt x="459" y="1280" on="1"/>
        <pt x="334" y="1280" on="1"/>
        <pt x="584" y="686" on="1"/>
        <pt x="584" y="453" on="1"/>
        <pt x="690" y="453" on="1"/>
        <pt x="690" y="684" on="1"/>
        <pt x="944" y="1280" on="1"/>
        <pt x="819" y="1280" on="1"/>
        <pt x="637" y="831" on="1"/>
      </contour>
      <contour>
        <pt x="746" y="1370" on="1"/>
        <pt x="847" y="1370" on="0"/>
        <pt x="1011" y="1310" on="0"/>
        <pt x="1126" y="1206" on="0"/>
        <pt x="1188" y="1067" on="0"/>
        <pt x="1188" y="989" on="1"/>
        <pt x="1188" y="381" on="1"/>
        <pt x="1188" y="303" on="0"/>
        <pt x="1126" y="164" on="0"/>
        <pt x="1011" y="60" on="0"/>
        <pt x="847" y="0" on="0"/>
        <pt x="746" y="0" on="1"/>
        <pt x="438" y="0" on="1"/>
        <pt x="337" y="0" on="0"/>
        <pt x="173" y="60" on="0"/>
        <pt x="58" y="164" on="0"/>
        <pt x="-4" y="303" on="0"/>
        <pt x="-4" y="381" on="1"/>
        <pt x="-4" y="989" on="1"/>
        <pt x="-4" y="1067" on="0"/>
        <pt x="58" y="1206" on="0"/>
        <pt x="173" y="1310" on="0"/>
        <pt x="337" y="1370" on="0"/>
        <pt x="438" y="1370" on="1"/>
      </contour>
    </TTGlyph>
    <TTGlyph name="Yacute" xMin="-4" yMin="0" xMax="1188" yMax="1958">
      <component glyphName="Y" x="0" y="0" flags="0x1204"/>
      <component glyphName="acute" x="387" y="1270" flags="0x1004"/>
    </TTGlyph>
    <TTGlyph name="Ycircumflex" xMin="-4" yMin="0" xMax="1188" yMax="2001">
      <component glyphName="Y" x="0" y="0" flags="0x1204"/>
      <component glyphName="circumflex" x="270" y="1270" flags="0x1004"/>
    </TTGlyph>
    <TTGlyph name="Ydieresis" xMin="-4" yMin="0" xMax="1188" yMax="1862">
      <component glyphName="Y" x="0" y="0" flags="0x1204"/>
      <component glyphName="dieresis" x="242" y="1272" flags="0x1004"/>
    </TTGlyph>
    <TTGlyph name="Z" xMin="-4" yMin="0" xMax="1188" yMax="1370">
      <contour>
        <pt x="885" y="557" on="1"/>
        <pt x="508" y="557" on="1"/>
        <pt x="862" y="1192" on="1"/>
        <pt x="821" y="1280" on="1"/>
        <pt x="393" y="1280" on="1"/>
        <pt x="393" y="1174" on="1"/>
        <pt x="731" y="1174" on="1"/>
        <pt x="377" y="539" on="1"/>
        <pt x="410" y="453" on="1"/>
        <pt x="885" y="453" on="1"/>
      </contour>
      <contour>
        <pt x="746" y="1370" on="1"/>
        <pt x="847" y="1370" on="0"/>
        <pt x="1011" y="1310" on="0"/>
        <pt x="1126" y="1206" on="0"/>
        <pt x="1188" y="1067" on="0"/>
        <pt x="1188" y="989" on="1"/>
        <pt x="1188" y="381" on="1"/>
        <pt x="1188" y="303" on="0"/>
        <pt x="1126" y="164" on="0"/>
        <pt x="1011" y="60" on="0"/>
        <pt x="847" y="0" on="0"/>
        <pt x="746" y="0" on="1"/>
        <pt x="438" y="0" on="1"/>
        <pt x="337" y="0" on="0"/>
        <pt x="173" y="60" on="0"/>
        <pt x="58" y="164" on="0"/>
        <pt x="-4" y="303" on="0"/>
        <pt x="-4" y="381" on="1"/>
        <pt x="-4" y="989" on="1"/>
        <pt x="-4" y="1067" on="0"/>
        <pt x="58" y="1206" on="0"/>
        <pt x="173" y="1310" on="0"/>
        <pt x="337" y="1370" on="0"/>
        <pt x="438" y="1370" on="1"/>
      </contour>
    </TTGlyph>
    <TTGlyph name="Zacute" xMin="-4" yMin="0" xMax="1188" yMax="1970">
      <component glyphName="Z" x="0" y="0" flags="0x1204"/>
      <component glyphName="acute" x="317" y="1282" flags="0x1004"/>
    </TTGlyph>
    <TTGlyph name="Zcaron" xMin="-4" yMin="0" xMax="1188" yMax="1936">
      <component glyphName="Z" x="0" y="0" flags="0x1204"/>
      <component glyphName="caron" x="244" y="1264" flags="0x1004"/>
    </TTGlyph>
    <TTGlyph name="Zdotaccent" xMin="-4" yMin="0" xMax="1188" yMax="1903">
      <component glyphName="Z" x="0" y="0" flags="0x1204"/>
      <component glyphName="dotaccent" x="154" y="1305" flags="0x1004"/>
    </TTGlyph>
    <TTGlyph name="a" xMin="-4" yMin="0" xMax="1188" yMax="1370">
      <contour>
        <pt x="869" y="454" on="1"/>
        <pt x="869" y="682" on="1"/>
        <pt x="869" y="1120" on="1"/>
        <pt x="869" y="1204" on="1"/>
        <pt x="801" y="1268" on="1"/>
        <pt x="701" y="1280" on="1"/>
        <pt x="473" y="1280" on="1"/>
        <pt x="356" y="1266" on="1"/>
        <pt x="381" y="1157" on="1"/>
        <pt x="475" y="1176" on="1"/>
        <pt x="698" y="1176" on="1"/>
        <pt x="758" y="1163" on="1"/>
        <pt x="772" y="1110" on="1"/>
        <pt x="772" y="877" on="1"/>
        <pt x="701" y="889" on="1"/>
        <pt x="473" y="889" on="1"/>
        <pt x="373" y="874" on="1"/>
        <pt x="309" y="811" on="1"/>
        <pt x="295" y="729" on="1"/>
        <pt x="295" y="612" on="1"/>
        <pt x="309" y="528" on="1"/>
        <pt x="373" y="465" on="1"/>
        <pt x="473" y="453" on="1"/>
        <pt x="692" y="453" on="1"/>
        <pt x="770" y="465" on="1"/>
      </contour>
      <contour>
        <pt x="772" y="569" on="1"/>
        <pt x="694" y="559" on="1"/>
        <pt x="479" y="559" on="1"/>
        <pt x="416" y="569" on="1"/>
        <pt x="402" y="629" on="1"/>
        <pt x="402" y="715" on="1"/>
        <pt x="410" y="772" on="1"/>
        <pt x="479" y="782" on="1"/>
        <pt x="696" y="782" on="1"/>
        <pt x="772" y="774" on="1"/>
        <pt x="772" y="623" on="1"/>
      </contour>
      <contour>
        <pt x="746" y="1370" on="1"/>
        <pt x="847" y="1370" on="0"/>
        <pt x="1011" y="1310" on="0"/>
        <pt x="1126" y="1206" on="0"/>
        <pt x="1188" y="1067" on="0"/>
        <pt x="1188" y="989" on="1"/>
        <pt x="1188" y="381" on="1"/>
        <pt x="1188" y="303" on="0"/>
        <pt x="1126" y="164" on="0"/>
        <pt x="1011" y="60" on="0"/>
        <pt x="847" y="0" on="0"/>
        <pt x="746" y="0" on="1"/>
        <pt x="438" y="0" on="1"/>
        <pt x="337" y="0" on="0"/>
        <pt x="173" y="60" on="0"/>
        <pt x="58" y="164" on="0"/>
        <pt x="-4" y="303" on="0"/>
        <pt x="-4" y="381" on="1"/>
        <pt x="-4" y="989" on="1"/>
        <pt x="-4" y="1067" on="0"/>
        <pt x="58" y="1206" on="0"/>
        <pt x="173" y="1310" on="0"/>
        <pt x="337" y="1370" on="0"/>
        <pt x="438" y="1370" on="1"/>
      </contour>
    </TTGlyph>
    <TTGlyph name="aacute" xMin="-4" yMin="0" xMax="1188" yMax="1958">
      <component glyphName="a" x="0" y="0" flags="0x1204"/>
      <component glyphName="acute" x="389" y="1270" flags="0x1004"/>
    </TTGlyph>
    <TTGlyph name="abreve" xMin="-4" yMin="0" xMax="1188" yMax="1909">
      <component glyphName="a" x="0" y="0" flags="0x1204"/>
      <component glyphName="breve" x="203" y="1311" flags="0x1004"/>
    </TTGlyph>
    <TTGlyph name="acircumflex" xMin="-4" yMin="0" xMax="1188" yMax="2001">
      <component glyphName="a" x="0" y="0" flags="0x1204"/>
      <component glyphName="circumflex" x="272" y="1270" flags="0x1004"/>
    </TTGlyph>
    <TTGlyph name="acute" xMin="-4" yMin="23" xMax="635" yMax="688">
      <contour>
        <pt x="117" y="23" on="1"/>
        <pt x="94" y="33" on="0"/>
        <pt x="50" y="66" on="0"/>
        <pt x="16" y="110" on="0"/>
        <pt x="-4" y="163" on="0"/>
        <pt x="-4" y="193" on="1"/>
        <pt x="-4" y="203" on="0"/>
        <pt x="2" y="245" on="0"/>
        <pt x="24" y="330" on="0"/>
        <pt x="65" y="468" on="0"/>
        <pt x="100" y="575" on="1"/>
        <pt x="112" y="606" on="0"/>
        <pt x="158" y="650" on="0"/>
        <pt x="221" y="676" on="0"/>
        <pt x="298" y="688" on="0"/>
        <pt x="340" y="688" on="1"/>
        <pt x="396" y="688" on="0"/>
        <pt x="502" y="662" on="0"/>
        <pt x="585" y="611" on="0"/>
        <pt x="635" y="536" on="0"/>
        <pt x="635" y="487" on="1"/>
        <pt x="634" y="459" on="0"/>
        <pt x="615" y="392" on="0"/>
        <pt x="592" y="354" on="1"/>
        <pt x="434" y="84" on="1"/>
        <pt x="422" y="64" on="0"/>
        <pt x="402" y="34" on="0"/>
        <pt x="391" y="23" on="1"/>
      </contour>
      <contour>
        <pt x="416" y="514" on="1"/>
        <pt x="295" y="514" on="1"/>
        <pt x="195" y="180" on="1"/>
        <pt x="264" y="180" on="1"/>
      </contour>
    </TTGlyph>
    <TTGlyph name="adieresis" xMin="-4" yMin="0" xMax="1188" yMax="1862">
      <component glyphName="a" x="0" y="0" flags="0x1204"/>
      <component glyphName="dieresis" x="244" y="1272" flags="0x1004"/>
    </TTGlyph>
    <TTGlyph name="ae" xMin="-4" yMin="0" xMax="1188" yMax="1370">
      <component glyphName="AE" x="0" y="0" flags="0x1204"/>
    </TTGlyph>
    <TTGlyph name="agrave" xMin="-4" yMin="0" xMax="1188" yMax="1958">
      <component glyphName="a" x="0" y="0" flags="0x1204"/>
      <component glyphName="grave" x="211" y="1270" flags="0x1004"/>
    </TTGlyph>
    <TTGlyph name="amacron" xMin="-4" yMin="0" xMax="1188" yMax="1868">
      <component glyphName="a" x="0" y="0" flags="0x1204"/>
      <component glyphName="macron" x="203" y="1270" flags="0x1004"/>
    </TTGlyph>
    <TTGlyph name="ampersand" xMin="-4" yMin="0" xMax="1188" yMax="1370">
      <contour>
        <pt x="746" y="1370" on="1"/>
        <pt x="847" y="1370" on="0"/>
        <pt x="1011" y="1310" on="0"/>
        <pt x="1126" y="1206" on="0"/>
        <pt x="1188" y="1067" on="0"/>
        <pt x="1188" y="989" on="1"/>
        <pt x="1188" y="381" on="1"/>
        <pt x="1188" y="303" on="0"/>
        <pt x="1126" y="164" on="0"/>
        <pt x="1011" y="60" on="0"/>
        <pt x="847" y="0" on="0"/>
        <pt x="746" y="0" on="1"/>
        <pt x="438" y="0" on="1"/>
        <pt x="337" y="0" on="0"/>
        <pt x="173" y="60" on="0"/>
        <pt x="58" y="164" on="0"/>
        <pt x="-4" y="303" on="0"/>
        <pt x="-4" y="381" on="1"/>
        <pt x="-4" y="989" on="1"/>
        <pt x="-4" y="1067" on="0"/>
        <pt x="58" y="1206" on="0"/>
        <pt x="173" y="1310" on="0"/>
        <pt x="337" y="1370" on="0"/>
        <pt x="438" y="1370" on="1"/>
      </contour>
      <contour>
        <pt x="801" y="1026" on="1"/>
        <pt x="801" y="928" on="1"/>
        <pt x="555" y="928" on="1"/>
        <pt x="490" y="938" on="1"/>
        <pt x="475" y="997" on="1"/>
        <pt x="475" y="1108" on="1"/>
        <pt x="485" y="1163" on="1"/>
        <pt x="555" y="1174" on="1"/>
        <pt x="721" y="1174" on="1"/>
        <pt x="791" y="1163" on="1"/>
        <pt x="830" y="1266" on="1"/>
        <pt x="727" y="1280" on="1"/>
        <pt x="549" y="1280" on="1"/>
        <pt x="447" y="1266" on="1"/>
        <pt x="383" y="1202" on="1"/>
        <pt x="369" y="1118" on="1"/>
        <pt x="369" y="981" on="1"/>
        <pt x="404" y="918" on="1"/>
        <pt x="469" y="874" on="1"/>
        <pt x="404" y="829" on="1"/>
        <pt x="369" y="766" on="1"/>
        <pt x="369" y="614" on="1"/>
        <pt x="383" y="528" on="1"/>
        <pt x="449" y="465" on="1"/>
        <pt x="549" y="453" on="1"/>
        <pt x="727" y="453" on="1"/>
        <pt x="830" y="465" on="1"/>
        <pt x="893" y="528" on="1"/>
        <pt x="907" y="614" on="1"/>
        <pt x="907" y="821" on="1"/>
        <pt x="991" y="928" on="1"/>
        <pt x="907" y="928" on="1"/>
        <pt x="907" y="1026" on="1"/>
      </contour>
      <contour>
        <pt x="801" y="625" on="1"/>
        <pt x="787" y="569" on="1"/>
        <pt x="721" y="559" on="1"/>
        <pt x="555" y="559" on="1"/>
        <pt x="490" y="569" on="1"/>
        <pt x="475" y="629" on="1"/>
        <pt x="475" y="756" on="1"/>
        <pt x="485" y="811" on="1"/>
        <pt x="555" y="821" on="1"/>
        <pt x="801" y="821" on="1"/>
      </contour>
    </TTGlyph>
    <TTGlyph name="aogonek" xMin="-4" yMin="0" xMax="1188" yMax="1370">
      <contour>
        <pt x="746" y="1370" on="1"/>
        <pt x="847" y="1370" on="0"/>
        <pt x="1011" y="1310" on="0"/>
        <pt x="1126" y="1206" on="0"/>
        <pt x="1188" y="1067" on="0"/>
        <pt x="1188" y="989" on="1"/>
        <pt x="1188" y="381" on="1"/>
        <pt x="1188" y="303" on="0"/>
        <pt x="1126" y="164" on="0"/>
        <pt x="1011" y="60" on="0"/>
        <pt x="847" y="0" on="0"/>
        <pt x="746" y="0" on="1"/>
        <pt x="438" y="0" on="1"/>
        <pt x="337" y="0" on="0"/>
        <pt x="173" y="60" on="0"/>
        <pt x="58" y="164" on="0"/>
        <pt x="-4" y="303" on="0"/>
        <pt x="-4" y="381" on="1"/>
        <pt x="-4" y="989" on="1"/>
        <pt x="-4" y="1067" on="0"/>
        <pt x="58" y="1206" on="0"/>
        <pt x="173" y="1310" on="0"/>
        <pt x="337" y="1370" on="0"/>
        <pt x="438" y="1370" on="1"/>
      </contour>
      <contour>
        <pt x="771" y="569" on="1"/>
        <pt x="694" y="559" on="1"/>
        <pt x="479" y="559" on="1"/>
        <pt x="416" y="569" on="1"/>
        <pt x="402" y="629" on="1"/>
        <pt x="402" y="715" on="1"/>
        <pt x="410" y="772" on="1"/>
        <pt x="479" y="782" on="1"/>
        <pt x="696" y="782" on="1"/>
        <pt x="772" y="774" on="1"/>
        <pt x="772" y="623" on="1"/>
      </contour>
      <contour>
        <pt x="879" y="465" on="1"/>
        <pt x="879" y="682" on="1"/>
        <pt x="879" y="1120" on="1"/>
        <pt x="864" y="1204" on="1"/>
        <pt x="801" y="1268" on="1"/>
        <pt x="701" y="1280" on="1"/>
        <pt x="473" y="1280" on="1"/>
        <pt x="356" y="1266" on="1"/>
        <pt x="381" y="1157" on="1"/>
        <pt x="475" y="1176" on="1"/>
        <pt x="698" y="1176" on="1"/>
        <pt x="758" y="1163" on="1"/>
        <pt x="772" y="1110" on="1"/>
        <pt x="772" y="877" on="1"/>
        <pt x="701" y="889" on="1"/>
        <pt x="473" y="889" on="1"/>
        <pt x="373" y="874" on="1"/>
        <pt x="309" y="811" on="1"/>
        <pt x="295" y="729" on="1"/>
        <pt x="295" y="612" on="1"/>
        <pt x="309" y="528" on="1"/>
        <pt x="373" y="465" on="1"/>
        <pt x="473" y="453" on="1"/>
        <pt x="631" y="453" on="1"/>
        <pt x="560" y="414" on="1"/>
        <pt x="502" y="357" on="1"/>
        <pt x="490" y="281" on="1"/>
        <pt x="502" y="203" on="1"/>
        <pt x="562" y="144" on="1"/>
        <pt x="705" y="131" on="1"/>
        <pt x="705" y="222" on="1"/>
        <pt x="594" y="232" on="1"/>
        <pt x="580" y="291" on="1"/>
        <pt x="590" y="326" on="1"/>
        <pt x="701" y="453" on="1"/>
        <pt x="692" y="453" on="1"/>
      </contour>
    </TTGlyph>
    <TTGlyph name="aring" xMin="-4" yMin="0" xMax="1188" yMax="1948">
      <component glyphName="a" x="0" y="0" flags="0x1204"/>
      <component glyphName="ring" x="254" y="1311" flags="0x1004"/>
    </TTGlyph>
    <TTGlyph name="asciicircum" xMin="-4" yMin="487" xMax="733" yMax="1218">
      <contour>
        <pt x="483" y="487" on="1"/>
        <pt x="443" y="498" on="0"/>
        <pt x="390" y="523" on="0"/>
        <pt x="367" y="545" on="1"/>
        <pt x="339" y="516" on="0"/>
        <pt x="270" y="492" on="0"/>
        <pt x="213" y="487" on="1"/>
        <pt x="172" y="487" on="1"/>
        <pt x="-4" y="534" on="0"/>
        <pt x="-4" y="674" on="1"/>
        <pt x="-4" y="714" on="0"/>
        <pt x="30" y="823" on="0"/>
        <pt x="79" y="943" on="0"/>
        <pt x="134" y="1064" on="0"/>
        <pt x="156" y="1116" on="1"/>
        <pt x="174" y="1139" on="0"/>
        <pt x="206" y="1171" on="0"/>
        <pt x="241" y="1193" on="0"/>
        <pt x="283" y="1210" on="0"/>
        <pt x="311" y="1218" on="1"/>
        <pt x="385" y="1218" on="1"/>
        <pt x="427" y="1214" on="0"/>
        <pt x="486" y="1199" on="0"/>
        <pt x="531" y="1170" on="0"/>
        <pt x="568" y="1122" on="0"/>
        <pt x="588" y="1085" on="1"/>
        <pt x="622" y="1000" on="0"/>
        <pt x="692" y="832" on="0"/>
        <pt x="727" y="747" on="1"/>
        <pt x="733" y="712" on="0"/>
        <pt x="733" y="684" on="1"/>
        <pt x="733" y="505" on="0"/>
        <pt x="524" y="487" on="1"/>
      </contour>
      <contour>
        <pt x="365" y="950" on="1"/>
        <pt x="500" y="684" on="1"/>
        <pt x="541" y="684" on="1"/>
        <pt x="402" y="1022" on="1"/>
        <pt x="328" y="1022" on="1"/>
        <pt x="189" y="684" on="1"/>
        <pt x="229" y="684" on="1"/>
      </contour>
    </TTGlyph>
    <TTGlyph name="asciitilde" xMin="-4" yMin="0" xMax="1188" yMax="1370">
      <contour>
        <pt x="801" y="1063" on="1"/>
        <pt x="801" y="1027" on="0"/>
        <pt x="791" y="988" on="0"/>
        <pt x="776" y="970" on="0"/>
        <pt x="759" y="967" on="0"/>
        <pt x="752" y="967" on="1"/>
        <pt x="749" y="967" on="0"/>
        <pt x="685" y="990" on="0"/>
        <pt x="592" y="1019" on="0"/>
        <pt x="484" y="1042" on="0"/>
        <pt x="436" y="1042" on="1"/>
        <pt x="411" y="1042" on="0"/>
        <pt x="367" y="1031" on="0"/>
        <pt x="334" y="1004" on="0"/>
        <pt x="315" y="960" on="0"/>
        <pt x="315" y="928" on="1"/>
        <pt x="315" y="899" on="0"/>
        <pt x="324" y="862" on="1"/>
        <pt x="414" y="862" on="1"/>
        <pt x="414" y="893" on="0"/>
        <pt x="422" y="929" on="0"/>
        <pt x="435" y="946" on="0"/>
        <pt x="450" y="950" on="0"/>
        <pt x="457" y="950" on="1"/>
        <pt x="476" y="950" on="0"/>
        <pt x="550" y="924" on="0"/>
        <pt x="641" y="892" on="0"/>
        <pt x="738" y="866" on="0"/>
        <pt x="780" y="866" on="1"/>
        <pt x="807" y="866" on="0"/>
        <pt x="850" y="882" on="0"/>
        <pt x="878" y="921" on="0"/>
        <pt x="893" y="984" on="0"/>
        <pt x="893" y="1032" on="1"/>
        <pt x="893" y="1040" on="0"/>
        <pt x="893" y="1054" on="0"/>
        <pt x="891" y="1063" on="1"/>
      </contour>
      <contour>
        <pt x="746" y="1370" on="1"/>
        <pt x="847" y="1370" on="0"/>
        <pt x="1011" y="1310" on="0"/>
        <pt x="1126" y="1206" on="0"/>
        <pt x="1188" y="1067" on="0"/>
        <pt x="1188" y="989" on="1"/>
        <pt x="1188" y="381" on="1"/>
        <pt x="1188" y="303" on="0"/>
        <pt x="1126" y="164" on="0"/>
        <pt x="1011" y="60" on="0"/>
        <pt x="847" y="0" on="0"/>
        <pt x="746" y="0" on="1"/>
        <pt x="438" y="0" on="1"/>
        <pt x="337" y="0" on="0"/>
        <pt x="173" y="60" on="0"/>
        <pt x="58" y="164" on="0"/>
        <pt x="-4" y="303" on="0"/>
        <pt x="-4" y="381" on="1"/>
        <pt x="-4" y="989" on="1"/>
        <pt x="-4" y="1067" on="0"/>
        <pt x="58" y="1206" on="0"/>
        <pt x="173" y="1310" on="0"/>
        <pt x="337" y="1370" on="0"/>
        <pt x="438" y="1370" on="1"/>
      </contour>
    </TTGlyph>
    <TTGlyph name="asterisk" xMin="-4" yMin="0" xMax="881" yMax="1370">
      <contour>
        <pt x="727" y="1096" on="1"/>
        <pt x="574" y="1096" on="1"/>
        <pt x="653" y="1229" on="1"/>
        <pt x="561" y="1282" on="1"/>
        <pt x="479" y="1149" on="1"/>
        <pt x="399" y="1282" on="1"/>
        <pt x="305" y="1229" on="1"/>
        <pt x="383" y="1096" on="1"/>
        <pt x="234" y="1096" on="1"/>
        <pt x="234" y="989" on="1"/>
        <pt x="385" y="989" on="1"/>
        <pt x="305" y="856" on="1"/>
        <pt x="399" y="803" on="1"/>
        <pt x="416" y="832" on="0"/>
        <pt x="461" y="904" on="0"/>
        <pt x="479" y="936" on="1"/>
        <pt x="561" y="803" on="1"/>
        <pt x="653" y="856" on="1"/>
        <pt x="576" y="989" on="1"/>
        <pt x="727" y="989" on="1"/>
      </contour>
      <contour>
        <pt x="438" y="0" on="1"/>
        <pt x="337" y="0" on="0"/>
        <pt x="173" y="60" on="0"/>
        <pt x="58" y="164" on="0"/>
        <pt x="-4" y="303" on="0"/>
        <pt x="-4" y="381" on="1"/>
        <pt x="-4" y="989" on="1"/>
        <pt x="-4" y="1067" on="0"/>
        <pt x="58" y="1206" on="0"/>
        <pt x="173" y="1310" on="0"/>
        <pt x="337" y="1370" on="0"/>
        <pt x="438" y="1370" on="1"/>
        <pt x="540" y="1370" on="0"/>
        <pt x="703" y="1310" on="0"/>
        <pt x="819" y="1206" on="0"/>
        <pt x="881" y="1067" on="0"/>
        <pt x="881" y="989" on="1"/>
        <pt x="881" y="381" on="1"/>
        <pt x="881" y="303" on="0"/>
        <pt x="819" y="164" on="0"/>
        <pt x="703" y="60" on="0"/>
        <pt x="540" y="0" on="0"/>
      </contour>
    </TTGlyph>
    <TTGlyph name="at" xMin="-4" yMin="0" xMax="1188" yMax="1370">
      <contour>
        <pt x="746" y="1370" on="1"/>
        <pt x="847" y="1370" on="0"/>
        <pt x="1011" y="1310" on="0"/>
        <pt x="1126" y="1206" on="0"/>
        <pt x="1188" y="1067" on="0"/>
        <pt x="1188" y="989" on="1"/>
        <pt x="1188" y="381" on="1"/>
        <pt x="1188" y="303" on="0"/>
        <pt x="1126" y="164" on="0"/>
        <pt x="1011" y="60" on="0"/>
        <pt x="847" y="0" on="0"/>
        <pt x="746" y="0" on="1"/>
        <pt x="438" y="0" on="1"/>
        <pt x="337" y="0" on="0"/>
        <pt x="173" y="60" on="0"/>
        <pt x="58" y="164" on="0"/>
        <pt x="-4" y="303" on="0"/>
        <pt x="-4" y="381" on="1"/>
        <pt x="-4" y="989" on="1"/>
        <pt x="-4" y="1067" on="0"/>
        <pt x="58" y="1206" on="0"/>
        <pt x="173" y="1310" on="0"/>
        <pt x="337" y="1370" on="0"/>
        <pt x="438" y="1370" on="1"/>
      </contour>
      <contour>
        <pt x="490" y="764" on="1"/>
        <pt x="590" y="776" on="1"/>
        <pt x="633" y="776" on="1"/>
        <pt x="737" y="766" on="1"/>
        <pt x="737" y="659" on="1"/>
        <pt x="629" y="647" on="1"/>
        <pt x="590" y="647" on="1"/>
        <pt x="498" y="659" on="1"/>
        <pt x="481" y="715" on="1"/>
      </contour>
      <contour>
        <pt x="832" y="915" on="1"/>
        <pt x="815" y="1008" on="1"/>
        <pt x="746" y="1077" on="1"/>
        <pt x="637" y="1090" on="1"/>
        <pt x="555" y="1090" on="1"/>
        <pt x="436" y="1065" on="1"/>
        <pt x="455" y="993" on="1"/>
        <pt x="557" y="1014" on="1"/>
        <pt x="635" y="1014" on="1"/>
        <pt x="721" y="999" on="1"/>
        <pt x="737" y="942" on="1"/>
        <pt x="737" y="848" on="1"/>
        <pt x="637" y="860" on="1"/>
        <pt x="582" y="860" on="1"/>
        <pt x="473" y="846" on="1"/>
        <pt x="404" y="776" on="1"/>
        <pt x="386" y="731" on="1"/>
        <pt x="386" y="696" on="1"/>
        <pt x="404" y="649" on="1"/>
        <pt x="473" y="580" on="1"/>
        <pt x="582" y="567" on="1"/>
        <pt x="637" y="567" on="1"/>
        <pt x="754" y="596" on="1"/>
        <pt x="803" y="496" on="1"/>
        <pt x="993" y="496" on="1"/>
        <pt x="1034" y="565" on="1"/>
        <pt x="1049" y="659" on="1"/>
        <pt x="1048" y="669" on="0"/>
        <pt x="1047" y="699" on="0"/>
        <pt x="1047" y="751" on="0"/>
        <pt x="1047" y="830" on="0"/>
        <pt x="1047" y="889" on="1"/>
        <pt x="1047" y="928" on="0"/>
        <pt x="1039" y="1018" on="0"/>
        <pt x="1013" y="1108" on="0"/>
        <pt x="963" y="1191" on="0"/>
        <pt x="878" y="1256" on="0"/>
        <pt x="753" y="1294" on="0"/>
        <pt x="666" y="1294" on="1"/>
        <pt x="531" y="1294" on="0"/>
        <pt x="355" y="1254" on="0"/>
        <pt x="248" y="1186" on="0"/>
        <pt x="197" y="1097" on="0"/>
        <pt x="188" y="1048" on="1"/>
        <pt x="180" y="1005" on="0"/>
        <pt x="180" y="961" on="1"/>
        <pt x="180" y="951" on="0"/>
        <pt x="180" y="946" on="1"/>
        <pt x="182" y="931" on="0"/>
        <pt x="182" y="847" on="1"/>
        <pt x="182" y="765" on="0"/>
        <pt x="187" y="626" on="0"/>
        <pt x="209" y="513" on="0"/>
        <pt x="253" y="428" on="0"/>
        <pt x="332" y="370" on="0"/>
        <pt x="391" y="355" on="1"/>
        <pt x="655" y="340" on="1"/>
        <pt x="662" y="430" on="1"/>
        <pt x="609" y="427" on="0"/>
        <pt x="566" y="427" on="1"/>
        <pt x="459" y="427" on="0"/>
        <pt x="339" y="465" on="0"/>
        <pt x="281" y="558" on="0"/>
        <pt x="268" y="716" on="0"/>
        <pt x="268" y="836" on="1"/>
        <pt x="268" y="946" on="1"/>
        <pt x="268" y="994" on="0"/>
        <pt x="289" y="1086" on="0"/>
        <pt x="369" y="1159" on="0"/>
        <pt x="528" y="1204" on="0"/>
        <pt x="666" y="1204" on="1"/>
        <pt x="763" y="1204" on="0"/>
        <pt x="879" y="1151" on="0"/>
        <pt x="941" y="1066" on="0"/>
        <pt x="961" y="961" on="0"/>
        <pt x="961" y="909" on="1"/>
        <pt x="961" y="625" on="1"/>
        <pt x="944" y="565" on="1"/>
        <pt x="848" y="565" on="1"/>
        <pt x="832" y="625" on="1"/>
      </contour>
    </TTGlyph>
    <TTGlyph name="atilde" xMin="-4" yMin="0" xMax="1188" yMax="1970">
      <component glyphName="a" x="0" y="0" flags="0x1204"/>
      <component glyphName="tilde" x="203" y="1311" flags="0x1004"/>
    </TTGlyph>
    <TTGlyph name="b" xMin="-4" yMin="0" xMax="1188" yMax="1370">
      <component glyphName="B" x="0" y="0" flags="0x1204"/>
    </TTGlyph>
    <TTGlyph name="backslash" xMin="-4" yMin="0" xMax="1061" yMax="1370">
      <contour>
        <pt x="424" y="1280" on="1"/>
        <pt x="561" y="453" on="1"/>
        <pt x="670" y="453" on="1"/>
        <pt x="533" y="1280" on="1"/>
      </contour>
      <contour>
        <pt x="619" y="1370" on="1"/>
        <pt x="720" y="1370" on="0"/>
        <pt x="884" y="1310" on="0"/>
        <pt x="999" y="1206" on="0"/>
        <pt x="1061" y="1067" on="0"/>
        <pt x="1061" y="989" on="1"/>
        <pt x="1061" y="381" on="1"/>
        <pt x="1061" y="303" on="0"/>
        <pt x="999" y="164" on="0"/>
        <pt x="884" y="60" on="0"/>
        <pt x="720" y="0" on="0"/>
        <pt x="619" y="0" on="1"/>
        <pt x="438" y="0" on="1"/>
        <pt x="337" y="0" on="0"/>
        <pt x="173" y="60" on="0"/>
        <pt x="58" y="164" on="0"/>
        <pt x="-4" y="303" on="0"/>
        <pt x="-4" y="381" on="1"/>
        <pt x="-4" y="989" on="1"/>
        <pt x="-4" y="1067" on="0"/>
        <pt x="58" y="1206" on="0"/>
        <pt x="173" y="1310" on="0"/>
        <pt x="337" y="1370" on="0"/>
        <pt x="438" y="1370" on="1"/>
      </contour>
    </TTGlyph>
    <TTGlyph name="bar" xMin="-4" yMin="0" xMax="997" yMax="1370">
      <contour>
        <pt x="454" y="1370" on="1"/>
        <pt x="454" y="378" on="1"/>
        <pt x="539" y="378" on="1"/>
        <pt x="539" y="1370" on="1"/>
        <pt x="555" y="1370" on="1"/>
        <pt x="656" y="1370" on="0"/>
        <pt x="820" y="1310" on="0"/>
        <pt x="935" y="1206" on="0"/>
        <pt x="997" y="1067" on="0"/>
        <pt x="997" y="989" on="1"/>
        <pt x="997" y="381" on="1"/>
        <pt x="997" y="303" on="0"/>
        <pt x="935" y="164" on="0"/>
        <pt x="820" y="60" on="0"/>
        <pt x="656" y="0" on="0"/>
        <pt x="555" y="0" on="1"/>
        <pt x="438" y="0" on="1"/>
        <pt x="337" y="0" on="0"/>
        <pt x="173" y="60" on="0"/>
        <pt x="58" y="164" on="0"/>
        <pt x="-4" y="303" on="0"/>
        <pt x="-4" y="381" on="1"/>
        <pt x="-4" y="989" on="1"/>
        <pt x="-4" y="1067" on="0"/>
        <pt x="58" y="1206" on="0"/>
        <pt x="173" y="1310" on="0"/>
        <pt x="337" y="1370" on="0"/>
        <pt x="438" y="1370" on="1"/>
      </contour>
    </TTGlyph>
    <TTGlyph name="braceleft" xMin="-4" yMin="0" xMax="997" yMax="1370">
      <contour>
        <pt x="555" y="1370" on="1"/>
        <pt x="656" y="1370" on="0"/>
        <pt x="820" y="1310" on="0"/>
        <pt x="935" y="1206" on="0"/>
        <pt x="997" y="1067" on="0"/>
        <pt x="997" y="989" on="1"/>
        <pt x="997" y="381" on="1"/>
        <pt x="997" y="303" on="0"/>
        <pt x="935" y="164" on="0"/>
        <pt x="820" y="60" on="0"/>
        <pt x="656" y="0" on="0"/>
        <pt x="555" y="0" on="1"/>
        <pt x="438" y="0" on="1"/>
        <pt x="337" y="0" on="0"/>
        <pt x="173" y="60" on="0"/>
        <pt x="58" y="164" on="0"/>
        <pt x="-4" y="303" on="0"/>
        <pt x="-4" y="381" on="1"/>
        <pt x="-4" y="989" on="1"/>
        <pt x="-4" y="1067" on="0"/>
        <pt x="58" y="1206" on="0"/>
        <pt x="173" y="1310" on="0"/>
        <pt x="337" y="1370" on="0"/>
        <pt x="438" y="1370" on="1"/>
      </contour>
      <contour>
        <pt x="361" y="705" on="1"/>
        <pt x="361" y="512" on="1"/>
        <pt x="375" y="426" on="1"/>
        <pt x="440" y="362" on="1"/>
        <pt x="541" y="350" on="1"/>
        <pt x="664" y="350" on="1"/>
        <pt x="664" y="457" on="1"/>
        <pt x="547" y="457" on="1"/>
        <pt x="481" y="467" on="1"/>
        <pt x="467" y="526" on="1"/>
        <pt x="467" y="721" on="1"/>
        <pt x="453" y="805" on="1"/>
        <pt x="430" y="827" on="1"/>
        <pt x="453" y="850" on="1"/>
        <pt x="465" y="936" on="1"/>
        <pt x="465" y="1126" on="1"/>
        <pt x="481" y="1186" on="1"/>
        <pt x="547" y="1196" on="1"/>
        <pt x="664" y="1196" on="1"/>
        <pt x="664" y="1303" on="1"/>
        <pt x="541" y="1303" on="1"/>
        <pt x="440" y="1290" on="1"/>
        <pt x="375" y="1225" on="1"/>
        <pt x="363" y="1141" on="1"/>
        <pt x="363" y="950" on="1"/>
        <pt x="344" y="891" on="1"/>
        <pt x="281" y="881" on="1"/>
        <pt x="164" y="881" on="1"/>
        <pt x="164" y="774" on="1"/>
        <pt x="281" y="774" on="1"/>
        <pt x="346" y="764" on="1"/>
      </contour>
    </TTGlyph>
    <TTGlyph name="braceright" xMin="-4" yMin="0" xMax="997" yMax="1370">
      <contour>
        <pt x="555" y="1370" on="1"/>
        <pt x="656" y="1370" on="0"/>
        <pt x="820" y="1310" on="0"/>
        <pt x="935" y="1206" on="0"/>
        <pt x="997" y="1067" on="0"/>
        <pt x="997" y="989" on="1"/>
        <pt x="997" y="381" on="1"/>
        <pt x="997" y="303" on="0"/>
        <pt x="935" y="164" on="0"/>
        <pt x="820" y="60" on="0"/>
        <pt x="656" y="0" on="0"/>
        <pt x="555" y="0" on="1"/>
        <pt x="438" y="0" on="1"/>
        <pt x="337" y="0" on="0"/>
        <pt x="173" y="60" on="0"/>
        <pt x="58" y="164" on="0"/>
        <pt x="-4" y="303" on="0"/>
        <pt x="-4" y="381" on="1"/>
        <pt x="-4" y="989" on="1"/>
        <pt x="-4" y="1067" on="0"/>
        <pt x="58" y="1206" on="0"/>
        <pt x="173" y="1310" on="0"/>
        <pt x="337" y="1370" on="0"/>
        <pt x="438" y="1370" on="1"/>
      </contour>
      <contour>
        <pt x="647" y="764" on="1"/>
        <pt x="712" y="774" on="1"/>
        <pt x="829" y="774" on="1"/>
        <pt x="829" y="881" on="1"/>
        <pt x="712" y="881" on="1"/>
        <pt x="649" y="891" on="1"/>
        <pt x="630" y="950" on="1"/>
        <pt x="630" y="1141" on="1"/>
        <pt x="618" y="1225" on="1"/>
        <pt x="553" y="1290" on="1"/>
        <pt x="452" y="1303" on="1"/>
        <pt x="329" y="1303" on="1"/>
        <pt x="329" y="1196" on="1"/>
        <pt x="446" y="1196" on="1"/>
        <pt x="512" y="1186" on="1"/>
        <pt x="528" y="1126" on="1"/>
        <pt x="528" y="936" on="1"/>
        <pt x="540" y="850" on="1"/>
        <pt x="563" y="827" on="1"/>
        <pt x="540" y="805" on="1"/>
        <pt x="526" y="721" on="1"/>
        <pt x="526" y="526" on="1"/>
        <pt x="512" y="467" on="1"/>
        <pt x="446" y="457" on="1"/>
        <pt x="329" y="457" on="1"/>
        <pt x="329" y="350" on="1"/>
        <pt x="452" y="350" on="1"/>
        <pt x="553" y="362" on="1"/>
        <pt x="618" y="426" on="1"/>
        <pt x="632" y="512" on="1"/>
        <pt x="632" y="705" on="1"/>
      </contour>
    </TTGlyph>
    <TTGlyph name="bracketleft" xMin="-4" yMin="0" xMax="997" yMax="1370">
      <contour>
        <pt x="591" y="459" on="1"/>
        <pt x="526" y="459" on="1"/>
        <pt x="526" y="1200" on="1"/>
        <pt x="591" y="1200" on="1"/>
        <pt x="591" y="1305" on="1"/>
        <pt x="419" y="1305" on="1"/>
        <pt x="419" y="354" on="1"/>
        <pt x="591" y="354" on="1"/>
      </contour>
      <contour>
        <pt x="555" y="1370" on="1"/>
        <pt x="656" y="1370" on="0"/>
        <pt x="820" y="1310" on="0"/>
        <pt x="935" y="1206" on="0"/>
        <pt x="997" y="1067" on="0"/>
        <pt x="997" y="989" on="1"/>
        <pt x="997" y="381" on="1"/>
        <pt x="997" y="303" on="0"/>
        <pt x="935" y="164" on="0"/>
        <pt x="820" y="60" on="0"/>
        <pt x="656" y="0" on="0"/>
        <pt x="555" y="0" on="1"/>
        <pt x="438" y="0" on="1"/>
        <pt x="337" y="0" on="0"/>
        <pt x="173" y="60" on="0"/>
        <pt x="58" y="164" on="0"/>
        <pt x="-4" y="303" on="0"/>
        <pt x="-4" y="381" on="1"/>
        <pt x="-4" y="989" on="1"/>
        <pt x="-4" y="1067" on="0"/>
        <pt x="58" y="1206" on="0"/>
        <pt x="173" y="1310" on="0"/>
        <pt x="337" y="1370" on="0"/>
        <pt x="438" y="1370" on="1"/>
      </contour>
    </TTGlyph>
    <TTGlyph name="bracketright" xMin="-4" yMin="0" xMax="997" yMax="1370">
      <contour>
        <pt x="402" y="354" on="1"/>
        <pt x="574" y="354" on="1"/>
        <pt x="574" y="1305" on="1"/>
        <pt x="402" y="1305" on="1"/>
        <pt x="402" y="1200" on="1"/>
        <pt x="467" y="1200" on="1"/>
        <pt x="467" y="459" on="1"/>
        <pt x="402" y="459" on="1"/>
      </contour>
      <contour>
        <pt x="555" y="1370" on="1"/>
        <pt x="656" y="1370" on="0"/>
        <pt x="820" y="1310" on="0"/>
        <pt x="935" y="1206" on="0"/>
        <pt x="997" y="1067" on="0"/>
        <pt x="997" y="989" on="1"/>
        <pt x="997" y="381" on="1"/>
        <pt x="997" y="303" on="0"/>
        <pt x="935" y="164" on="0"/>
        <pt x="820" y="60" on="0"/>
        <pt x="656" y="0" on="0"/>
        <pt x="555" y="0" on="1"/>
        <pt x="438" y="0" on="1"/>
        <pt x="337" y="0" on="0"/>
        <pt x="173" y="60" on="0"/>
        <pt x="58" y="164" on="0"/>
        <pt x="-4" y="303" on="0"/>
        <pt x="-4" y="381" on="1"/>
        <pt x="-4" y="989" on="1"/>
        <pt x="-4" y="1067" on="0"/>
        <pt x="58" y="1206" on="0"/>
        <pt x="173" y="1310" on="0"/>
        <pt x="337" y="1370" on="0"/>
        <pt x="438" y="1370" on="1"/>
      </contour>
    </TTGlyph>
    <TTGlyph name="breve" xMin="-4" yMin="0" xMax="881" yMax="598">
      <contour>
        <pt x="170" y="0" on="1"/>
        <pt x="85" y="51" on="0"/>
        <pt x="-4" y="188" on="0"/>
        <pt x="-4" y="279" on="1"/>
        <pt x="-4" y="344" on="0"/>
        <pt x="58" y="460" on="0"/>
        <pt x="173" y="547" on="0"/>
        <pt x="337" y="598" on="0"/>
        <pt x="438" y="598" on="1"/>
        <pt x="540" y="598" on="0"/>
        <pt x="703" y="547" on="0"/>
        <pt x="819" y="460" on="0"/>
        <pt x="881" y="344" on="0"/>
        <pt x="881" y="279" on="1"/>
        <pt x="881" y="188" on="0"/>
        <pt x="791" y="51" on="0"/>
        <pt x="707" y="0" on="1"/>
      </contour>
      <contour>
        <pt x="268" y="199" on="1"/>
        <pt x="326" y="141" on="1"/>
        <pt x="404" y="129" on="1"/>
        <pt x="475" y="129" on="1"/>
        <pt x="553" y="141" on="1"/>
        <pt x="612" y="201" on="1"/>
        <pt x="625" y="299" on="1"/>
        <pt x="535" y="299" on="1"/>
        <pt x="524" y="233" on="1"/>
        <pt x="465" y="219" on="1"/>
        <pt x="412" y="219" on="1"/>
        <pt x="356" y="229" on="1"/>
        <pt x="346" y="299" on="1"/>
        <pt x="256" y="299" on="1"/>
      </contour>
    </TTGlyph>
    <TTGlyph name="brokenbar" xMin="-4" yMin="0" xMax="997" yMax="1370">
      <contour>
        <pt x="553" y="934" on="1"/>
        <pt x="553" y="1280" on="1"/>
        <pt x="446" y="1280" on="1"/>
        <pt x="446" y="934" on="1"/>
      </contour>
      <contour>
        <pt x="553" y="453" on="1"/>
        <pt x="553" y="819" on="1"/>
        <pt x="446" y="819" on="1"/>
        <pt x="446" y="453" on="1"/>
      </contour>
      <contour>
        <pt x="555" y="1370" on="1"/>
        <pt x="656" y="1370" on="0"/>
        <pt x="820" y="1310" on="0"/>
        <pt x="935" y="1206" on="0"/>
        <pt x="997" y="1067" on="0"/>
        <pt x="997" y="989" on="1"/>
        <pt x="997" y="381" on="1"/>
        <pt x="997" y="303" on="0"/>
        <pt x="935" y="164" on="0"/>
        <pt x="820" y="60" on="0"/>
        <pt x="656" y="0" on="0"/>
        <pt x="555" y="0" on="1"/>
        <pt x="438" y="0" on="1"/>
        <pt x="337" y="0" on="0"/>
        <pt x="173" y="60" on="0"/>
        <pt x="58" y="164" on="0"/>
        <pt x="-4" y="303" on="0"/>
        <pt x="-4" y="381" on="1"/>
        <pt x="-4" y="989" on="1"/>
        <pt x="-4" y="1067" on="0"/>
        <pt x="58" y="1206" on="0"/>
        <pt x="173" y="1310" on="0"/>
        <pt x="337" y="1370" on="0"/>
        <pt x="438" y="1370" on="1"/>
      </contour>
    </TTGlyph>
    <TTGlyph name="bullet" xMin="-4" yMin="0" xMax="1188" yMax="1370">
      <contour>
        <pt x="551" y="1188" on="1"/>
        <pt x="500" y="1188" on="0"/>
        <pt x="416" y="1157" on="0"/>
        <pt x="358" y="1105" on="0"/>
        <pt x="326" y="1034" on="0"/>
        <pt x="326" y="995" on="1"/>
        <pt x="326" y="684" on="1"/>
        <pt x="326" y="645" on="0"/>
        <pt x="358" y="575" on="0"/>
        <pt x="416" y="523" on="0"/>
        <pt x="500" y="492" on="0"/>
        <pt x="551" y="492" on="1"/>
        <pt x="707" y="492" on="1"/>
        <pt x="758" y="492" on="0"/>
        <pt x="842" y="523" on="0"/>
        <pt x="900" y="575" on="0"/>
        <pt x="932" y="645" on="0"/>
        <pt x="932" y="684" on="1"/>
        <pt x="932" y="995" on="1"/>
        <pt x="932" y="1034" on="0"/>
        <pt x="900" y="1105" on="0"/>
        <pt x="842" y="1157" on="0"/>
        <pt x="758" y="1188" on="0"/>
        <pt x="707" y="1188" on="1"/>
      </contour>
      <contour>
        <pt x="746" y="1370" on="1"/>
        <pt x="847" y="1370" on="0"/>
        <pt x="1011" y="1310" on="0"/>
        <pt x="1126" y="1206" on="0"/>
        <pt x="1188" y="1067" on="0"/>
        <pt x="1188" y="989" on="1"/>
        <pt x="1188" y="381" on="1"/>
        <pt x="1188" y="303" on="0"/>
        <pt x="1126" y="164" on="0"/>
        <pt x="1011" y="60" on="0"/>
        <pt x="847" y="0" on="0"/>
        <pt x="746" y="0" on="1"/>
        <pt x="438" y="0" on="1"/>
        <pt x="337" y="0" on="0"/>
        <pt x="173" y="60" on="0"/>
        <pt x="58" y="164" on="0"/>
        <pt x="-4" y="303" on="0"/>
        <pt x="-4" y="381" on="1"/>
        <pt x="-4" y="989" on="1"/>
        <pt x="-4" y="1067" on="0"/>
        <pt x="58" y="1206" on="0"/>
        <pt x="173" y="1310" on="0"/>
        <pt x="337" y="1370" on="0"/>
        <pt x="438" y="1370" on="1"/>
      </contour>
    </TTGlyph>
    <TTGlyph name="c" xMin="-4" yMin="0" xMax="1188" yMax="1370">
      <contour>
        <pt x="733" y="1280" on="1"/>
        <pt x="492" y="1280" on="1"/>
        <pt x="389" y="1268" on="1"/>
        <pt x="326" y="1204" on="1"/>
        <pt x="311" y="1120" on="1"/>
        <pt x="311" y="612" on="1"/>
        <pt x="326" y="528" on="1"/>
        <pt x="391" y="465" on="1"/>
        <pt x="492" y="453" on="1"/>
        <pt x="733" y="453" on="1"/>
        <pt x="850" y="467" on="1"/>
        <pt x="825" y="575" on="1"/>
        <pt x="731" y="559" on="1"/>
        <pt x="498" y="559" on="1"/>
        <pt x="432" y="569" on="1"/>
        <pt x="418" y="629" on="1"/>
        <pt x="418" y="1110" on="1"/>
        <pt x="428" y="1165" on="1"/>
        <pt x="498" y="1176" on="1"/>
        <pt x="727" y="1176" on="1"/>
        <pt x="830" y="1159" on="1"/>
        <pt x="850" y="1266" on="1"/>
      </contour>
      <contour>
        <pt x="746" y="1370" on="1"/>
        <pt x="847" y="1370" on="0"/>
        <pt x="1011" y="1310" on="0"/>
        <pt x="1126" y="1206" on="0"/>
        <pt x="1188" y="1067" on="0"/>
        <pt x="1188" y="989" on="1"/>
        <pt x="1188" y="381" on="1"/>
        <pt x="1188" y="303" on="0"/>
        <pt x="1126" y="164" on="0"/>
        <pt x="1011" y="60" on="0"/>
        <pt x="847" y="0" on="0"/>
        <pt x="746" y="0" on="1"/>
        <pt x="438" y="0" on="1"/>
        <pt x="337" y="0" on="0"/>
        <pt x="173" y="60" on="0"/>
        <pt x="58" y="164" on="0"/>
        <pt x="-4" y="303" on="0"/>
        <pt x="-4" y="381" on="1"/>
        <pt x="-4" y="989" on="1"/>
        <pt x="-4" y="1067" on="0"/>
        <pt x="58" y="1206" on="0"/>
        <pt x="173" y="1310" on="0"/>
        <pt x="337" y="1370" on="0"/>
        <pt x="438" y="1370" on="1"/>
      </contour>
    </TTGlyph>
    <TTGlyph name="cacute" xMin="-4" yMin="0" xMax="1188" yMax="1958">
      <component glyphName="c" x="0" y="0" flags="0x1204"/>
      <component glyphName="acute" x="391" y="1270" flags="0x1004"/>
    </TTGlyph>
    <TTGlyph name="caron" xMin="-4" yMin="41" xMax="733" yMax="672">
      <contour>
        <pt x="367" y="612" on="1"/>
        <pt x="398" y="640" on="0"/>
        <pt x="472" y="672" on="0"/>
        <pt x="526" y="672" on="1"/>
        <pt x="581" y="672" on="0"/>
        <pt x="660" y="640" on="0"/>
        <pt x="710" y="586" on="0"/>
        <pt x="733" y="513" on="0"/>
        <pt x="733" y="473" on="1"/>
        <pt x="733" y="432" on="0"/>
        <pt x="710" y="320" on="0"/>
        <pt x="676" y="200" on="0"/>
        <pt x="635" y="84" on="0"/>
        <pt x="617" y="41" on="1"/>
        <pt x="115" y="41" on="1"/>
        <pt x="94" y="99" on="0"/>
        <pt x="51" y="226" on="0"/>
        <pt x="17" y="344" on="0"/>
        <pt x="-4" y="447" on="0"/>
        <pt x="-4" y="483" on="1"/>
        <pt x="-4" y="519" on="0"/>
        <pt x="20" y="586" on="0"/>
        <pt x="76" y="638" on="0"/>
        <pt x="164" y="670" on="0"/>
        <pt x="229" y="670" on="1"/>
        <pt x="279" y="670" on="0"/>
        <pt x="341" y="638" on="0"/>
      </contour>
      <contour>
        <pt x="270" y="494" on="1"/>
        <pt x="189" y="494" on="1"/>
        <pt x="320" y="156" on="1"/>
        <pt x="410" y="156" on="1"/>
        <pt x="541" y="494" on="1"/>
        <pt x="459" y="494" on="1"/>
        <pt x="365" y="201" on="1"/>
      </contour>
    </TTGlyph>
    <TTGlyph name="ccaron" xMin="-4" yMin="0" xMax="1188" yMax="1942">
      <component glyphName="c" x="0" y="0" flags="0x1204"/>
      <component glyphName="caron" x="233" y="1270" flags="0x1004"/>
    </TTGlyph>
    <TTGlyph name="ccedilla" xMin="-4" yMin="0" xMax="1188" yMax="1370">
      <contour>
        <pt x="746" y="1370" on="1"/>
        <pt x="847" y="1370" on="0"/>
        <pt x="1011" y="1310" on="0"/>
        <pt x="1126" y="1206" on="0"/>
        <pt x="1188" y="1067" on="0"/>
        <pt x="1188" y="989" on="1"/>
        <pt x="1188" y="381" on="1"/>
        <pt x="1188" y="303" on="0"/>
        <pt x="1126" y="164" on="0"/>
        <pt x="1011" y="60" on="0"/>
        <pt x="847" y="0" on="0"/>
        <pt x="746" y="0" on="1"/>
        <pt x="438" y="0" on="1"/>
        <pt x="337" y="0" on="0"/>
        <pt x="173" y="60" on="0"/>
        <pt x="58" y="164" on="0"/>
        <pt x="-4" y="303" on="0"/>
        <pt x="-4" y="381" on="1"/>
        <pt x="-4" y="989" on="1"/>
        <pt x="-4" y="1067" on="0"/>
        <pt x="58" y="1206" on="0"/>
        <pt x="173" y="1310" on="0"/>
        <pt x="337" y="1370" on="0"/>
        <pt x="438" y="1370" on="1"/>
      </contour>
      <contour>
        <pt x="733" y="1280" on="1"/>
        <pt x="549" y="1280" on="1"/>
        <pt x="389" y="1268" on="1"/>
        <pt x="326" y="1204" on="1"/>
        <pt x="311" y="1120" on="1"/>
        <pt x="311" y="612" on="1"/>
        <pt x="326" y="528" on="1"/>
        <pt x="391" y="465" on="1"/>
        <pt x="492" y="453" on="1"/>
        <pt x="586" y="453" on="1"/>
        <pt x="586" y="418" on="1"/>
        <pt x="515" y="418" on="1"/>
        <pt x="457" y="357" on="1"/>
        <pt x="445" y="300" on="1"/>
        <pt x="445" y="281" on="1"/>
        <pt x="457" y="203" on="1"/>
        <pt x="517" y="144" on="1"/>
        <pt x="660" y="132" on="1"/>
        <pt x="660" y="222" on="1"/>
        <pt x="549" y="232" on="1"/>
        <pt x="535" y="291" on="1"/>
        <pt x="545" y="326" on="1"/>
        <pt x="656" y="336" on="1"/>
        <pt x="656" y="453" on="1"/>
        <pt x="733" y="453" on="1"/>
        <pt x="850" y="467" on="1"/>
        <pt x="825" y="575" on="1"/>
        <pt x="731" y="559" on="1"/>
        <pt x="498" y="559" on="1"/>
        <pt x="432" y="569" on="1"/>
        <pt x="418" y="629" on="1"/>
        <pt x="418" y="1110" on="1"/>
        <pt x="428" y="1165" on="1"/>
        <pt x="498" y="1176" on="1"/>
        <pt x="727" y="1176" on="1"/>
        <pt x="830" y="1159" on="1"/>
        <pt x="850" y="1266" on="1"/>
      </contour>
    </TTGlyph>
    <TTGlyph name="ccircumflex" xMin="-4" yMin="0" xMax="1188" yMax="2001">
      <component glyphName="c" x="0" y="0" flags="0x1204"/>
      <component glyphName="circumflex" x="254" y="1270" flags="0x1004"/>
    </TTGlyph>
    <TTGlyph name="cdotaccent" xMin="-4" yMin="0" xMax="1188" yMax="1870">
      <component glyphName="c" x="0" y="0" flags="0x1204"/>
      <component glyphName="dotaccent" x="156" y="1272" flags="0x1004"/>
    </TTGlyph>
    <TTGlyph name="cedilla" xMin="-4" yMin="-315" xMax="211" yMax="6">
      <contour>
        <pt x="100" y="-215" on="1"/>
        <pt x="211" y="-225" on="1"/>
        <pt x="211" y="-315" on="1"/>
        <pt x="68" y="-303" on="1"/>
        <pt x="8" y="-244" on="1"/>
        <pt x="-4" y="-166" on="1"/>
        <pt x="-4" y="-147" on="1"/>
        <pt x="8" y="-90" on="1"/>
        <pt x="66" y="-33" on="1"/>
        <pt x="137" y="-33" on="1"/>
        <pt x="137" y="6" on="1"/>
        <pt x="207" y="6" on="1"/>
        <pt x="207" y="-111" on="1"/>
        <pt x="96" y="-121" on="1"/>
        <pt x="86" y="-156" on="1"/>
      </contour>
    </TTGlyph>
    <TTGlyph name="cent" xMin="-4" yMin="0" xMax="1188" yMax="1370">
      <contour>
        <pt x="746" y="1370" on="1"/>
        <pt x="847" y="1370" on="0"/>
        <pt x="1011" y="1310" on="0"/>
        <pt x="1126" y="1206" on="0"/>
        <pt x="1188" y="1067" on="0"/>
        <pt x="1188" y="989" on="1"/>
        <pt x="1188" y="381" on="1"/>
        <pt x="1188" y="303" on="0"/>
        <pt x="1126" y="164" on="0"/>
        <pt x="1011" y="60" on="0"/>
        <pt x="847" y="0" on="0"/>
        <pt x="746" y="0" on="1"/>
        <pt x="438" y="0" on="1"/>
        <pt x="337" y="0" on="0"/>
        <pt x="173" y="60" on="0"/>
        <pt x="58" y="164" on="0"/>
        <pt x="-4" y="303" on="0"/>
        <pt x="-4" y="381" on="1"/>
        <pt x="-4" y="989" on="1"/>
        <pt x="-4" y="1067" on="0"/>
        <pt x="58" y="1206" on="0"/>
        <pt x="173" y="1310" on="0"/>
        <pt x="337" y="1370" on="0"/>
        <pt x="438" y="1370" on="1"/>
      </contour>
      <contour>
        <pt x="660" y="1075" on="1"/>
        <pt x="709" y="1075" on="1"/>
        <pt x="811" y="1059" on="1"/>
        <pt x="832" y="1165" on="1"/>
        <pt x="715" y="1180" on="1"/>
        <pt x="660" y="1180" on="1"/>
        <pt x="660" y="1323" on="1"/>
        <pt x="580" y="1323" on="1"/>
        <pt x="580" y="1180" on="1"/>
        <pt x="543" y="1180" on="1"/>
        <pt x="440" y="1167" on="1"/>
        <pt x="377" y="1104" on="1"/>
        <pt x="363" y="1020" on="1"/>
        <pt x="363" y="649" on="1"/>
        <pt x="377" y="565" on="1"/>
        <pt x="442" y="502" on="1"/>
        <pt x="543" y="489" on="1"/>
        <pt x="580" y="489" on="1"/>
        <pt x="580" y="350" on="1"/>
        <pt x="660" y="350" on="1"/>
        <pt x="660" y="489" on="1"/>
        <pt x="715" y="489" on="1"/>
        <pt x="832" y="504" on="1"/>
        <pt x="807" y="612" on="1"/>
        <pt x="713" y="596" on="1"/>
        <pt x="660" y="596" on="1"/>
      </contour>
      <contour>
        <pt x="549" y="596" on="1"/>
        <pt x="483" y="596" on="1"/>
        <pt x="478" y="621" on="0"/>
        <pt x="474" y="650" on="0"/>
        <pt x="469" y="666" on="1"/>
        <pt x="469" y="1010" on="1"/>
        <pt x="479" y="1065" on="1"/>
        <pt x="549" y="1075" on="1"/>
        <pt x="580" y="1075" on="1"/>
        <pt x="580" y="596" on="1"/>
      </contour>
    </TTGlyph>
    <TTGlyph name="circumflex" xMin="-4" yMin="41" xMax="733" yMax="731">
      <contour>
        <pt x="57" y="41" on="1"/>
        <pt x="26" y="67" on="0"/>
        <pt x="-4" y="144" on="0"/>
        <pt x="-4" y="186" on="1"/>
        <pt x="-4" y="222" on="0"/>
        <pt x="25" y="326" on="0"/>
        <pt x="72" y="445" on="0"/>
        <pt x="129" y="571" on="0"/>
        <pt x="156" y="629" on="1"/>
        <pt x="185" y="680" on="0"/>
        <pt x="285" y="731" on="0"/>
        <pt x="369" y="731" on="1"/>
        <pt x="411" y="731" on="0"/>
        <pt x="477" y="717" on="0"/>
        <pt x="529" y="686" on="0"/>
        <pt x="570" y="635" on="0"/>
        <pt x="588" y="598" on="1"/>
        <pt x="628" y="512" on="0"/>
        <pt x="660" y="436" on="1"/>
        <pt x="673" y="403" on="0"/>
        <pt x="700" y="334" on="0"/>
        <pt x="720" y="271" on="0"/>
        <pt x="733" y="216" on="0"/>
        <pt x="733" y="197" on="1"/>
        <pt x="733" y="95" on="0"/>
        <pt x="664" y="41" on="1"/>
      </contour>
      <contour>
        <pt x="365" y="489" on="1"/>
        <pt x="459" y="197" on="1"/>
        <pt x="541" y="197" on="1"/>
        <pt x="410" y="535" on="1"/>
        <pt x="320" y="535" on="1"/>
        <pt x="189" y="197" on="1"/>
        <pt x="270" y="197" on="1"/>
      </contour>
    </TTGlyph>
    <TTGlyph name="colon" xMin="-4" yMin="0" xMax="881" yMax="1370">
      <contour>
        <pt x="504" y="453" on="1"/>
        <pt x="504" y="582" on="1"/>
        <pt x="373" y="582" on="1"/>
        <pt x="373" y="453" on="1"/>
      </contour>
      <contour>
        <pt x="438" y="0" on="1"/>
        <pt x="337" y="0" on="0"/>
        <pt x="173" y="60" on="0"/>
        <pt x="58" y="164" on="0"/>
        <pt x="-4" y="303" on="0"/>
        <pt x="-4" y="381" on="1"/>
        <pt x="-4" y="989" on="1"/>
        <pt x="-4" y="1067" on="0"/>
        <pt x="58" y="1206" on="0"/>
        <pt x="173" y="1310" on="0"/>
        <pt x="337" y="1370" on="0"/>
        <pt x="438" y="1370" on="1"/>
        <pt x="540" y="1370" on="0"/>
        <pt x="703" y="1310" on="0"/>
        <pt x="819" y="1206" on="0"/>
        <pt x="881" y="1067" on="0"/>
        <pt x="881" y="989" on="1"/>
        <pt x="881" y="381" on="1"/>
        <pt x="881" y="303" on="0"/>
        <pt x="819" y="164" on="0"/>
        <pt x="703" y="60" on="0"/>
        <pt x="540" y="0" on="0"/>
      </contour>
      <contour>
        <pt x="504" y="741" on="1"/>
        <pt x="504" y="870" on="1"/>
        <pt x="373" y="870" on="1"/>
        <pt x="373" y="741" on="1"/>
      </contour>
    </TTGlyph>
    <TTGlyph name="comma" xMin="-4" yMin="0" xMax="881" yMax="1370">
      <contour>
        <pt x="438" y="0" on="1"/>
        <pt x="337" y="0" on="0"/>
        <pt x="173" y="60" on="0"/>
        <pt x="58" y="164" on="0"/>
        <pt x="-4" y="303" on="0"/>
        <pt x="-4" y="381" on="1"/>
        <pt x="-4" y="989" on="1"/>
        <pt x="-4" y="1067" on="0"/>
        <pt x="58" y="1206" on="0"/>
        <pt x="173" y="1310" on="0"/>
        <pt x="337" y="1370" on="0"/>
        <pt x="438" y="1370" on="1"/>
        <pt x="540" y="1370" on="0"/>
        <pt x="703" y="1310" on="0"/>
        <pt x="819" y="1206" on="0"/>
        <pt x="881" y="1067" on="0"/>
        <pt x="881" y="989" on="1"/>
        <pt x="881" y="381" on="1"/>
        <pt x="881" y="303" on="0"/>
        <pt x="819" y="164" on="0"/>
        <pt x="703" y="60" on="0"/>
        <pt x="540" y="0" on="0"/>
      </contour>
      <contour>
        <pt x="463" y="324" on="1"/>
        <pt x="524" y="453" on="1"/>
        <pt x="524" y="582" on="1"/>
        <pt x="373" y="582" on="1"/>
        <pt x="373" y="453" on="1"/>
        <pt x="438" y="453" on="1"/>
        <pt x="399" y="352" on="1"/>
      </contour>
    </TTGlyph>
    <TTGlyph name="copyright" xMin="-4" yMin="0" xMax="1188" yMax="1370">
      <contour>
        <pt x="746" y="1370" on="1"/>
        <pt x="847" y="1370" on="0"/>
        <pt x="1011" y="1310" on="0"/>
        <pt x="1126" y="1206" on="0"/>
        <pt x="1188" y="1067" on="0"/>
        <pt x="1188" y="989" on="1"/>
        <pt x="1188" y="381" on="1"/>
        <pt x="1188" y="303" on="0"/>
        <pt x="1126" y="164" on="0"/>
        <pt x="1011" y="60" on="0"/>
        <pt x="847" y="0" on="0"/>
        <pt x="746" y="0" on="1"/>
        <pt x="438" y="0" on="1"/>
        <pt x="337" y="0" on="0"/>
        <pt x="173" y="60" on="0"/>
        <pt x="58" y="164" on="0"/>
        <pt x="-4" y="303" on="0"/>
        <pt x="-4" y="381" on="1"/>
        <pt x="-4" y="989" on="1"/>
        <pt x="-4" y="1067" on="0"/>
        <pt x="58" y="1206" on="0"/>
        <pt x="173" y="1310" on="0"/>
        <pt x="337" y="1370" on="0"/>
        <pt x="438" y="1370" on="1"/>
      </contour>
      <contour>
        <pt x="211" y="811" on="1"/>
        <pt x="211" y="895" on="0"/>
        <pt x="275" y="1042" on="0"/>
        <pt x="385" y="1153" on="0"/>
        <pt x="533" y="1217" on="0"/>
        <pt x="617" y="1217" on="1"/>
        <pt x="701" y="1217" on="0"/>
        <pt x="848" y="1153" on="0"/>
        <pt x="958" y="1042" on="0"/>
        <pt x="1022" y="895" on="0"/>
        <pt x="1022" y="811" on="1"/>
        <pt x="1022" y="727" on="0"/>
        <pt x="958" y="580" on="0"/>
        <pt x="848" y="470" on="0"/>
        <pt x="701" y="406" on="0"/>
        <pt x="617" y="406" on="1"/>
        <pt x="533" y="406" on="0"/>
        <pt x="385" y="470" on="0"/>
        <pt x="275" y="580" on="0"/>
        <pt x="211" y="727" on="0"/>
      </contour>
      <contour>
        <pt x="143" y="811" on="1"/>
        <pt x="143" y="713" on="0"/>
        <pt x="217" y="540" on="0"/>
        <pt x="346" y="412" on="0"/>
        <pt x="518" y="338" on="0"/>
        <pt x="617" y="338" on="1"/>
        <pt x="715" y="338" on="0"/>
        <pt x="888" y="412" on="0"/>
        <pt x="1016" y="540" on="0"/>
        <pt x="1090" y="713" on="0"/>
        <pt x="1090" y="811" on="1"/>
        <pt x="1090" y="909" on="0"/>
        <pt x="1016" y="1082" on="0"/>
        <pt x="888" y="1210" on="0"/>
        <pt x="715" y="1284" on="0"/>
        <pt x="617" y="1284" on="1"/>
        <pt x="518" y="1284" on="0"/>
        <pt x="346" y="1210" on="0"/>
        <pt x="217" y="1082" on="0"/>
        <pt x="143" y="909" on="0"/>
      </contour>
      <contour>
        <pt x="721" y="1108" on="1"/>
        <pt x="551" y="1108" on="1"/>
        <pt x="479" y="1100" on="1"/>
        <pt x="436" y="1055" on="1"/>
        <pt x="426" y="995" on="1"/>
        <pt x="426" y="641" on="1"/>
        <pt x="436" y="582" on="1"/>
        <pt x="481" y="537" on="1"/>
        <pt x="551" y="528" on="1"/>
        <pt x="721" y="528" on="1"/>
        <pt x="803" y="539" on="1"/>
        <pt x="787" y="614" on="1"/>
        <pt x="719" y="602" on="1"/>
        <pt x="557" y="602" on="1"/>
        <pt x="510" y="610" on="1"/>
        <pt x="500" y="651" on="1"/>
        <pt x="500" y="989" on="1"/>
        <pt x="508" y="1028" on="1"/>
        <pt x="557" y="1034" on="1"/>
        <pt x="717" y="1034" on="1"/>
        <pt x="789" y="1024" on="1"/>
        <pt x="803" y="1098" on="1"/>
      </contour>
    </TTGlyph>
    <TTGlyph name="currency" xMin="-4" yMin="0" xMax="1188" yMax="1370">
      <contour>
        <pt x="873" y="1057" on="1"/>
        <pt x="860" y="1124" on="1"/>
        <pt x="940" y="1210" on="1"/>
        <pt x="877" y="1274" on="1"/>
        <pt x="801" y="1192" on="1"/>
        <pt x="801" y="1194" on="1"/>
        <pt x="705" y="1206" on="1"/>
        <pt x="555" y="1206" on="1"/>
        <pt x="461" y="1194" on="1"/>
        <pt x="387" y="1274" on="1"/>
        <pt x="324" y="1210" on="1"/>
        <pt x="397" y="1128" on="1"/>
        <pt x="389" y="1057" on="1"/>
        <pt x="389" y="819" on="1"/>
        <pt x="399" y="739" on="1"/>
        <pt x="324" y="659" on="1"/>
        <pt x="389" y="594" on="1"/>
        <pt x="467" y="678" on="1"/>
        <pt x="555" y="668" on="1"/>
        <pt x="705" y="668" on="1"/>
        <pt x="795" y="678" on="1"/>
        <pt x="875" y="594" on="1"/>
        <pt x="940" y="659" on="1"/>
        <pt x="858" y="743" on="1"/>
        <pt x="873" y="819" on="1"/>
      </contour>
      <contour>
        <pt x="768" y="770" on="1"/>
        <pt x="707" y="760" on="1"/>
        <pt x="553" y="760" on="1"/>
        <pt x="492" y="770" on="1"/>
        <pt x="477" y="825" on="1"/>
        <pt x="477" y="1055" on="1"/>
        <pt x="488" y="1106" on="1"/>
        <pt x="553" y="1116" on="1"/>
        <pt x="707" y="1116" on="1"/>
        <pt x="772" y="1106" on="1"/>
        <pt x="780" y="1051" on="1"/>
        <pt x="780" y="821" on="1"/>
      </contour>
      <contour>
        <pt x="746" y="1370" on="1"/>
        <pt x="847" y="1370" on="0"/>
        <pt x="1011" y="1310" on="0"/>
        <pt x="1126" y="1206" on="0"/>
        <pt x="1188" y="1067" on="0"/>
        <pt x="1188" y="989" on="1"/>
        <pt x="1188" y="381" on="1"/>
        <pt x="1188" y="303" on="0"/>
        <pt x="1126" y="164" on="0"/>
        <pt x="1011" y="60" on="0"/>
        <pt x="847" y="0" on="0"/>
        <pt x="746" y="0" on="1"/>
        <pt x="438" y="0" on="1"/>
        <pt x="337" y="0" on="0"/>
        <pt x="173" y="60" on="0"/>
        <pt x="58" y="164" on="0"/>
        <pt x="-4" y="303" on="0"/>
        <pt x="-4" y="381" on="1"/>
        <pt x="-4" y="989" on="1"/>
        <pt x="-4" y="1067" on="0"/>
        <pt x="58" y="1206" on="0"/>
        <pt x="173" y="1310" on="0"/>
        <pt x="337" y="1370" on="0"/>
        <pt x="438" y="1370" on="1"/>
      </contour>
    </TTGlyph>
    <TTGlyph name="d" xMin="-4" yMin="0" xMax="1188" yMax="1370">
      <component glyphName="D" x="0" y="0" flags="0x1204"/>
    </TTGlyph>
    <TTGlyph name="dagger" xMin="-4" yMin="0" xMax="1188" yMax="1370">
      <contour>
        <pt x="701" y="453" on="1"/>
        <pt x="701" y="1010" on="1"/>
        <pt x="834" y="1010" on="1"/>
        <pt x="834" y="1116" on="1"/>
        <pt x="701" y="1116" on="1"/>
        <pt x="701" y="1280" on="1"/>
        <pt x="594" y="1280" on="1"/>
        <pt x="594" y="1116" on="1"/>
        <pt x="461" y="1116" on="1"/>
        <pt x="461" y="1010" on="1"/>
        <pt x="594" y="1010" on="1"/>
        <pt x="594" y="453" on="1"/>
      </contour>
      <contour>
        <pt x="746" y="1370" on="1"/>
        <pt x="847" y="1370" on="0"/>
        <pt x="1011" y="1310" on="0"/>
        <pt x="1126" y="1206" on="0"/>
        <pt x="1188" y="1067" on="0"/>
        <pt x="1188" y="989" on="1"/>
        <pt x="1188" y="381" on="1"/>
        <pt x="1188" y="303" on="0"/>
        <pt x="1126" y="164" on="0"/>
        <pt x="1011" y="60" on="0"/>
        <pt x="847" y="0" on="0"/>
        <pt x="746" y="0" on="1"/>
        <pt x="438" y="0" on="1"/>
        <pt x="337" y="0" on="0"/>
        <pt x="173" y="60" on="0"/>
        <pt x="58" y="164" on="0"/>
        <pt x="-4" y="303" on="0"/>
        <pt x="-4" y="381" on="1"/>
        <pt x="-4" y="989" on="1"/>
        <pt x="-4" y="1067" on="0"/>
        <pt x="58" y="1206" on="0"/>
        <pt x="173" y="1310" on="0"/>
        <pt x="337" y="1370" on="0"/>
        <pt x="438" y="1370" on="1"/>
      </contour>
    </TTGlyph>
    <TTGlyph name="daggerdbl" xMin="-4" yMin="0" xMax="1188" yMax="1370">
      <contour>
        <pt x="461" y="702" on="1"/>
        <pt x="461" y="596" on="1"/>
        <pt x="594" y="596" on="1"/>
        <pt x="594" y="453" on="1"/>
        <pt x="701" y="453" on="1"/>
        <pt x="701" y="596" on="1"/>
        <pt x="834" y="596" on="1"/>
        <pt x="834" y="702" on="1"/>
        <pt x="701" y="702" on="1"/>
        <pt x="701" y="1010" on="1"/>
        <pt x="834" y="1010" on="1"/>
        <pt x="834" y="1116" on="1"/>
        <pt x="701" y="1116" on="1"/>
        <pt x="701" y="1280" on="1"/>
        <pt x="594" y="1280" on="1"/>
        <pt x="594" y="1116" on="1"/>
        <pt x="461" y="1116" on="1"/>
        <pt x="461" y="1010" on="1"/>
        <pt x="594" y="1010" on="1"/>
        <pt x="594" y="702" on="1"/>
      </contour>
      <contour>
        <pt x="746" y="1370" on="1"/>
        <pt x="847" y="1370" on="0"/>
        <pt x="1011" y="1310" on="0"/>
        <pt x="1126" y="1206" on="0"/>
        <pt x="1188" y="1067" on="0"/>
        <pt x="1188" y="989" on="1"/>
        <pt x="1188" y="381" on="1"/>
        <pt x="1188" y="303" on="0"/>
        <pt x="1126" y="164" on="0"/>
        <pt x="1011" y="60" on="0"/>
        <pt x="847" y="0" on="0"/>
        <pt x="746" y="0" on="1"/>
        <pt x="438" y="0" on="1"/>
        <pt x="337" y="0" on="0"/>
        <pt x="173" y="60" on="0"/>
        <pt x="58" y="164" on="0"/>
        <pt x="-4" y="303" on="0"/>
        <pt x="-4" y="381" on="1"/>
        <pt x="-4" y="989" on="1"/>
        <pt x="-4" y="1067" on="0"/>
        <pt x="58" y="1206" on="0"/>
        <pt x="173" y="1310" on="0"/>
        <pt x="337" y="1370" on="0"/>
        <pt x="438" y="1370" on="1"/>
      </contour>
    </TTGlyph>
    <TTGlyph name="dcaron" xMin="-4" yMin="0" xMax="1188" yMax="1370">
      <contour>
        <pt x="746" y="1370" on="1"/>
        <pt x="847" y="1370" on="0"/>
        <pt x="1011" y="1310" on="0"/>
        <pt x="1126" y="1206" on="0"/>
        <pt x="1188" y="1067" on="0"/>
        <pt x="1188" y="989" on="1"/>
        <pt x="1188" y="381" on="1"/>
        <pt x="1188" y="303" on="0"/>
        <pt x="1126" y="164" on="0"/>
        <pt x="1011" y="60" on="0"/>
        <pt x="847" y="0" on="0"/>
        <pt x="746" y="0" on="1"/>
        <pt x="438" y="0" on="1"/>
        <pt x="337" y="0" on="0"/>
        <pt x="173" y="60" on="0"/>
        <pt x="58" y="164" on="0"/>
        <pt x="-4" y="303" on="0"/>
        <pt x="-4" y="381" on="1"/>
        <pt x="-4" y="989" on="1"/>
        <pt x="-4" y="1067" on="0"/>
        <pt x="58" y="1206" on="0"/>
        <pt x="173" y="1310" on="0"/>
        <pt x="337" y="1370" on="0"/>
        <pt x="438" y="1370" on="1"/>
      </contour>
      <contour>
        <pt x="827" y="1118" on="1"/>
        <pt x="813" y="1202" on="1"/>
        <pt x="750" y="1266" on="1"/>
        <pt x="647" y="1280" on="1"/>
        <pt x="246" y="1280" on="1"/>
        <pt x="246" y="453" on="1"/>
        <pt x="647" y="453" on="1"/>
        <pt x="750" y="465" on="1"/>
        <pt x="813" y="528" on="1"/>
        <pt x="827" y="614" on="1"/>
      </contour>
      <contour>
        <pt x="707" y="569" on="1"/>
        <pt x="641" y="559" on="1"/>
        <pt x="350" y="559" on="1"/>
        <pt x="350" y="1174" on="1"/>
        <pt x="641" y="1174" on="1"/>
        <pt x="711" y="1163" on="1"/>
        <pt x="721" y="1104" on="1"/>
        <pt x="721" y="625" on="1"/>
      </contour>
      <contour>
        <pt x="940" y="1022" on="1"/>
        <pt x="1002" y="1151" on="1"/>
        <pt x="1002" y="1280" on="1"/>
        <pt x="850" y="1280" on="1"/>
        <pt x="850" y="1151" on="1"/>
        <pt x="916" y="1151" on="1"/>
        <pt x="877" y="1051" on="1"/>
      </contour>
    </TTGlyph>
    <TTGlyph name="dcroat" xMin="-4" yMin="0" xMax="1188" yMax="1370">
      <component glyphName="Dcroat" x="0" y="0" flags="0x1204"/>
    </TTGlyph>
    <TTGlyph name="degree" xMin="-4" yMin="0" xMax="881" yMax="1370">
      <contour>
        <pt x="438" y="0" on="1"/>
        <pt x="337" y="0" on="0"/>
        <pt x="173" y="60" on="0"/>
        <pt x="58" y="164" on="0"/>
        <pt x="-4" y="303" on="0"/>
        <pt x="-4" y="381" on="1"/>
        <pt x="-4" y="989" on="1"/>
        <pt x="-4" y="1067" on="0"/>
        <pt x="58" y="1206" on="0"/>
        <pt x="173" y="1310" on="0"/>
        <pt x="337" y="1370" on="0"/>
        <pt x="438" y="1370" on="1"/>
        <pt x="540" y="1370" on="0"/>
        <pt x="703" y="1310" on="0"/>
        <pt x="819" y="1206" on="0"/>
        <pt x="881" y="1067" on="0"/>
        <pt x="881" y="989" on="1"/>
        <pt x="881" y="381" on="1"/>
        <pt x="881" y="303" on="0"/>
        <pt x="819" y="164" on="0"/>
        <pt x="703" y="60" on="0"/>
        <pt x="540" y="0" on="0"/>
      </contour>
      <contour>
        <pt x="404" y="1266" on="1"/>
        <pt x="326" y="1251" on="1"/>
        <pt x="268" y="1194" on="1"/>
        <pt x="256" y="1100" on="1"/>
        <pt x="268" y="995" on="1"/>
        <pt x="326" y="938" on="1"/>
        <pt x="404" y="926" on="1"/>
        <pt x="475" y="926" on="1"/>
        <pt x="553" y="938" on="1"/>
        <pt x="612" y="997" on="1"/>
        <pt x="623" y="1090" on="1"/>
        <pt x="612" y="1194" on="1"/>
        <pt x="553" y="1251" on="1"/>
        <pt x="475" y="1266" on="1"/>
      </contour>
      <contour>
        <pt x="524" y="1161" on="1"/>
        <pt x="535" y="1096" on="1"/>
        <pt x="524" y="1030" on="1"/>
        <pt x="465" y="1016" on="1"/>
        <pt x="412" y="1016" on="1"/>
        <pt x="356" y="1026" on="1"/>
        <pt x="346" y="1096" on="1"/>
        <pt x="356" y="1165" on="1"/>
        <pt x="416" y="1176" on="1"/>
        <pt x="469" y="1176" on="1"/>
      </contour>
    </TTGlyph>
    <TTGlyph name="dieresis" xMin="-4" yMin="41" xMax="799" yMax="590">
      <contour>
        <pt x="586" y="207" on="1"/>
        <pt x="586" y="336" on="1"/>
        <pt x="455" y="336" on="1"/>
        <pt x="455" y="207" on="1"/>
      </contour>
      <contour>
        <pt x="129" y="41" on="1"/>
        <pt x="63" y="84" on="0"/>
        <pt x="-4" y="213" on="0"/>
        <pt x="-4" y="291" on="1"/>
        <pt x="-4" y="351" on="0"/>
        <pt x="52" y="459" on="0"/>
        <pt x="157" y="542" on="0"/>
        <pt x="305" y="590" on="0"/>
        <pt x="397" y="590" on="1"/>
        <pt x="489" y="590" on="0"/>
        <pt x="638" y="542" on="0"/>
        <pt x="743" y="459" on="0"/>
        <pt x="799" y="351" on="0"/>
        <pt x="799" y="291" on="1"/>
        <pt x="799" y="212" on="0"/>
        <pt x="730" y="84" on="0"/>
        <pt x="664" y="41" on="1"/>
      </contour>
      <contour>
        <pt x="324" y="207" on="1"/>
        <pt x="324" y="336" on="1"/>
        <pt x="193" y="336" on="1"/>
        <pt x="193" y="207" on="1"/>
      </contour>
    </TTGlyph>
    <TTGlyph name="divide" xMin="-4" yMin="0" xMax="881" yMax="1370">
      <contour>
        <pt x="504" y="739" on="1"/>
        <pt x="504" y="868" on="1"/>
        <pt x="373" y="868" on="1"/>
        <pt x="373" y="739" on="1"/>
      </contour>
      <contour>
        <pt x="504" y="1069" on="1"/>
        <pt x="504" y="1198" on="1"/>
        <pt x="373" y="1198" on="1"/>
        <pt x="373" y="1069" on="1"/>
      </contour>
      <contour>
        <pt x="627" y="918" on="1"/>
        <pt x="627" y="1026" on="1"/>
        <pt x="250" y="1026" on="1"/>
        <pt x="250" y="918" on="1"/>
      </contour>
      <contour>
        <pt x="438" y="0" on="1"/>
        <pt x="337" y="0" on="0"/>
        <pt x="173" y="60" on="0"/>
        <pt x="58" y="164" on="0"/>
        <pt x="-4" y="303" on="0"/>
        <pt x="-4" y="381" on="1"/>
        <pt x="-4" y="989" on="1"/>
        <pt x="-4" y="1067" on="0"/>
        <pt x="58" y="1206" on="0"/>
        <pt x="173" y="1310" on="0"/>
        <pt x="337" y="1370" on="0"/>
        <pt x="438" y="1370" on="1"/>
        <pt x="540" y="1370" on="0"/>
        <pt x="703" y="1310" on="0"/>
        <pt x="819" y="1206" on="0"/>
        <pt x="881" y="1067" on="0"/>
        <pt x="881" y="989" on="1"/>
        <pt x="881" y="381" on="1"/>
        <pt x="881" y="303" on="0"/>
        <pt x="819" y="164" on="0"/>
        <pt x="703" y="60" on="0"/>
        <pt x="540" y="0" on="0"/>
      </contour>
    </TTGlyph>
    <TTGlyph name="dollar" xMin="-4" yMin="0" xMax="1188" yMax="1370">
      <contour>
        <pt x="498" y="559" on="1"/>
        <pt x="436" y="569" on="1"/>
        <pt x="420" y="647" on="1"/>
        <pt x="311" y="637" on="1"/>
        <pt x="330" y="528" on="1"/>
        <pt x="393" y="465" on="1"/>
        <pt x="496" y="453" on="1"/>
        <pt x="565" y="453" on="1"/>
        <pt x="565" y="334" on="1"/>
        <pt x="647" y="334" on="1"/>
        <pt x="647" y="453" on="1"/>
        <pt x="705" y="453" on="1"/>
        <pt x="807" y="465" on="1"/>
        <pt x="870" y="528" on="1"/>
        <pt x="885" y="614" on="1"/>
        <pt x="885" y="717" on="1"/>
        <pt x="870" y="803" on="1"/>
        <pt x="807" y="866" on="1"/>
        <pt x="703" y="877" on="1"/>
        <pt x="647" y="877" on="1"/>
        <pt x="647" y="1092" on="1"/>
        <pt x="709" y="1092" on="1"/>
        <pt x="770" y="1079" on="1"/>
        <pt x="789" y="1004" on="1"/>
        <pt x="893" y="1014" on="1"/>
        <pt x="877" y="1120" on="1"/>
        <pt x="811" y="1184" on="1"/>
        <pt x="711" y="1198" on="1"/>
        <pt x="647" y="1198" on="1"/>
        <pt x="647" y="1280" on="1"/>
        <pt x="565" y="1280" on="1"/>
        <pt x="565" y="1198" on="1"/>
        <pt x="494" y="1198" on="1"/>
        <pt x="393" y="1184" on="1"/>
        <pt x="328" y="1120" on="1"/>
        <pt x="315" y="1036" on="1"/>
        <pt x="315" y="932" on="1"/>
        <pt x="328" y="848" on="1"/>
        <pt x="393" y="784" on="1"/>
        <pt x="494" y="772" on="1"/>
        <pt x="565" y="772" on="1"/>
        <pt x="565" y="559" on="1"/>
      </contour>
      <contour>
        <pt x="496" y="877" on="1"/>
        <pt x="434" y="889" on="1"/>
        <pt x="429" y="906" on="0"/>
        <pt x="425" y="933" on="0"/>
        <pt x="420" y="948" on="1"/>
        <pt x="420" y="1020" on="1"/>
        <pt x="434" y="1079" on="1"/>
        <pt x="500" y="1092" on="1"/>
        <pt x="565" y="1092" on="1"/>
        <pt x="565" y="877" on="1"/>
      </contour>
      <contour>
        <pt x="647" y="772" on="1"/>
        <pt x="703" y="772" on="1"/>
        <pt x="764" y="762" on="1"/>
        <pt x="767" y="746" on="0"/>
        <pt x="775" y="721" on="0"/>
        <pt x="778" y="707" on="1"/>
        <pt x="778" y="625" on="1"/>
        <pt x="776" y="612" on="0"/>
        <pt x="767" y="582" on="0"/>
        <pt x="764" y="569" on="1"/>
        <pt x="698" y="559" on="1"/>
        <pt x="647" y="559" on="1"/>
      </contour>
      <contour>
        <pt x="746" y="1370" on="1"/>
        <pt x="847" y="1370" on="0"/>
        <pt x="1011" y="1310" on="0"/>
        <pt x="1126" y="1206" on="0"/>
        <pt x="1188" y="1067" on="0"/>
        <pt x="1188" y="989" on="1"/>
        <pt x="1188" y="381" on="1"/>
        <pt x="1188" y="303" on="0"/>
        <pt x="1126" y="164" on="0"/>
        <pt x="1011" y="60" on="0"/>
        <pt x="847" y="0" on="0"/>
        <pt x="746" y="0" on="1"/>
        <pt x="438" y="0" on="1"/>
        <pt x="337" y="0" on="0"/>
        <pt x="173" y="60" on="0"/>
        <pt x="58" y="164" on="0"/>
        <pt x="-4" y="303" on="0"/>
        <pt x="-4" y="381" on="1"/>
        <pt x="-4" y="989" on="1"/>
        <pt x="-4" y="1067" on="0"/>
        <pt x="58" y="1206" on="0"/>
        <pt x="173" y="1310" on="0"/>
        <pt x="337" y="1370" on="0"/>
        <pt x="438" y="1370" on="1"/>
      </contour>
    </TTGlyph>
    <TTGlyph name="dotaccent" xMin="-4" yMin="18" xMax="881" yMax="598">
      <contour>
        <pt x="500" y="190" on="1"/>
        <pt x="500" y="319" on="1"/>
        <pt x="369" y="319" on="1"/>
        <pt x="369" y="190" on="1"/>
      </contour>
      <contour>
        <pt x="92" y="18" on="1"/>
        <pt x="69" y="40" on="0"/>
        <pt x="33" y="103" on="0"/>
        <pt x="9" y="173" on="0"/>
        <pt x="-4" y="246" on="0"/>
        <pt x="-4" y="279" on="1"/>
        <pt x="-4" y="344" on="0"/>
        <pt x="58" y="460" on="0"/>
        <pt x="173" y="547" on="0"/>
        <pt x="337" y="598" on="0"/>
        <pt x="438" y="598" on="1"/>
        <pt x="540" y="598" on="0"/>
        <pt x="703" y="547" on="0"/>
        <pt x="819" y="460" on="0"/>
        <pt x="881" y="344" on="0"/>
        <pt x="881" y="279" on="1"/>
        <pt x="881" y="201" on="0"/>
        <pt x="833" y="72" on="0"/>
        <pt x="787" y="18" on="1"/>
      </contour>
    </TTGlyph>
    <TTGlyph name="dotlessi" xMin="-4" yMin="0" xMax="1188" yMax="1370">
      <contour>
        <pt x="358" y="559" on="1"/>
        <pt x="358" y="453" on="1"/>
        <pt x="936" y="453" on="1"/>
        <pt x="936" y="559" on="1"/>
        <pt x="701" y="559" on="1"/>
        <pt x="701" y="1174" on="1"/>
        <pt x="936" y="1174" on="1"/>
        <pt x="936" y="1280" on="1"/>
        <pt x="358" y="1280" on="1"/>
        <pt x="358" y="1174" on="1"/>
        <pt x="594" y="1174" on="1"/>
        <pt x="594" y="559" on="1"/>
      </contour>
      <contour>
        <pt x="746" y="1370" on="1"/>
        <pt x="847" y="1370" on="0"/>
        <pt x="1011" y="1310" on="0"/>
        <pt x="1126" y="1206" on="0"/>
        <pt x="1188" y="1067" on="0"/>
        <pt x="1188" y="989" on="1"/>
        <pt x="1188" y="381" on="1"/>
        <pt x="1188" y="303" on="0"/>
        <pt x="1126" y="164" on="0"/>
        <pt x="1011" y="60" on="0"/>
        <pt x="847" y="0" on="0"/>
        <pt x="746" y="0" on="1"/>
        <pt x="438" y="0" on="1"/>
        <pt x="337" y="0" on="0"/>
        <pt x="173" y="60" on="0"/>
        <pt x="58" y="164" on="0"/>
        <pt x="-4" y="303" on="0"/>
        <pt x="-4" y="381" on="1"/>
        <pt x="-4" y="989" on="1"/>
        <pt x="-4" y="1067" on="0"/>
        <pt x="58" y="1206" on="0"/>
        <pt x="173" y="1310" on="0"/>
        <pt x="337" y="1370" on="0"/>
        <pt x="438" y="1370" on="1"/>
      </contour>
    </TTGlyph>
    <TTGlyph name="e" xMin="-4" yMin="0" xMax="1188" yMax="1370">
      <contour>
        <pt x="746" y="1370" on="1"/>
        <pt x="847" y="1370" on="0"/>
        <pt x="1011" y="1310" on="0"/>
        <pt x="1126" y="1206" on="0"/>
        <pt x="1188" y="1067" on="0"/>
        <pt x="1188" y="989" on="1"/>
        <pt x="1188" y="381" on="1"/>
        <pt x="1188" y="303" on="0"/>
        <pt x="1126" y="164" on="0"/>
        <pt x="1011" y="60" on="0"/>
        <pt x="847" y="0" on="0"/>
        <pt x="746" y="0" on="1"/>
        <pt x="438" y="0" on="1"/>
        <pt x="337" y="0" on="0"/>
        <pt x="173" y="60" on="0"/>
        <pt x="58" y="164" on="0"/>
        <pt x="-4" y="303" on="0"/>
        <pt x="-4" y="381" on="1"/>
        <pt x="-4" y="989" on="1"/>
        <pt x="-4" y="1067" on="0"/>
        <pt x="58" y="1206" on="0"/>
        <pt x="173" y="1310" on="0"/>
        <pt x="337" y="1370" on="0"/>
        <pt x="438" y="1370" on="1"/>
      </contour>
      <contour>
        <pt x="877" y="1120" on="1"/>
        <pt x="862" y="1204" on="1"/>
        <pt x="799" y="1268" on="1"/>
        <pt x="698" y="1280" on="1"/>
        <pt x="481" y="1280" on="1"/>
        <pt x="381" y="1268" on="1"/>
        <pt x="318" y="1204" on="1"/>
        <pt x="303" y="1120" on="1"/>
        <pt x="303" y="645" on="1"/>
        <pt x="318" y="561" on="1"/>
        <pt x="381" y="498" on="1"/>
        <pt x="481" y="485" on="1"/>
        <pt x="733" y="485" on="1"/>
        <pt x="850" y="500" on="1"/>
        <pt x="825" y="608" on="1"/>
        <pt x="731" y="592" on="1"/>
        <pt x="488" y="592" on="1"/>
        <pt x="424" y="602" on="1"/>
        <pt x="410" y="662" on="1"/>
        <pt x="410" y="868" on="1"/>
        <pt x="877" y="868" on="1"/>
      </contour>
      <contour>
        <pt x="410" y="973" on="1"/>
        <pt x="410" y="1108" on="1"/>
        <pt x="418" y="1165" on="1"/>
        <pt x="488" y="1176" on="1"/>
        <pt x="692" y="1176" on="1"/>
        <pt x="760" y="1165" on="1"/>
        <pt x="770" y="1106" on="1"/>
        <pt x="770" y="973" on="1"/>
      </contour>
    </TTGlyph>
    <TTGlyph name="eacute" xMin="-4" yMin="0" xMax="1188" yMax="1983">
      <component glyphName="e" x="0" y="0" flags="0x1204"/>
      <component glyphName="acute" x="362" y="1295" flags="0x1004"/>
    </TTGlyph>
    <TTGlyph name="ebreve" xMin="-4" yMin="0" xMax="1188" yMax="1898">
      <component glyphName="e" x="0" y="0" flags="0x1204"/>
      <component glyphName="breve" x="154" y="1300" flags="0x1004"/>
    </TTGlyph>
    <TTGlyph name="ecaron" xMin="-4" yMin="0" xMax="1188" yMax="1948">
      <component glyphName="e" x="0" y="0" flags="0x1204"/>
      <component glyphName="caron" x="227" y="1276" flags="0x1004"/>
    </TTGlyph>
    <TTGlyph name="ecircumflex" xMin="-4" yMin="0" xMax="1188" yMax="1999">
      <component glyphName="e" x="0" y="0" flags="0x1204"/>
      <component glyphName="circumflex" x="229" y="1268" flags="0x1004"/>
    </TTGlyph>
    <TTGlyph name="edieresis" xMin="-4" yMin="0" xMax="1188" yMax="1868">
      <component glyphName="e" x="0" y="0" flags="0x1204"/>
      <component glyphName="dieresis" x="189" y="1278" flags="0x1004"/>
    </TTGlyph>
    <TTGlyph name="edotaccent" xMin="-4" yMin="0" xMax="1188" yMax="1898">
      <component glyphName="e" x="0" y="0" flags="0x1204"/>
      <component glyphName="dotaccent" x="154" y="1300" flags="0x1004"/>
    </TTGlyph>
    <TTGlyph name="egrave" xMin="-4" yMin="0" xMax="1188" yMax="1980">
      <component glyphName="e" x="0" y="0" flags="0x1204"/>
      <component glyphName="grave" x="204" y="1292" flags="0x1004"/>
    </TTGlyph>
    <TTGlyph name="eight" xMin="-4" yMin="0" xMax="1188" yMax="1370">
      <contour>
        <pt x="746" y="1370" on="1"/>
        <pt x="847" y="1370" on="0"/>
        <pt x="1011" y="1310" on="0"/>
        <pt x="1126" y="1206" on="0"/>
        <pt x="1188" y="1067" on="0"/>
        <pt x="1188" y="989" on="1"/>
        <pt x="1188" y="381" on="1"/>
        <pt x="1188" y="303" on="0"/>
        <pt x="1126" y="164" on="0"/>
        <pt x="1011" y="60" on="0"/>
        <pt x="847" y="0" on="0"/>
        <pt x="746" y="0" on="1"/>
        <pt x="438" y="0" on="1"/>
        <pt x="337" y="0" on="0"/>
        <pt x="173" y="60" on="0"/>
        <pt x="58" y="164" on="0"/>
        <pt x="-4" y="303" on="0"/>
        <pt x="-4" y="381" on="1"/>
        <pt x="-4" y="989" on="1"/>
        <pt x="-4" y="1067" on="0"/>
        <pt x="58" y="1206" on="0"/>
        <pt x="173" y="1310" on="0"/>
        <pt x="337" y="1370" on="0"/>
        <pt x="438" y="1370" on="1"/>
      </contour>
      <contour>
        <pt x="762" y="1280" on="1"/>
        <pt x="494" y="1280" on="1"/>
        <pt x="391" y="1266" on="1"/>
        <pt x="328" y="1202" on="1"/>
        <pt x="313" y="1118" on="1"/>
        <pt x="313" y="981" on="1"/>
        <pt x="328" y="897" on="1"/>
        <pt x="352" y="874" on="1"/>
        <pt x="328" y="850" on="1"/>
        <pt x="313" y="766" on="1"/>
        <pt x="313" y="614" on="1"/>
        <pt x="328" y="528" on="1"/>
        <pt x="393" y="465" on="1"/>
        <pt x="494" y="453" on="1"/>
        <pt x="762" y="453" on="1"/>
        <pt x="862" y="465" on="1"/>
        <pt x="928" y="528" on="1"/>
        <pt x="942" y="614" on="1"/>
        <pt x="942" y="766" on="1"/>
        <pt x="928" y="850" on="1"/>
        <pt x="903" y="874" on="1"/>
        <pt x="928" y="897" on="1"/>
        <pt x="942" y="981" on="1"/>
        <pt x="942" y="1118" on="1"/>
        <pt x="928" y="1202" on="1"/>
        <pt x="864" y="1266" on="1"/>
      </contour>
      <contour>
        <pt x="756" y="559" on="1"/>
        <pt x="500" y="559" on="1"/>
        <pt x="434" y="569" on="1"/>
        <pt x="420" y="629" on="1"/>
        <pt x="420" y="756" on="1"/>
        <pt x="430" y="811" on="1"/>
        <pt x="500" y="821" on="1"/>
        <pt x="756" y="821" on="1"/>
        <pt x="825" y="811" on="1"/>
        <pt x="836" y="756" on="1"/>
        <pt x="836" y="629" on="1"/>
        <pt x="821" y="569" on="1"/>
      </contour>
      <contour>
        <pt x="756" y="928" on="1"/>
        <pt x="500" y="928" on="1"/>
        <pt x="434" y="938" on="1"/>
        <pt x="420" y="997" on="1"/>
        <pt x="420" y="1108" on="1"/>
        <pt x="430" y="1163" on="1"/>
        <pt x="500" y="1174" on="1"/>
        <pt x="756" y="1174" on="1"/>
        <pt x="825" y="1163" on="1"/>
        <pt x="836" y="1108" on="1"/>
        <pt x="836" y="997" on="1"/>
        <pt x="821" y="938" on="1"/>
      </contour>
    </TTGlyph>
    <TTGlyph name="ellipsis" xMin="-4" yMin="0" xMax="1188" yMax="1370">
      <contour>
        <pt x="647" y="453" on="1"/>
        <pt x="647" y="582" on="1"/>
        <pt x="516" y="582" on="1"/>
        <pt x="516" y="453" on="1"/>
      </contour>
      <contour>
        <pt x="393" y="453" on="1"/>
        <pt x="393" y="582" on="1"/>
        <pt x="262" y="582" on="1"/>
        <pt x="262" y="453" on="1"/>
      </contour>
      <contour>
        <pt x="893" y="453" on="1"/>
        <pt x="893" y="582" on="1"/>
        <pt x="762" y="582" on="1"/>
        <pt x="762" y="453" on="1"/>
      </contour>
      <contour>
        <pt x="746" y="1370" on="1"/>
        <pt x="847" y="1370" on="0"/>
        <pt x="1011" y="1310" on="0"/>
        <pt x="1126" y="1206" on="0"/>
        <pt x="1188" y="1067" on="0"/>
        <pt x="1188" y="989" on="1"/>
        <pt x="1188" y="381" on="1"/>
        <pt x="1188" y="303" on="0"/>
        <pt x="1126" y="164" on="0"/>
        <pt x="1011" y="60" on="0"/>
        <pt x="847" y="0" on="0"/>
        <pt x="746" y="0" on="1"/>
        <pt x="438" y="0" on="1"/>
        <pt x="337" y="0" on="0"/>
        <pt x="173" y="60" on="0"/>
        <pt x="58" y="164" on="0"/>
        <pt x="-4" y="303" on="0"/>
        <pt x="-4" y="381" on="1"/>
        <pt x="-4" y="989" on="1"/>
        <pt x="-4" y="1067" on="0"/>
        <pt x="58" y="1206" on="0"/>
        <pt x="173" y="1310" on="0"/>
        <pt x="337" y="1370" on="0"/>
        <pt x="438" y="1370" on="1"/>
      </contour>
    </TTGlyph>
    <TTGlyph name="emacron" xMin="-4" yMin="0" xMax="1188" yMax="1853">
      <component glyphName="e" x="0" y="0" flags="0x1204"/>
      <component glyphName="macron" x="154" y="1255" flags="0x1004"/>
    </TTGlyph>
    <TTGlyph name="emdash" xMin="-4" yMin="0" xMax="881" yMax="1370">
      <contour>
        <pt x="438" y="0" on="1"/>
        <pt x="337" y="0" on="0"/>
        <pt x="173" y="60" on="0"/>
        <pt x="58" y="164" on="0"/>
        <pt x="-4" y="303" on="0"/>
        <pt x="-4" y="381" on="1"/>
        <pt x="-4" y="918" on="1"/>
        <pt x="881" y="918" on="1"/>
        <pt x="881" y="381" on="1"/>
        <pt x="881" y="303" on="0"/>
        <pt x="819" y="164" on="0"/>
        <pt x="703" y="60" on="0"/>
        <pt x="540" y="0" on="0"/>
      </contour>
      <contour>
        <pt x="438" y="1370" on="1"/>
        <pt x="533" y="1370" on="0"/>
        <pt x="689" y="1316" on="0"/>
        <pt x="803" y="1223" on="0"/>
        <pt x="871" y="1098" on="0"/>
        <pt x="879" y="1026" on="1"/>
        <pt x="-2" y="1026" on="1"/>
        <pt x="5" y="1098" on="0"/>
        <pt x="73" y="1223" on="0"/>
        <pt x="186" y="1316" on="0"/>
        <pt x="342" y="1370" on="0"/>
      </contour>
    </TTGlyph>
    <TTGlyph name="endash" xMin="-4" yMin="0" xMax="881" yMax="1370">
      <component glyphName="hyphen" x="0" y="0" flags="0x1204"/>
    </TTGlyph>
    <TTGlyph name="eng" xMin="-4" yMin="0" xMax="1188" yMax="1370">
      <component glyphName="Eng" x="0" y="0" flags="0x1204"/>
    </TTGlyph>
    <TTGlyph name="eogonek" xMin="-4" yMin="0" xMax="1188" yMax="1370">
      <contour>
        <pt x="410" y="973" on="1"/>
        <pt x="410" y="1108" on="1"/>
        <pt x="418" y="1165" on="1"/>
        <pt x="488" y="1176" on="1"/>
        <pt x="692" y="1176" on="1"/>
        <pt x="760" y="1165" on="1"/>
        <pt x="770" y="1106" on="1"/>
        <pt x="770" y="973" on="1"/>
      </contour>
      <contour>
        <pt x="877" y="1120" on="1"/>
        <pt x="862" y="1204" on="1"/>
        <pt x="799" y="1268" on="1"/>
        <pt x="698" y="1280" on="1"/>
        <pt x="481" y="1280" on="1"/>
        <pt x="381" y="1268" on="1"/>
        <pt x="318" y="1204" on="1"/>
        <pt x="303" y="1120" on="1"/>
        <pt x="303" y="645" on="1"/>
        <pt x="318" y="561" on="1"/>
        <pt x="381" y="498" on="1"/>
        <pt x="481" y="485" on="1"/>
        <pt x="672" y="485" on="1"/>
        <pt x="600" y="446" on="1"/>
        <pt x="543" y="389" on="1"/>
        <pt x="531" y="313" on="1"/>
        <pt x="543" y="236" on="1"/>
        <pt x="602" y="176" on="1"/>
        <pt x="746" y="164" on="1"/>
        <pt x="746" y="254" on="1"/>
        <pt x="635" y="264" on="1"/>
        <pt x="621" y="324" on="1"/>
        <pt x="631" y="358" on="1"/>
        <pt x="741" y="485" on="1"/>
        <pt x="733" y="485" on="1"/>
        <pt x="850" y="500" on="1"/>
        <pt x="825" y="608" on="1"/>
        <pt x="731" y="592" on="1"/>
        <pt x="488" y="592" on="1"/>
        <pt x="424" y="602" on="1"/>
        <pt x="410" y="662" on="1"/>
        <pt x="410" y="868" on="1"/>
        <pt x="877" y="868" on="1"/>
      </contour>
      <contour>
        <pt x="746" y="1370" on="1"/>
        <pt x="847" y="1370" on="0"/>
        <pt x="1011" y="1310" on="0"/>
        <pt x="1126" y="1206" on="0"/>
        <pt x="1188" y="1067" on="0"/>
        <pt x="1188" y="989" on="1"/>
        <pt x="1188" y="381" on="1"/>
        <pt x="1188" y="303" on="0"/>
        <pt x="1126" y="164" on="0"/>
        <pt x="1011" y="60" on="0"/>
        <pt x="847" y="0" on="0"/>
        <pt x="746" y="0" on="1"/>
        <pt x="438" y="0" on="1"/>
        <pt x="337" y="0" on="0"/>
        <pt x="173" y="60" on="0"/>
        <pt x="58" y="164" on="0"/>
        <pt x="-4" y="303" on="0"/>
        <pt x="-4" y="381" on="1"/>
        <pt x="-4" y="989" on="1"/>
        <pt x="-4" y="1067" on="0"/>
        <pt x="58" y="1206" on="0"/>
        <pt x="173" y="1310" on="0"/>
        <pt x="337" y="1370" on="0"/>
        <pt x="438" y="1370" on="1"/>
      </contour>
    </TTGlyph>
    <TTGlyph name="equal" xMin="-4" yMin="96" xMax="993" yMax="1559">
      <contour>
        <pt x="469" y="96" on="1"/>
        <pt x="360" y="96" on="0"/>
        <pt x="185" y="160" on="0"/>
        <pt x="62" y="271" on="0"/>
        <pt x="-4" y="420" on="0"/>
        <pt x="-4" y="504" on="1"/>
        <pt x="-4" y="1153" on="1"/>
        <pt x="-4" y="1237" on="0"/>
        <pt x="63" y="1384" on="0"/>
        <pt x="187" y="1495" on="0"/>
        <pt x="363" y="1559" on="0"/>
        <pt x="473" y="1559" on="1"/>
        <pt x="522" y="1559" on="1"/>
        <pt x="630" y="1559" on="0"/>
        <pt x="805" y="1495" on="0"/>
        <pt x="927" y="1384" on="0"/>
        <pt x="993" y="1237" on="0"/>
        <pt x="993" y="1153" on="1"/>
        <pt x="993" y="504" on="1"/>
        <pt x="993" y="418" on="0"/>
        <pt x="925" y="269" on="0"/>
        <pt x="799" y="159" on="0"/>
        <pt x="621" y="96" on="0"/>
        <pt x="510" y="96" on="1"/>
      </contour>
      <contour>
        <pt x="709" y="768" on="1"/>
        <pt x="318" y="768" on="1"/>
        <pt x="318" y="700" on="1"/>
        <pt x="709" y="700" on="1"/>
      </contour>
      <contour>
        <pt x="709" y="963" on="1"/>
        <pt x="318" y="963" on="1"/>
        <pt x="318" y="899" on="1"/>
        <pt x="709" y="899" on="1"/>
      </contour>
    </TTGlyph>
    <TTGlyph name="eth" xMin="-4" yMin="0" xMax="1188" yMax="1370">
      <component glyphName="Eth" x="0" y="0" flags="0x1204"/>
    </TTGlyph>
    <TTGlyph name="exclam" xMin="-4" yMin="0" xMax="873" yMax="1370">
      <contour>
        <pt x="438" y="1370" on="1"/>
        <pt x="537" y="1368" on="0"/>
        <pt x="698" y="1307" on="0"/>
        <pt x="812" y="1204" on="0"/>
        <pt x="873" y="1067" on="0"/>
        <pt x="873" y="989" on="1"/>
        <pt x="873" y="381" on="1"/>
        <pt x="873" y="303" on="0"/>
        <pt x="811" y="164" on="0"/>
        <pt x="695" y="60" on="0"/>
        <pt x="532" y="0" on="0"/>
        <pt x="430" y="0" on="1"/>
        <pt x="330" y="0" on="0"/>
        <pt x="170" y="61" on="0"/>
        <pt x="57" y="166" on="0"/>
        <pt x="-4" y="304" on="0"/>
        <pt x="-4" y="381" on="1"/>
        <pt x="-4" y="989" on="1"/>
        <pt x="-4" y="1067" on="0"/>
        <pt x="58" y="1206" on="0"/>
        <pt x="173" y="1310" on="0"/>
        <pt x="337" y="1370" on="0"/>
      </contour>
      <contour>
        <pt x="371" y="1280" on="1"/>
        <pt x="412" y="627" on="1"/>
        <pt x="471" y="627" on="1"/>
        <pt x="512" y="1280" on="1"/>
      </contour>
      <contour>
        <pt x="389" y="438" on="1"/>
        <pt x="512" y="438" on="1"/>
        <pt x="496" y="545" on="1"/>
        <pt x="389" y="545" on="1"/>
      </contour>
    </TTGlyph>
    <TTGlyph name="exclamdown" xMin="-4" yMin="0" xMax="873" yMax="1370">
      <contour>
        <pt x="438" y="1370" on="1"/>
        <pt x="537" y="1368" on="0"/>
        <pt x="698" y="1307" on="0"/>
        <pt x="812" y="1204" on="0"/>
        <pt x="873" y="1067" on="0"/>
        <pt x="873" y="989" on="1"/>
        <pt x="873" y="381" on="1"/>
        <pt x="873" y="303" on="0"/>
        <pt x="811" y="164" on="0"/>
        <pt x="695" y="60" on="0"/>
        <pt x="532" y="0" on="0"/>
        <pt x="430" y="0" on="1"/>
        <pt x="330" y="0" on="0"/>
        <pt x="170" y="61" on="0"/>
        <pt x="57" y="166" on="0"/>
        <pt x="-4" y="304" on="0"/>
        <pt x="-4" y="381" on="1"/>
        <pt x="-4" y="989" on="1"/>
        <pt x="-4" y="1067" on="0"/>
        <pt x="58" y="1206" on="0"/>
        <pt x="173" y="1310" on="0"/>
        <pt x="337" y="1370" on="0"/>
      </contour>
      <contour>
        <pt x="492" y="438" on="1"/>
        <pt x="492" y="1092" on="1"/>
        <pt x="412" y="1092" on="1"/>
        <pt x="412" y="438" on="1"/>
      </contour>
      <contour>
        <pt x="389" y="1174" on="1"/>
        <pt x="496" y="1174" on="1"/>
        <pt x="496" y="1280" on="1"/>
        <pt x="389" y="1280" on="1"/>
      </contour>
    </TTGlyph>
    <TTGlyph name="f" xMin="-4" yMin="0" xMax="1188" yMax="1370">
      <component glyphName="F" x="0" y="0" flags="0x1204"/>
    </TTGlyph>
    <TTGlyph name="five" xMin="-4" yMin="0" xMax="1188" yMax="1370">
      <contour>
        <pt x="746" y="1370" on="1"/>
        <pt x="847" y="1370" on="0"/>
        <pt x="1011" y="1310" on="0"/>
        <pt x="1126" y="1206" on="0"/>
        <pt x="1188" y="1067" on="0"/>
        <pt x="1188" y="989" on="1"/>
        <pt x="1188" y="381" on="1"/>
        <pt x="1188" y="303" on="0"/>
        <pt x="1126" y="164" on="0"/>
        <pt x="1011" y="60" on="0"/>
        <pt x="847" y="0" on="0"/>
        <pt x="746" y="0" on="1"/>
        <pt x="438" y="0" on="1"/>
        <pt x="337" y="0" on="0"/>
        <pt x="173" y="60" on="0"/>
        <pt x="58" y="164" on="0"/>
        <pt x="-4" y="303" on="0"/>
        <pt x="-4" y="381" on="1"/>
        <pt x="-4" y="989" on="1"/>
        <pt x="-4" y="1067" on="0"/>
        <pt x="58" y="1206" on="0"/>
        <pt x="173" y="1310" on="0"/>
        <pt x="337" y="1370" on="0"/>
        <pt x="438" y="1370" on="1"/>
      </contour>
      <contour>
        <pt x="936" y="797" on="1"/>
        <pt x="922" y="881" on="1"/>
        <pt x="858" y="944" on="1"/>
        <pt x="758" y="958" on="1"/>
        <pt x="512" y="958" on="1"/>
        <pt x="438" y="946" on="1"/>
        <pt x="438" y="1176" on="1"/>
        <pt x="895" y="1176" on="1"/>
        <pt x="895" y="1280" on="1"/>
        <pt x="395" y="1280" on="1"/>
        <pt x="332" y="1217" on="1"/>
        <pt x="332" y="840" on="1"/>
        <pt x="434" y="840" on="1"/>
        <pt x="518" y="852" on="1"/>
        <pt x="752" y="852" on="1"/>
        <pt x="819" y="842" on="1"/>
        <pt x="830" y="782" on="1"/>
        <pt x="830" y="623" on="1"/>
        <pt x="828" y="610" on="0"/>
        <pt x="818" y="582" on="0"/>
        <pt x="815" y="569" on="1"/>
        <pt x="756" y="557" on="1"/>
        <pt x="514" y="557" on="1"/>
        <pt x="451" y="569" on="1"/>
        <pt x="440" y="616" on="1"/>
        <pt x="326" y="604" on="1"/>
        <pt x="348" y="526" on="1"/>
        <pt x="412" y="465" on="1"/>
        <pt x="512" y="453" on="1"/>
        <pt x="758" y="453" on="1"/>
        <pt x="858" y="465" on="1"/>
        <pt x="922" y="528" on="1"/>
        <pt x="936" y="612" on="1"/>
      </contour>
    </TTGlyph>
    <TTGlyph name="florin" xMin="-4" yMin="0" xMax="1188" yMax="1370">
      <contour>
        <pt x="398" y="831" on="1"/>
        <pt x="501" y="831" on="1"/>
        <pt x="501" y="352" on="1"/>
        <pt x="352" y="352" on="1"/>
        <pt x="352" y="256" on="1"/>
        <pt x="501" y="256" on="1"/>
        <pt x="608" y="352" on="1"/>
        <pt x="608" y="831" on="1"/>
        <pt x="744" y="831" on="1"/>
        <pt x="744" y="918" on="1"/>
        <pt x="608" y="918" on="1"/>
        <pt x="608" y="1174" on="1"/>
        <pt x="800" y="1174" on="1"/>
        <pt x="800" y="1280" on="1"/>
        <pt x="608" y="1280" on="1"/>
        <pt x="501" y="1174" on="1"/>
        <pt x="501" y="918" on="1"/>
        <pt x="398" y="918" on="1"/>
      </contour>
      <contour>
        <pt x="746" y="1370" on="1"/>
        <pt x="847" y="1370" on="0"/>
        <pt x="1011" y="1310" on="0"/>
        <pt x="1126" y="1206" on="0"/>
        <pt x="1188" y="1067" on="0"/>
        <pt x="1188" y="989" on="1"/>
        <pt x="1188" y="381" on="1"/>
        <pt x="1188" y="303" on="0"/>
        <pt x="1126" y="164" on="0"/>
        <pt x="1011" y="60" on="0"/>
        <pt x="847" y="0" on="0"/>
        <pt x="746" y="0" on="1"/>
        <pt x="438" y="0" on="1"/>
        <pt x="337" y="0" on="0"/>
        <pt x="173" y="60" on="0"/>
        <pt x="58" y="164" on="0"/>
        <pt x="-4" y="303" on="0"/>
        <pt x="-4" y="381" on="1"/>
        <pt x="-4" y="989" on="1"/>
        <pt x="-4" y="1067" on="0"/>
        <pt x="58" y="1206" on="0"/>
        <pt x="173" y="1310" on="0"/>
        <pt x="337" y="1370" on="0"/>
        <pt x="438" y="1370" on="1"/>
      </contour>
    </TTGlyph>
</ttFont>
